<?xml version="1.0" encoding="UTF-8"?>
<svg width="12px" height="12px" viewBox="0 0 12 12" version="1.1" xmlns="http://www.w3.org/2000/svg" xmlns:xlink="http://www.w3.org/1999/xlink">
    <!-- Generator: Sketch 63 (92445) - https://sketch.com -->
    <title>add</title>
    <desc>Created with Sketch.</desc>
    <g id="页面-1" stroke="none" stroke-width="1" fill="none" fill-rule="evenodd">
        <g id="add" fill="#8293A7" fill-rule="nonzero">
            <path d="M5.64902415,11.2990717 C2.57491126,11.3719756 -0.00710055882,8.63808073 0.0110294958,5.62472104 C0.0293513713,2.62351201 2.64781512,-0.00710238971 5.70370206,0.0110294318 C8.69883577,0.0293495515 11.3355255,2.6478133 11.3173935,5.70370024 C11.2990736,8.69883395 8.69883577,11.3902016 5.64902415,11.2990717 Z M5.43031257,1.08645556 C3.27357329,1.06822959 0.813067897,3.16421567 1.07430675,6.12897277 C1.25049108,8.12775368 3.17029282,10.5214305 6.14720057,10.2541164 C8.15205681,10.0718567 10.515357,8.15205497 10.2480429,5.18729786 C10.0597079,3.07916115 8.06700229,0.885969937 5.43031257,1.08645556 Z" id="形状"></path>
            <path d="M6.18972781,4.00868541 C6.18972781,4.3124515 6.19580313,4.61621761 6.18972781,4.9199837 C6.18365249,5.09009271 6.25048103,5.14477061 6.41451472,5.13869529 C7.02204692,5.13261997 7.62957911,5.13869529 8.23711131,5.13261997 C8.41329564,5.13261997 8.48619951,5.18122255 8.47404886,5.3634822 C8.46189822,5.57004314 8.46189822,5.7766041 8.47404886,5.97708972 C8.48012418,6.14112341 8.41329564,6.18972599 8.26141258,6.18365066 C7.65388039,6.17757534 7.04634819,6.18365066 6.438816,6.17757534 C6.25655634,6.17757534 6.18365248,6.23225324 6.1897278,6.42058822 C6.20187844,7.0220451 6.1897278,7.61742664 6.19580312,8.21888351 C6.20187844,8.41329382 6.12897458,8.47404704 5.94671492,8.4618964 C5.75837993,8.44974576 5.56396963,8.44974576 5.37563465,8.4618964 C5.19945032,8.47404704 5.1386971,8.4072185 5.1386971,8.22495885 C5.14477242,7.63565262 5.13262178,7.04027107 5.14477242,6.45096484 C5.15084774,6.22617793 5.07186856,6.16542471 4.85923229,6.17150003 C4.26992606,6.18365067 3.67454451,6.17150003 3.08523828,6.17757535 C2.92120459,6.17757535 2.84830073,6.12897277 2.86045137,5.95886376 C2.87260201,5.75230282 2.87260201,5.54574186 2.86045137,5.34525624 C2.84830073,5.16907191 2.92120459,5.12654465 3.08523828,5.12654465 C3.68669516,5.13261997 4.2820767,5.12046933 4.88353358,5.13261997 C5.07794388,5.13869529 5.15084774,5.08401739 5.14477242,4.87745645 C5.13262178,4.27599957 5.14477242,3.68061803 5.1386971,3.07916115 C5.1386971,2.89690149 5.19945032,2.83614827 5.37563465,2.8422236 C5.57004495,2.85437424 5.77053057,2.85437424 5.96494088,2.8422236 C6.12897457,2.83614828 6.19580311,2.89082618 6.18972779,3.06093519 C6.18365249,3.38900258 6.18972781,3.698844 6.18972781,4.00868541 Z" id="路径"></path>
        </g>
    </g>
</svg>