<?xml version="1.0" standalone="no"?><!DOCTYPE svg PUBLIC "-//W3C//DTD SVG 1.1//EN" "http://www.w3.org/Graphics/SVG/1.1/DTD/svg11.dtd"><svg class="icon" width="200px" height="200.00px" viewBox="0 0 1024 1024" version="1.1" xmlns="http://www.w3.org/2000/svg"><path d="M535.179636 546.164364a272.756364 272.756364 0 1 1 0-545.512728 272.756364 272.756364 0 0 1 0 545.512728z m0-466.106182a191.115636 191.115636 0 0 0-191.301818 191.301818 191.115636 191.115636 0 0 0 191.301818 191.301818 191.115636 191.115636 0 0 0 191.301819-191.301818c0-103.796364-85.457455-191.301818-191.301819-191.301818z"  /><path d="M87.412364 995.979636a40.820364 40.820364 0 0 1-40.727273-40.727272c0-268.660364 219.834182-488.494545 488.494545-488.494546 22.388364 0 40.727273 18.338909 40.727273 40.727273a40.820364 40.820364 0 0 1-40.727273 40.727273c-223.883636 0-407.086545 183.156364-407.086545 407.04a40.820364 40.820364 0 0 1-40.680727 40.727272zM936.168727 812.776727h-313.483636a40.820364 40.820364 0 0 1-40.680727-40.680727c0-22.388364 18.292364-40.727273 40.680727-40.727273h313.483636c22.341818 0 40.680727 18.338909 40.680728 40.727273a40.820364 40.820364 0 0 1-40.680728 40.680727z"  /><path d="M779.403636 969.541818a40.820364 40.820364 0 0 1-40.680727-40.727273V615.330909c0-22.388364 18.292364-40.727273 40.680727-40.727273s40.727273 18.338909 40.727273 40.727273v313.437091a40.820364 40.820364 0 0 1-40.727273 40.680727z"  /></svg>