<?xml version="1.0" standalone="no"?><!DOCTYPE svg PUBLIC "-//W3C//DTD SVG 1.1//EN" "http://www.w3.org/Graphics/SVG/1.1/DTD/svg11.dtd"><svg t="1564541969308" class="icon" viewBox="0 0 1592 1024" version="1.1" xmlns="http://www.w3.org/2000/svg" p-id="10363" xmlns:xlink="http://www.w3.org/1999/xlink" width="310.9375" height="200"><defs><style type="text/css"></style></defs><path d="M285.57946 784.947687a74.415657 74.415657 0 0 1-57.679773-72.818457V311.745772c2.499966-36.402284 24.999661-64.846343 57.568663-72.818457l358.161809-80.554463 37.499491-158.331186h-415.688806C117.762292 0 0 122.220564 0 272.954631v472.965807C0 896.557284 120.262258 1021.375036 265.440844 1021.375036h415.730473l-37.499492-158.497851-358.203475-77.929498zM1327.31533 0H909.071003l37.499492 158.483962 358.217363 80.679461a74.415657 74.415657 0 0 1 57.568664 72.804568v400.161239c-2.499966 36.402284-24.999661 64.846343-57.568664 72.818457l-358.175697 80.554463-37.499492 158.49785h418.202661c145.289696 0 265.551954-122.220564 265.551954-275.454597V272.954631C1590.367318 122.081677 1472.605027 0 1327.42644 0zM643.519049 491.173894h305.551412v39.027248h-305.551412v-39.027248z" p-id="10364"></path></svg>