<?xml version="1.0" encoding="UTF-8"?>
<svg width="16px" height="15px" viewBox="0 0 16 15" version="1.1" xmlns="http://www.w3.org/2000/svg" xmlns:xlink="http://www.w3.org/1999/xlink">
    <title>shujufenxi</title>
    <g id="视觉规范" stroke="none" stroke-width="1" fill="none" fill-rule="evenodd">
        <g id="亮色主题视觉规范" transform="translate(-69.000000, -3897.000000)" fill="#ACB3CB" fill-rule="nonzero">
            <g id="shujufenxi" transform="translate(69.000000, 3897.000000)">
                <path d="M12.7421148,3.00530849 C12.5058197,2.86871203 12.2259181,3.00139508 12.0179486,3.22520457 L8.96642462,6.0113624 L6.55464918,4.29244595 C6.28928307,4.12342413 6.18567101,4.03155231 5.95664366,4.07720869 C5.91377423,4.08339246 5.87191457,4.09523599 5.83216012,4.11242934 C5.8235879,4.11671545 5.81352486,4.11634274 5.80476628,4.12062885 C5.7960077,4.12491496 5.79209431,4.13218271 5.78389479,4.13646882 C5.74861073,4.15666089 5.71604676,4.18127174 5.68699144,4.2097054 C5.65883239,4.2345982 5.63380199,4.26281998 5.61245039,4.29375042 C5.60760521,4.30101817 5.60033747,4.30474523 5.59605137,4.31238568 L3.12706568,7.26607451 C2.9909648,7.50365037 3.07160729,7.80651697 3.3078277,7.94495705 C3.54375011,8.08192622 3.78526308,8.0017946 3.98223779,7.76270421 L6.16051341,5.15954463 L8.44594179,6.80820615 C8.54646965,6.89266772 8.6517443,6.97131261 8.7612504,7.04375584 C8.96623826,7.17737066 9.18837057,7.09556187 9.41609346,6.87603849 L12.8729343,3.71922533 C13.136996,3.4523684 12.9778508,3.14153225 12.7424875,3.00530849 L12.7421148,3.00530849 Z M15.4091933,0.111624438 L0.59080668,0.111624438 C0.323351806,0.11897345 0.110353867,0.337903817 0.110353867,0.605459617 C0.110353867,0.873015417 0.323351806,1.09194578 0.59080668,1.09929402 L1.0850138,1.09929402 L1.0850138,9.98980421 C1.08501379,10.2517503 1.18907146,10.5029677 1.3742953,10.6881915 C1.55951913,10.8734154 1.81073656,10.977473 2.07268262,10.977473 L6.33903921,10.977473 L5.11023011,13.2414709 C4.95872544,13.465094 5.04854741,13.7531951 5.31093187,13.8828965 C5.57331633,14.0125979 5.90893739,13.935448 6.06100113,13.7107067 L7.43292901,11.1841381 C7.47346629,11.1226163 7.49658486,11.0512642 7.49982959,10.9776594 L8.50072946,10.9776594 C8.50423969,11.0512438 8.52740551,11.122543 8.5678164,11.1841381 L9.93937158,13.7107067 C10.091249,13.935448 10.4270564,14.0116662 10.6894408,13.8828965 C10.9518253,13.7541269 11.0416473,13.465653 10.8901426,13.2414709 L9.66096079,10.9776594 L13.9275037,10.9776594 C14.4729782,10.9776594 14.9151725,10.535465 14.9151725,9.98999057 L14.9151725,1.09948038 L15.4091933,1.09948038 C15.5888581,1.10441652 15.7570285,1.01138672 15.8483161,0.856563089 C15.9396037,0.701739459 15.9396037,0.509552479 15.8483161,0.354728849 C15.7570285,0.199905218 15.5888581,0.106875415 15.4091933,0.111811556 L15.4091933,0.111624438 Z M13.9275037,9.49596981 C13.9275037,9.76880994 13.7063231,9.98999113 13.433483,9.98999113 L2.56707609,9.98999113 C2.43595877,9.99018859 2.3101493,9.93821564 2.2174003,9.84553656 C2.1246513,9.75285748 2.07268248,9.62708724 2.07268248,9.49596981 L2.07268248,1.10041214 L2.56129916,1.10041214 C2.56278998,1.10041214 2.5646535,1.09948038 2.56651702,1.09948038 L13.433483,1.09948038 C13.4347874,1.09948038 13.4368373,1.10041215 13.4383281,1.10041214 L13.9275037,1.10041214 L13.9275037,9.49596981 Z" id="形状"></path>
                <path d="M10.4132663,14.0584407 C10.187966,14.0584407 9.97049246,13.9566922 9.84675433,13.7735075 L9.84116376,13.7641899 L8.47165845,11.241721 C8.44109023,11.195067 8.41859958,11.1435968 8.40513057,11.089471 L7.59505579,11.089471 C7.58172648,11.1437023 7.55922661,11.1952566 7.52852791,11.2419074 L6.15641365,13.7688487 L6.15343201,13.7733212 C5.96931563,14.0459551 5.57760246,14.1381996 5.26154843,13.9833406 C5.10035342,13.9035817 4.98406939,13.7671716 4.94195372,13.6085855 C4.90345487,13.4631665 4.92982624,13.3082007 5.01425852,13.1837015 L6.15100943,11.0896573 L2.07268262,11.0896573 C1.46583934,11.0887337 0.974125812,10.5970202 0.973202228,9.99017691 L0.973202228,1.21129194 L0.59080668,1.21129194 C0.262169369,1.20313868 0,0.934384403 0,0.605645969 C0,0.276907536 0.262169369,0.00815325932 0.59080668,0 L15.4091933,0 C15.7378306,0.00815325932 16,0.276907536 16,0.605645969 C16,0.934384403 15.7378306,1.20313868 15.4091933,1.21129194 L15.0271705,1.21129194 L15.0271705,9.98980421 C15.0263492,10.59669 14.5345758,11.0884634 13.9276901,11.0892846 L9.84899057,11.0892846 L10.9857415,13.1833288 C11.0702051,13.3078854 11.0965768,13.4629212 11.0580463,13.6083991 C11.016117,13.7669852 10.8996466,13.9033953 10.7388243,13.9829679 C10.6374907,14.0326522 10.5261247,14.0584407 10.4132663,14.0584407 Z M10.0347841,13.6523784 C10.1574041,13.8284816 10.4276154,13.8868099 10.6400574,13.7828252 C10.7427377,13.7321373 10.816347,13.6477195 10.8418773,13.5515616 C10.8639512,13.4665864 10.8476732,13.3762058 10.797339,13.3042717 L10.7917484,13.2949541 L9.47311736,10.8658478 L13.9269447,10.8658478 C14.4104119,10.8652318 14.8021859,10.4734578 14.8028019,9.98999057 L14.8028019,0.987668813 L15.4086343,0.987668813 C15.6149755,0.981222894 15.7789094,0.812087918 15.7789094,0.605645969 C15.7789094,0.39920402 15.6149755,0.230069044 15.4086343,0.223623126 L0.59080668,0.223623126 C0.384465389,0.230069044 0.220531532,0.39920402 0.220531532,0.605645969 C0.220531532,0.812087918 0.384465389,0.981222894 0.59080668,0.987668813 L1.19682537,0.987668813 L1.19682537,9.98980421 C1.19764605,10.4731865 1.58930036,10.8648408 2.07268262,10.8656615 L6.52650993,10.8656615 L5.20340642,13.3040853 C5.15307226,13.3760195 5.13679422,13.4664 5.15886814,13.5513752 C5.18439845,13.6475332 5.25800773,13.7317646 5.36106073,13.7828252 C5.57331635,13.8868099 5.84352763,13.8282952 5.96596129,13.6523784 L7.33695742,11.1259961 L7.33993906,11.1215236 C7.36949943,11.0763599 7.38612712,11.0239634 7.38801804,10.9700189 L7.39509944,10.8658478 L8.60490056,10.8658478 L8.61198196,10.9700189 C8.61404833,11.024104 8.6307976,11.0766065 8.66043363,11.1218963 L8.66583787,11.1306549 L10.0347841,13.6523784 Z M13.433483,10.1016158 L2.56707609,10.1016158 C2.23253902,10.1015132 1.96128227,9.83050664 1.96087105,9.49596981 L1.96087105,0.988600581 L2.55179517,0.988600581 C2.55667866,0.987987938 2.56159526,0.987668813 2.56651702,0.987668813 L13.433483,0.987668813 C13.4383429,0.987668813 13.4431978,0.987984101 13.4480185,0.988600581 L14.0391289,0.988600581 L14.0391289,9.49596981 C14.0387182,9.83028857 13.7678017,10.1012051 13.433483,10.1016158 Z M2.18449418,1.21222371 L2.18449418,9.49596981 C2.18480231,9.70690018 2.35577289,9.87778739 2.56670338,9.87799265 L13.433483,9.87799265 C13.6444135,9.87778739 13.815384,9.70690018 13.8156922,9.49596981 L13.8156922,1.21222371 L13.4383281,1.21222371 C13.4334061,1.2122255 13.4284889,1.21191429 13.4236063,1.21129194 L2.57583465,1.21129194 C2.5709518,1.21191131 2.56603478,1.21222252 2.5611128,1.21222371 L2.18449418,1.21222371 Z M3.54281834,8.12590544 C3.44000106,8.12463321 3.33938659,8.09594136 3.25136286,8.04279218 C2.96209519,7.87302598 2.86322673,7.50214463 3.02960326,7.21091414 L3.03444843,7.20234192 L3.04078441,7.19470145 L5.50622941,4.24716226 C5.51175818,4.23945238 5.5179972,4.2322775 5.52486467,4.22573171 C5.54970493,4.19053587 5.57839432,4.15822123 5.61040052,4.12938742 C5.64378643,4.0969982 5.68087874,4.06866293 5.72090762,4.04496969 C5.73166915,4.03511923 5.74385758,4.02695172 5.75706002,4.02074385 C5.76824446,4.01553161 5.78000342,4.01165365 5.79209431,4.00918999 C5.83872916,3.98942192 5.88770331,3.97570665 5.93782204,3.96837877 C6.18343478,3.9202998 6.32189477,4.01012176 6.53116875,4.14578645 C6.55725811,4.16274453 6.5848383,4.18063438 6.61446836,4.199456 L6.61931354,4.202624 L8.9574797,5.86842995 L11.9391214,3.14619106 C12.2138051,2.85249935 12.5425311,2.76137293 12.7980206,2.9089642 C12.9743101,3.01052637 13.0935758,3.17693924 13.1174289,3.35397422 C13.1325235,3.46578579 13.1159381,3.63350314 12.9526932,3.79842519 L12.9485935,3.8023386 L9.49193897,6.95728824 C9.29496426,7.14699519 8.99810456,7.33167063 8.69956769,7.13730485 C8.58760744,7.06357094 8.47990979,6.98355987 8.37699132,6.8976554 L6.17952138,5.3110493 L4.06795998,7.83500902 C3.91030567,8.02676585 3.72823918,8.12534639 3.54319104,8.12534637 L3.54281834,8.12590544 Z M3.21949656,7.32999345 C3.12000943,7.51381371 3.18393569,7.74340455 3.36410618,7.84935817 C3.58940649,7.979805 3.77762262,7.83631349 3.89595652,7.69263563 L6.1416918,5.00915808 L8.51656942,6.72360206 C8.61384744,6.80530058 8.7156987,6.88139349 8.82162864,6.9515113 C8.91294142,7.01095778 9.06575056,7.05940946 9.33782536,6.79683864 L9.3400616,6.79478876 L12.7954116,3.638721 C12.8738661,3.55858938 12.9072232,3.47268083 12.8956693,3.38323158 C12.8813202,3.27607883 12.8010022,3.16836702 12.686209,3.10221185 C12.4937068,2.99040028 12.257598,3.13221462 12.0997574,3.30142278 L12.093235,3.30794512 L8.97518319,6.15485391 L6.4920347,4.38562225 C6.46277734,4.36698699 6.43612893,4.34835173 6.40966684,4.33251176 C6.21138767,4.20374211 6.13703298,4.15566314 5.97844692,4.18734308 L5.97117916,4.18846119 C5.93909791,4.19327372 5.90777732,4.20223141 5.87800286,4.21510962 C5.8712442,4.21816903 5.86426789,4.22072286 5.85713137,4.22275007 C5.85122958,4.22713514 5.84499948,4.2310601 5.83849611,4.23449029 C5.81136205,4.24986344 5.78631083,4.26865185 5.76395506,4.29039607 L5.76078707,4.29337772 C5.73966655,4.31230619 5.72089677,4.33370373 5.70488129,4.35711031 C5.69944987,4.36518152 5.69320549,4.37267478 5.68624603,4.37947261 L5.68195992,4.38450413 L3.21949656,7.32999345 Z M5.56834642,4.26765347 L5.5581663,4.28165119 L5.56834642,4.26765347 Z" id="形状"></path>
            </g>
        </g>
    </g>
</svg>