<?xml version="1.0" encoding="UTF-8"?>
<svg width="7px" height="11px" viewBox="0 0 7 11" version="1.1" xmlns="http://www.w3.org/2000/svg" xmlns:xlink="http://www.w3.org/1999/xlink">
    <title>路径 2</title>
    <g id="仪表盘" stroke="none" stroke-width="1" fill="none" fill-rule="evenodd">
        <g id="仪表盘-全屏" transform="translate(-541.000000, -231.000000)" fill="#3BC0A4" fill-rule="nonzero">
            <g id="编组-10" transform="translate(24.000000, 100.000000)">
                <g id="编组-5" transform="translate(413.000000, 0.000000)">
                    <path d="M108.353118,136.231323 L108.353118,131.769345 C108.353118,131.34238 108.095047,131 107.776456,131 L106.64597,131 C106.493557,130.997985 106.346862,131.078129 106.238549,131.222625 C106.130237,131.367121 106.0693,131.563972 106.069308,131.769345 L106.069308,136.231323 L104.932541,136.231323 C104.300497,136.231323 104.092099,136.782146 104.47007,137.462213 L106.52607,141.154884 C106.907466,141.839567 107.517814,141.834951 107.896356,141.154884 L109.951785,137.462213 C110.333181,136.77753 110.12307,136.231323 109.489884,136.231323 L108.353118,136.231323 Z" id="路径"></path>
                </g>
            </g>
        </g>
    </g>
</svg>