<?xml version="1.0" encoding="UTF-8"?>
<svg width="8px" height="14px" viewBox="0 0 8 14" version="1.1" xmlns="http://www.w3.org/2000/svg" xmlns:xlink="http://www.w3.org/1999/xlink">
    <title>形状</title>
    <g id="平台管理" stroke="none" stroke-width="1" fill="none" fill-rule="evenodd">
        <g id="企业管理-添加企业弹窗" transform="translate(-476.000000, -339.000000)" fill="#ACB3CB" fill-rule="nonzero" stroke="#ACB3CB" stroke-width="0.5">
            <path d="M482.844266,346.417322 C482.943956,346.308362 483,346.160276 483,346.005825 C483,345.851374 482.943956,345.703288 482.844266,345.594327 L477.904731,340.170448 C477.697761,339.943184 477.362197,339.943184 477.155227,340.170448 C476.948258,340.397712 476.948258,340.76618 477.155227,340.993444 L481.720011,346.008079 L477.202456,350.968601 C476.969391,351.224518 476.948857,351.615723 477.156254,351.843456 C477.363651,352.071189 477.719922,352.047514 477.952986,351.791596 L482.79909,346.471437 L482.822705,346.443252 L482.845292,346.419577 L482.844266,346.417322 Z" id="形状" transform="translate(480.000000, 346.000000) scale(-1, 1) translate(-480.000000, -346.000000) "></path>
        </g>
    </g>
</svg>