<?xml version="1.0" encoding="UTF-8"?>
<svg width="7px" height="11px" viewBox="0 0 7 11" version="1.1" xmlns="http://www.w3.org/2000/svg" xmlns:xlink="http://www.w3.org/1999/xlink">
    <title>路径</title>
    <g id="仪表盘" stroke="none" stroke-width="1" fill="none" fill-rule="evenodd">
        <g id="仪表盘-全屏" transform="translate(-121.000000, -229.000000)" fill="#F56C6C" fill-rule="nonzero">
            <g id="编组-5" transform="translate(24.000000, 100.000000)">
                <path d="M101.334504,134.231323 L101.334504,129.769345 C101.334504,129.34238 101.079238,129 100.76411,129 L99.6459116,129 C99.4951555,128.997985 99.3500549,129.078129 99.2429198,129.222625 C99.1357847,129.367121 99.0755101,129.563972 99.0755177,129.769345 L99.0755177,134.231323 L97.9511073,134.231323 C97.325933,134.231323 97.1198005,134.782146 97.4936627,135.462213 L99.5273149,139.154884 C99.9045655,139.839567 100.50828,139.834951 100.882707,139.154884 L102.915794,135.462213 C103.293045,134.77753 103.085218,134.231323 102.458914,134.231323 L101.334504,134.231323 Z" id="路径" transform="translate(100.205685, 134.333333) scale(1, -1) translate(-100.205685, -134.333333) "></path>
            </g>
        </g>
    </g>
</svg>