<svg class="icon" viewBox="0 0 1705 1024" xmlns="http://www.w3.org/2000/svg" width="333.008" height="200"><path d="M480.59 370.847a160.297 160.297 0 0 0 6.48 50.477 263.638 263.638 0 0 0 18.417 40.586 26.261 26.261 0 0 1 4.093 12.96 21.828 21.828 0 0 1-10.914 16.712l-34.106 23.874a28.308 28.308 0 0 1-15.006 5.115 23.533 23.533 0 0 1-16.712-7.844 129.602 129.602 0 0 1-20.464-26.261q-8.526-14.325-17.394-34.106a209.41 209.41 0 0 1-166.777 78.443 154.84 154.84 0 0 1-113.23-40.586 145.632 145.632 0 0 1-41.61-109.138 145.973 145.973 0 0 1 49.794-115.96 206.681 206.681 0 0 1 139.152-43.996 425.299 425.299 0 0 1 60.026 4.434q31.377 4.433 65.142 12.278v-41.61a124.486 124.486 0 0 0-26.943-90.72 129.943 129.943 0 0 0-92.427-26.262 262.956 262.956 0 0 0-61.05 7.503 435.872 435.872 0 0 0-61.049 19.44 155.181 155.181 0 0 1-19.781 7.504h-8.868q-11.937 0-11.937-17.735V69.01a37.175 37.175 0 0 1 4.093-19.781 40.927 40.927 0 0 1 16.03-11.937 371.07 371.07 0 0 1 71.28-25.58A347.538 347.538 0 0 1 285.165.8a204.635 204.635 0 0 1 148.36 46.043 187.24 187.24 0 0 1 47.066 139.493zm-230.214 86.288a182.807 182.807 0 0 0 58.662-10.573 123.804 123.804 0 0 0 53.546-36.493 89.357 89.357 0 0 0 19.1-34.106 192.016 192.016 0 0 0 5.456-49.112v-23.874a489.418 489.418 0 0 0-52.182-9.55 421.888 421.888 0 0 0-53.205-3.41 130.966 130.966 0 0 0-84.241 22.85 79.808 79.808 0 0 0-26.944 63.096 80.149 80.149 0 0 0 20.805 60.026 81.854 81.854 0 0 0 59.003 21.146zm455.312 61.39a34.106 34.106 0 0 1-21.828-5.457 44.338 44.338 0 0 1-11.937-22.17L539.252 52.3a102.317 102.317 0 0 1-5.116-22.85 12.278 12.278 0 0 1 13.983-13.984h55.593a34.106 34.106 0 0 1 22.169 5.457 47.748 47.748 0 0 1 11.254 22.169l95.156 375.163 88.334-375.163a39.904 39.904 0 0 1 11.254-21.828 37.516 37.516 0 0 1 22.85-5.457h45.703a37.516 37.516 0 0 1 22.85 5.457 39.904 39.904 0 0 1 10.915 22.169l89.016 379.938 98.225-379.938a47.407 47.407 0 0 1 11.595-22.17 34.106 34.106 0 0 1 22.17-5.456h52.522a12.278 12.278 0 0 1 13.983 13.983 46.384 46.384 0 0 1 0 8.868 124.145 124.145 0 0 1-4.092 13.983l-136.423 438.6a44.338 44.338 0 0 1-11.937 22.17 34.106 34.106 0 0 1-21.828 5.456h-49.794a34.106 34.106 0 0 1-22.851-5.798 42.973 42.973 0 0 1-10.914-22.85l-88.334-365.274-87.31 364.932a42.973 42.973 0 0 1-10.915 22.85 34.106 34.106 0 0 1-22.85 5.799zm728.5 15.007a384.713 384.713 0 0 1-87.311-9.891 253.747 253.747 0 0 1-65.483-22.85 34.106 34.106 0 0 1-20.805-31.72v-28.648q0-17.735 12.96-17.735a30.695 30.695 0 0 1 10.573 2.046l14.324 5.798a299.108 299.108 0 0 0 62.414 19.782 333.554 333.554 0 0 0 68.212 6.82 152.794 152.794 0 0 0 82.877-18.757 60.026 60.026 0 0 0 29.33-53.547 54.91 54.91 0 0 0-15.347-39.562 146.314 146.314 0 0 0-59.344-30.013l-82.195-25.92a175.645 175.645 0 0 1-88.334-57.298 134.377 134.377 0 0 1-28.308-82.195 126.191 126.191 0 0 1 15.348-63.096 152.453 152.453 0 0 1 40.586-46.725 179.737 179.737 0 0 1 57.98-29.33 252.383 252.383 0 0 1 71.28-9.892 302.518 302.518 0 0 1 38.2 2.388q19.44 2.387 36.833 6.48t32.4 8.867a145.632 145.632 0 0 1 23.875 9.891 54.228 54.228 0 0 1 16.712 13.983 32.06 32.06 0 0 1 5.116 18.759V88.11q0 17.735-12.96 17.735a60.026 60.026 0 0 1-21.828-6.82 263.979 263.979 0 0 0-109.14-21.829 149.042 149.042 0 0 0-75.373 16.03 54.57 54.57 0 0 0-26.943 50.477 53.887 53.887 0 0 0 16.712 40.244 168.483 168.483 0 0 0 62.413 31.378l80.49 24.215a173.257 173.257 0 0 1 87.652 54.57 128.238 128.238 0 0 1 26.602 81.853 143.585 143.585 0 0 1-15.006 65.824 150.065 150.065 0 0 1-41.268 50.136 185.194 185.194 0 0 1-63.096 31.718 281.373 281.373 0 0 1-80.15 9.89z" fill="#252F3E"/><path d="M1541.28 812.858c-186.56 137.787-457.36 211.115-688.596 211.115A1249.636 1249.636 0 0 1 7.543 702.355c-17.394-15.688-2.046-37.175 19.1-25.238A1697.786 1697.786 0 0 0 870.76 901.192a1679.027 1679.027 0 0 0 643.576-131.99c31.377-13.3 57.98 20.805 26.944 43.656z" fill="#F90"/><path d="M1619.04 724.183c-23.873-30.695-157.91-14.324-217.935-7.162-18.076 2.046-21.146-13.643-4.775-25.24 106.75-75.031 282.055-53.545 302.177-28.306s-5.457 200.883-105.387 284.783c-15.347 12.96-30.013 6.139-23.192-10.914 22.51-56.616 72.987-182.466 49.113-213.161z" fill="#F90"/><path d="M480.59 370.847a160.297 160.297 0 0 0 6.48 50.477 263.638 263.638 0 0 0 18.417 40.586 26.261 26.261 0 0 1 4.093 12.96 21.828 21.828 0 0 1-10.914 16.712l-34.106 23.874a28.308 28.308 0 0 1-15.006 5.115 23.533 23.533 0 0 1-16.712-7.844 129.602 129.602 0 0 1-20.464-26.261q-8.526-14.325-17.394-34.106a209.41 209.41 0 0 1-166.777 78.443 154.84 154.84 0 0 1-113.23-40.586 145.632 145.632 0 0 1-41.61-109.138 145.973 145.973 0 0 1 49.794-115.96 206.681 206.681 0 0 1 139.152-43.996 425.299 425.299 0 0 1 60.026 4.434q31.377 4.433 65.142 12.278v-41.61a124.486 124.486 0 0 0-26.943-90.72 129.943 129.943 0 0 0-92.427-26.262 262.956 262.956 0 0 0-61.05 7.503 435.872 435.872 0 0 0-61.049 19.44 155.181 155.181 0 0 1-19.781 7.504h-8.868q-11.937 0-11.937-17.735V69.01a37.175 37.175 0 0 1 4.093-19.781 40.927 40.927 0 0 1 16.03-11.937 371.07 371.07 0 0 1 71.28-25.58A347.538 347.538 0 0 1 285.165.8a204.635 204.635 0 0 1 148.36 46.043 187.24 187.24 0 0 1 47.066 139.493zm-230.214 86.288a182.807 182.807 0 0 0 58.662-10.573 123.804 123.804 0 0 0 53.546-36.493 89.357 89.357 0 0 0 19.1-34.106 192.016 192.016 0 0 0 5.456-49.112v-23.874a489.418 489.418 0 0 0-52.182-9.55 421.888 421.888 0 0 0-53.205-3.41 130.966 130.966 0 0 0-84.241 22.85 79.808 79.808 0 0 0-26.944 63.096 80.149 80.149 0 0 0 20.805 60.026 81.854 81.854 0 0 0 59.003 21.146zm455.312 61.39a34.106 34.106 0 0 1-21.828-5.457 44.338 44.338 0 0 1-11.937-22.17L539.252 52.3a102.317 102.317 0 0 1-5.116-22.85 12.278 12.278 0 0 1 13.983-13.984h55.593a34.106 34.106 0 0 1 22.169 5.457 47.748 47.748 0 0 1 11.254 22.169l95.156 375.163 88.334-375.163a39.904 39.904 0 0 1 11.254-21.828 37.516 37.516 0 0 1 22.85-5.457h45.703a37.516 37.516 0 0 1 22.85 5.457 39.904 39.904 0 0 1 10.915 22.169l89.016 379.938 98.225-379.938a47.407 47.407 0 0 1 11.595-22.17 34.106 34.106 0 0 1 22.17-5.456h52.522a12.278 12.278 0 0 1 13.983 13.983 46.384 46.384 0 0 1 0 8.868 124.145 124.145 0 0 1-4.092 13.983l-136.423 438.6a44.338 44.338 0 0 1-11.937 22.17 34.106 34.106 0 0 1-21.828 5.456h-49.794a34.106 34.106 0 0 1-22.851-5.798 42.973 42.973 0 0 1-10.914-22.85l-88.334-365.274-87.31 364.932a42.973 42.973 0 0 1-10.915 22.85 34.106 34.106 0 0 1-22.85 5.799zm728.5 15.007a384.713 384.713 0 0 1-87.311-9.891 253.747 253.747 0 0 1-65.483-22.85 34.106 34.106 0 0 1-20.805-31.72v-28.648q0-17.735 12.96-17.735a30.695 30.695 0 0 1 10.573 2.046l14.324 5.798a299.108 299.108 0 0 0 62.414 19.782 333.554 333.554 0 0 0 68.212 6.82 152.794 152.794 0 0 0 82.877-18.757 60.026 60.026 0 0 0 29.33-53.547 54.91 54.91 0 0 0-15.347-39.562 146.314 146.314 0 0 0-59.344-30.013l-82.195-25.92a175.645 175.645 0 0 1-88.334-57.298 134.377 134.377 0 0 1-28.308-82.195 126.191 126.191 0 0 1 15.348-63.096 152.453 152.453 0 0 1 40.586-46.725 179.737 179.737 0 0 1 57.98-29.33 252.383 252.383 0 0 1 71.28-9.892 302.518 302.518 0 0 1 38.2 2.388q19.44 2.387 36.833 6.48t32.4 8.867a145.632 145.632 0 0 1 23.875 9.891 54.228 54.228 0 0 1 16.712 13.983 32.06 32.06 0 0 1 5.116 18.759V88.11q0 17.735-12.96 17.735a60.026 60.026 0 0 1-21.828-6.82 263.979 263.979 0 0 0-109.14-21.829 149.042 149.042 0 0 0-75.373 16.03 54.57 54.57 0 0 0-26.943 50.477 53.887 53.887 0 0 0 16.712 40.244 168.483 168.483 0 0 0 62.413 31.378l80.49 24.215a173.257 173.257 0 0 1 87.652 54.57 128.238 128.238 0 0 1 26.602 81.853 143.585 143.585 0 0 1-15.006 65.824 150.065 150.065 0 0 1-41.268 50.136 185.194 185.194 0 0 1-63.096 31.718 281.373 281.373 0 0 1-80.15 9.89z" fill="#252F3E"/><path d="M1541.28 812.858c-186.56 137.787-457.36 211.115-688.596 211.115A1249.636 1249.636 0 0 1 7.543 702.355c-17.394-15.688-2.046-37.175 19.1-25.238A1697.786 1697.786 0 0 0 870.76 901.192a1679.027 1679.027 0 0 0 643.576-131.99c31.377-13.3 57.98 20.805 26.944 43.656z" fill="#F90"/><path d="M1619.04 724.183c-23.873-30.695-157.91-14.324-217.935-7.162-18.076 2.046-21.146-13.643-4.775-25.24 106.75-75.031 282.055-53.545 302.177-28.306s-5.457 200.883-105.387 284.783c-15.347 12.96-30.013 6.139-23.192-10.914 22.51-56.616 72.987-182.466 49.113-213.161z" fill="#F90"/></svg>