<svg t="1666869530478" class="icon" viewBox="0 0 1024 1024" version="1.1" xmlns="http://www.w3.org/2000/svg" p-id="3279" width="200" height="200"><path d="M494.2 477L369.7 155.1c-5.5-14.3-19.6-22.9-34.5-22.6-14.8-0.3-28.9 8.4-34.5 22.6L176.3 477c-7 18.1 2.5 38.2 21.1 44.9 4.2 1.5 8.4 2.2 12.6 2.2 14.6 0 28.3-8.6 33.7-22.6l31.6-81.6h120l31.6 81.6c5.4 14 19.1 22.7 33.7 22.7 4.2 0 8.5-0.7 12.6-2.2 18.6-6.8 28-26.9 21-45zM302.3 350l33-85.3 33 85.3h-66zM443 827H297l176.4-234c7.4-9.9 8.7-22.4 4.6-33.1-3.8-15.4-18-26.9-35-26.9H228c-19.9 0-36 15.7-36 35s16.1 35 36 35h148.6L199.9 837.5c-3.3 4.3-5.3 9.2-6.3 14.1-1.1 3.3-1.6 6.8-1.6 10.5 0 19.3 16.1 34.9 36 34.9h215c19.9 0 36-15.7 36-35s-16.1-35-36-35zM876 299L729.5 152.5c-7.1-7-16.2-10.5-25.5-10.5s-18.5 3.5-25.5 10.5c-1.2 1.2-2.3 2.5-3.3 3.8l-0.2 0.2L528.7 303c-14.1 14-14 36.8 0 50.9s36.8 14.1 50.9 0l88.5-88.5v582.1c0 19.9 16.1 36 36 36s36-16.1 36-36V265l85 85c14 14.1 36.8 14.1 50.9 0 14-14.1 14-36.9 0-51z" p-id="3280"></path></svg>