<?xml version="1.0" encoding="UTF-8"?>
<svg width="14px" height="14px" viewBox="0 0 14 14" version="1.1" xmlns="http://www.w3.org/2000/svg" xmlns:xlink="http://www.w3.org/1999/xlink">
    <title>bingtu</title>
    <g id="布局/组件使用规范" stroke="none" stroke-width="1" fill="none" fill-rule="evenodd">
        <g id="仪表盘使用规范" transform="translate(-1424.000000, -748.000000)" fill="#757FFF" fill-rule="nonzero" stroke="#757FFF" stroke-width="0.3">
            <g id="编组-8备份-6" transform="translate(1418.000000, 740.000000)">
                <g id="bingtu" transform="translate(7.000000, 9.000000)">
                    <path d="M5.02696476,1.1416704 C5.07311611,1.37424875 4.92526119,1.60116498 4.69385957,1.65289433 C2.17186006,2.17019049 0.517321967,4.58317902 0.936594988,7.15115399 C1.25842318,9.13908642 2.87276889,10.7534321 4.86041216,11.0749712 C7.43995328,11.4887503 9.84715874,9.8284291 10.3583827,7.29457428 C10.4043581,7.05891392 10.6342354,6.90971056 10.8638235,6.95568602 C11.0994839,7.00166147 11.2486872,7.23153875 11.2027118,7.46112687 C10.6573677,10.1441851 8.31319778,11.9999742 5.64170575,11.9999742 C5.33722679,11.9999742 5.02696476,11.977131 4.71670272,11.9253725 C2.36703888,11.5460027 0.453997283,9.6387442 0.0749166404,7.28908036 C-0.413464141,4.26713391 1.53398676,1.41752313 4.51574082,0.808565211 C4.75140118,0.762589756 4.97549538,0.912082275 5.02696476,1.1416704 Z M9.0103803,0.216667366 C10.4350411,0.630446466 11.6243307,1.81944692 12.0381098,3.24439689 C12.3541549,4.32438636 12.3252395,5.06548757 11.9461589,5.57121758 C11.4866935,6.18595858 10.6478583,6.25477718 10.0617435,6.25477718 L8.15448502,6.25477718 C6.72404114,6.25477718 6,5.44485737 6,3.84178866 L6,2.19303364 C6,1.60691888 6.06881861,0.768372832 6.67777653,0.308618277 C7.18900046,-0.070462365 7.92460775,-0.0993777458 9.0103803,0.216667366 Z M7.74070592,0.860323743 C7.50504557,0.860323743 7.3214329,0.906299198 7.20056661,0.998250109 C6.97647241,1.1648027 6.86746142,1.5554495 6.86746142,2.1933228 L6.86746142,3.84786089 C6.86746142,5.13488449 7.36162528,5.39917107 8.15997895,5.39917107 L10.0672375,5.39917107 C10.6993277,5.39917107 11.0899745,5.29016008 11.2623102,5.06606588 C11.463272,4.8017793 11.446212,4.27320614 11.2221178,3.49769563 C10.8890126,2.36536931 9.91254018,1.38311383 8.78050302,1.05550256 C8.35544692,0.923359273 8.01077558,0.860323743 7.74070592,0.860323743 Z" id="形状结合"></path>
                </g>
            </g>
        </g>
    </g>
</svg>