<?xml version="1.0" encoding="UTF-8"?>
<svg width="14px" height="12px" viewBox="0 0 14 12" version="1.1" xmlns="http://www.w3.org/2000/svg" xmlns:xlink="http://www.w3.org/1999/xlink">
    <title>编组 10</title>
    <g id="布局/组件使用规范" stroke="none" stroke-width="1" fill="none" fill-rule="evenodd">
        <g id="仪表盘使用规范" transform="translate(-1424.000000, -449.000000)" fill="#757FFF" fill-rule="nonzero">
            <g id="编组-10" transform="translate(1425.000000, 450.000000)">
                <path d="M11.5557627,8.88893737 L0.888479016,8.88893737 L0.888479016,0.444237321 C0.888479016,0.198891824 0.689587193,0 0.444241695,0 C0.198896197,0 2.17375964e-06,0.198891824 2.17375964e-06,0.444237321 L2.17375964e-06,9.3331747 C-0.000366889911,9.45123562 0.0462726012,9.56458833 0.129623534,9.64820138 C0.212974466,9.73181442 0.32618019,9.77880899 0.444241695,9.77880899 L11.5557627,9.77880899 C11.7144734,9.77880899 11.8611281,9.69413785 11.9404835,9.55669034 C12.0198388,9.41924283 12.0198388,9.24990051 11.9404835,9.112453 C11.8611281,8.97500549 11.7144734,8.89033434 11.5557627,8.89033435 L11.5557627,8.88893737 Z" id="形状" stroke="#757FFF" stroke-width="0.5"></path>
                <path d="M5.61511032,1.16744694 C5.95564965,1.16744694 6.23022064,1.40176289 6.23022064,1.68898889 L6.23022064,6.55822548 C6.23022064,6.84696319 5.95386673,7.07976743 5.61511032,7.07976743 C5.27635391,7.07976743 5,6.84696319 5,6.55822548 L5,1.68898889 C5,1.40176289 5.27635391,1.16744694 5.61511032,1.16744694 Z" id="路径" transform="translate(5.615110, 4.123607) rotate(-90.000000) translate(-5.615110, -4.123607) "></path>
                <path d="M5.07555159,4.39305685 C5.41609093,4.39305685 5.69066191,4.62737279 5.69066191,4.9145988 L5.69066191,8.39305685 C5.69066191,8.68179456 5.414308,8.9145988 5.07555159,8.9145988 C4.73679519,8.9145988 4.46044127,8.68179456 4.46044127,8.39305685 L4.46044127,4.9145988 C4.46044127,4.62586108 4.73501226,4.39305685 5.07555159,4.39305685 Z" id="路径" transform="translate(5.075552, 6.653828) rotate(-90.000000) translate(-5.075552, -6.653828) "></path>
                <path d="M6.84533096,-2.40661345 C7.18587029,-2.40661345 7.46044127,-2.1722975 7.46044127,-1.8850715 L7.46044127,5.0718446 C7.46044127,5.36058231 7.18408736,5.59338655 6.84533096,5.59338655 C6.50657455,5.59338655 6.23022064,5.36058231 6.23022064,5.0718446 L6.23022064,-1.8850715 C6.23022064,-2.17380922 6.50657455,-2.40661345 6.84533096,-2.40661345 Z" id="路径" transform="translate(6.845331, 1.593387) rotate(-90.000000) translate(-6.845331, -1.593387) "></path>
            </g>
        </g>
    </g>
</svg>