<?xml version="1.0" encoding="UTF-8"?>
<svg width="12px" height="12px" viewBox="0 0 12 12" version="1.1" xmlns="http://www.w3.org/2000/svg" xmlns:xlink="http://www.w3.org/1999/xlink">
    <title>huanxingtu</title>
    <g id="布局/组件使用规范" stroke="none" stroke-width="1" fill="none" fill-rule="evenodd">
        <g id="仪表盘使用规范" transform="translate(-1425.000000, -689.000000)" fill="#757FFF" fill-rule="nonzero">
            <g id="编组-8备份-6" transform="translate(1418.000000, 680.000000)">
                <g id="huanxingtu" transform="translate(7.000000, 9.000000)">
                    <path d="M5.43699999,0.00206933163 C2.3685,0.280069339 0,2.87306934 0,5.98906934 C0,9.30806933 2.677,12.0000693 5.9805,12.0000693 C7.668,12.0000693 9.2435,11.2930693 10.368,10.0735693 C10.4650539,9.96827319 10.5123019,9.82641705 10.4977688,9.68395466 C10.4832358,9.54149227 10.4083167,9.41209881 10.292,9.32856934 L7.815,7.55006933 C7.63338676,7.41947041 7.38712608,7.4253921 7.21199999,7.56456933 C6.8621157,7.84330552 6.42783924,7.99476451 5.9805,7.99406933 C4.8815,7.99406933 3.9895,7.09706933 3.9895,5.98906934 C3.98716617,5.03929339 4.65234113,4.21852805 5.582,4.02406934 C5.81483313,3.97654248 5.9820485,3.77170364 5.982,3.53406933 L5.982,0.500069334 C5.98200818,0.359630844 5.9229539,0.225663416 5.81927919,0.130929456 C5.71560447,0.0361954966 5.57686855,-0.0105701348 5.43699999,0.00206933163 L5.43699999,0.00206933163 Z M4.982,1.07806933 L4.982,3.15556933 L4.9235,3.17656934 C3.75756475,3.62177997 2.98792222,4.74102486 2.9895,5.98906934 C2.9895,7.64806934 4.328,8.99406934 5.9805,8.99406933 L6.126,8.99056933 C6.60340924,8.96780838 7.06825716,8.83006931 7.481,8.58906934 L7.51649999,8.56656933 L9.2225,9.79156933 L9.175,9.83406933 C8.28147456,10.5884686 7.14940307,11.0016127 5.98,11.0000736 C3.2305,11.0000736 1,8.75706934 1,5.98906934 C1,3.62206934 2.6375,1.61906934 4.85850001,1.10506934 L4.982,1.07806933 Z" id="形状"></path>
                    <path d="M7,0.500069334 L7,3.85506934 C7.00014571,4.01051811 7.07258337,4.15705652 7.19600001,4.25156934 C7.75354811,4.67970694 8.05406911,5.36276066 7.993,6.06306934 C7.9787704,6.23682353 8.05607066,6.40544419 8.197,6.50806933 L10.803,8.40456933 C10.9278065,8.49535417 11.0875432,8.52341576 11.2358191,8.4806044 C11.384095,8.43779304 11.5042912,8.32890705 11.5615,8.18556934 C11.85,7.46306934 12,6.68756933 12,5.89206933 C12,3.14606934 10.201,0.758069335 7.6385,0.0195693363 C7.48753262,-0.0239516068 7.32488839,0.00601932832 7.19934966,0.100492872 C7.07381094,0.194966416 7,0.342954021 7,0.500069334 Z M8,3.62156933 L8,1.21306934 L8.02100001,1.22256933 C9.799,2.02356933 11,3.83656934 11,5.89206933 L10.996,6.09206933 C10.9836735,6.42111539 10.940145,6.74824887 10.866,7.06906933 L10.8355,7.19106934 L8.9985,5.85456933 L8.99949999,5.89206933 C8.99949999,5.01206933 8.6295,4.19306933 8.00050001,3.62156933 L8,3.62156933 Z" id="形状"></path>
                </g>
            </g>
        </g>
    </g>
</svg>