<?xml version="1.0" encoding="UTF-8"?>
<svg width="14px" height="12px" viewBox="0 0 14 12" version="1.1" xmlns="http://www.w3.org/2000/svg" xmlns:xlink="http://www.w3.org/1999/xlink">
    <title>编组 12</title>
    <g id="布局/组件使用规范" stroke="none" stroke-width="1" fill="none" fill-rule="evenodd">
        <g id="仪表盘使用规范" transform="translate(-1424.000000, -327.000000)" fill="#757FFF" fill-rule="nonzero">
            <g id="编组-8备份-6" transform="translate(1418.000000, 318.000000)">
                <g id="编组-12" transform="translate(7.000000, 10.000000)">
                    <path d="M11.5557627,8.88893737 L0.888479016,8.88893737 L0.888479016,0.444237321 C0.888479016,0.198891824 0.689587193,0 0.444241695,0 C0.198896197,0 2.17375964e-06,0.198891824 2.17375964e-06,0.444237321 L2.17375964e-06,9.3331747 C-0.000366889911,9.45123562 0.0462726012,9.56458833 0.129623534,9.64820138 C0.212974466,9.73181442 0.32618019,9.77880899 0.444241695,9.77880899 L11.5557627,9.77880899 C11.7144734,9.77880899 11.8611281,9.69413785 11.9404835,9.55669034 C12.0198388,9.41924283 12.0198388,9.24990051 11.9404835,9.112453 C11.8611281,8.97500549 11.7144734,8.89033434 11.5557627,8.89033435 L11.5557627,8.88893737 Z" id="形状" stroke="#757FFF" stroke-width="0.5"></path>
                    <path d="M3.61511032,2.0861678 C3.95564965,2.0861678 4.23022064,2.32048375 4.23022064,2.60770975 L4.23022064,7.47694633 C4.23022064,7.76568405 3.95386673,7.99848828 3.61511032,7.99848828 C3.27635391,7.99848828 3,7.76568405 3,7.47694633 L3,2.60770975 C3,2.32048375 3.27635391,2.0861678 3.61511032,2.0861678 Z" id="路径"></path>
                    <path d="M10.0755516,3.47845805 C10.4160909,3.47845805 10.6906619,3.712774 10.6906619,4 L10.6906619,7.47845805 C10.6906619,7.76719577 10.414308,8 10.0755516,8 C9.73679519,8 9.46044127,7.76719577 9.46044127,7.47845805 L9.46044127,4 C9.46044127,3.71126228 9.73501226,3.47845805 10.0755516,3.47845805 Z" id="路径"></path>
                    <path d="M6.84533096,0 C7.18587029,0 7.46044127,0.234315949 7.46044127,0.52154195 L7.46044127,7.47845805 C7.46044127,7.76719577 7.18408736,8 6.84533096,8 C6.50657455,8 6.23022064,7.76719577 6.23022064,7.47845805 L6.23022064,0.52154195 C6.23022064,0.232804233 6.50657455,0 6.84533096,0 Z" id="路径"></path>
                </g>
            </g>
        </g>
    </g>
</svg>