<?xml version="1.0" encoding="UTF-8"?>
<svg width="14px" height="12px" viewBox="0 0 14 12" version="1.1" xmlns="http://www.w3.org/2000/svg" xmlns:xlink="http://www.w3.org/1999/xlink">
    <title>编组</title>
    <g id="布局/组件使用规范" stroke="none" stroke-width="1" fill="none" fill-rule="evenodd">
        <g id="仪表盘使用规范" transform="translate(-1424.000000, -234.000000)" fill="#757FFF" fill-rule="nonzero">
            <g id="编组-8备份-6" transform="translate(1418.000000, 225.000000)">
                <g id="编组-11" transform="translate(7.000000, 10.000000)">
                    <polygon id="路径-6" opacity="0.231198265" points="2.7025528 4.8894045 2.7025528 8.56894684 11.310463 8.56894684 11.310463 1.25095749 8.08650208 5.22688963 5.32945527 2.94924186"></polygon>
                    <path d="M11.5557627,8.88893737 L0.888479016,8.88893737 L0.888479016,0.444237321 C0.888479016,0.198891824 0.689587193,0 0.444241695,0 C0.198896197,0 2.17375964e-06,0.198891824 2.17375964e-06,0.444237321 L2.17375964e-06,9.3331747 C-0.000366889911,9.45123562 0.0462726012,9.56458833 0.129623534,9.64820138 C0.212974466,9.73181442 0.32618019,9.77880899 0.444241695,9.77880899 L11.5557627,9.77880899 C11.7144734,9.77880899 11.8611281,9.69413785 11.9404835,9.55669034 C12.0198388,9.41924283 12.0198388,9.24990051 11.9404835,9.112453 C11.8611281,8.97500549 11.7144734,8.89033434 11.5557627,8.89033435 L11.5557627,8.88893737 Z M2.54109774,5.22211646 C2.64831719,5.22186805 2.75189897,5.18321074 2.83306503,5.1131526 L5.32945527,2.94924186 L7.75320293,5.10896168 C7.93502608,5.27409708 8.21618686,5.26097624 8.38184065,5.07962525 L11.8519209,1.34132627 C12.0193422,1.16156054 12.009335,0.880109844 11.8295693,0.712688544 C11.6498036,0.545267245 11.3683529,0.555274381 11.2009316,0.735040109 L8.02002471,4.15622628 L5.6298044,2.0258429 C5.46182639,1.87749622 5.2096569,1.87749622 5.04167889,2.0258429 L2.25052741,4.44819358 C2.10966721,4.56945444 2.05918761,4.76558844 2.12400499,4.93978516 C2.18882238,5.11398189 2.35523301,5.22941254 2.54109774,5.22910196 L2.54109774,5.22211646 Z" id="形状" stroke="#757FFF" stroke-width="0.5"></path>
                </g>
            </g>
        </g>
    </g>
</svg>