<?xml version="1.0" encoding="UTF-8"?>
<svg width="14px" height="12px" viewBox="0 0 14 12" version="1.1" xmlns="http://www.w3.org/2000/svg" xmlns:xlink="http://www.w3.org/1999/xlink">
    <title>形状</title>
    <g id="布局/组件使用规范" stroke="none" stroke-width="1" fill="none" fill-rule="evenodd">
        <g id="仪表盘使用规范" transform="translate(-1424.000000, -174.000000)" fill="#757FFF" fill-rule="nonzero" stroke="#757FFF" stroke-width="0.5">
            <g id="编组-8备份-4" transform="translate(1418.000000, 165.000000)">
                <path d="M18.5557627,18.8889374 L7.88847902,18.8889374 L7.88847902,10.4442373 C7.88847902,10.1988918 7.68958719,10 7.44424169,10 C7.1988962,10 7.00000217,10.1988918 7.00000217,10.4442373 L7.00000217,19.3331747 C6.99963311,19.4512356 7.0462726,19.5645883 7.12962353,19.6482014 C7.21297447,19.7318144 7.32618019,19.778809 7.44424169,19.778809 L18.5557627,19.778809 C18.7144734,19.778809 18.8611281,19.6941378 18.9404835,19.5566903 C19.0198388,19.4192428 19.0198388,19.2499005 18.9404835,19.112453 C18.8611281,18.9750055 18.7144734,18.8903343 18.5557627,18.8903343 L18.5557627,18.8889374 Z M9.54109774,16.2221165 C9.64831719,16.2218681 9.75189897,16.1832107 9.83306503,16.1131526 L12.3294553,13.9492419 L14.7532029,16.1089617 C14.9350261,16.2740971 15.2161869,16.2609762 15.3818406,16.0796253 L18.8519209,12.3413263 C19.0193422,12.1615605 19.009335,11.8801098 18.8295693,11.7126885 C18.6498036,11.5452672 18.3683529,11.5552744 18.2009316,11.7350401 L15.0200247,15.1562263 L12.6298044,13.0258429 C12.4618264,12.8774962 12.2096569,12.8774962 12.0416789,13.0258429 L9.25052741,15.4481936 C9.10966721,15.5694544 9.05918761,15.7655884 9.12400499,15.9397852 C9.18882238,16.1139819 9.35523301,16.2294125 9.54109774,16.229102 L9.54109774,16.2221165 Z" id="形状"></path>
            </g>
        </g>
    </g>
</svg>