<?xml version="1.0" encoding="UTF-8"?>
<svg width="14px" height="14px" viewBox="0 0 14 14" version="1.1" xmlns="http://www.w3.org/2000/svg" xmlns:xlink="http://www.w3.org/1999/xlink">
    <title>tubiao-bingtu</title>
    <g id="布局/组件使用规范" stroke="none" stroke-width="1" fill="none" fill-rule="evenodd">
        <g id="仪表盘使用规范" transform="translate(-1424.000000, -658.000000)" fill="#757FFF" fill-rule="nonzero" stroke="#757FFF" stroke-width="0.3">
            <g id="tubiao-bingtu" transform="translate(1425.000000, 659.000000)">
                <path d="M11.5384615,5.53846154 C11.5190769,5.53846154 11.5029231,5.54723077 11.4844615,5.54953846 C11.466,5.54723077 11.4493846,5.53846154 11.4304615,5.53846154 L6.46153846,5.53846154 L6.46153846,0.519230769 C6.46153846,0.509076923 6.45646154,0.500307692 6.45553846,0.490153846 C6.45646154,0.480461538 6.46153846,0.471692308 6.46153846,0.461538462 C6.46153846,0.206637808 6.25490065,0 6,0 C2.69169231,0 0,2.69169231 0,6 C0,9.30830769 2.69169231,12 6,12 C9.30830769,12 12,9.30830769 12,6 C12,5.74509935 11.7933622,5.53846154 11.5384615,5.53846154 Z M6,11.0769231 C3.20076923,11.0769231 0.923076923,8.79923077 0.923076923,6 C0.923076923,3.35630769 2.95476923,1.18061538 5.53846154,0.946615385 L5.53846154,6 C5.53846154,6.25490065 5.74509935,6.46153846 6,6.46153846 L11.0533846,6.46153846 C10.8193846,9.04523077 8.64369231,11.0769231 6,11.0769231 Z M7.63938462,1.19307692 C9.08574333,1.69352189 10.2327781,2.81414911 10.7667692,4.24846154 C10.8208092,4.40694476 10.9564458,4.52372893 11.121198,4.55362759 C11.2859503,4.58352625 11.4539734,4.52184916 11.5602553,4.39246058 C11.6665372,4.26307201 11.6944054,4.08626933 11.6330769,3.93046154 C11.0121948,2.22898314 9.65298886,0.901011636 7.93753846,0.319846154 C7.69640244,0.237513243 7.43417907,0.366248597 7.35184615,0.607384615 C7.26951324,0.848520634 7.3982486,1.11074401 7.63938462,1.19307692 L7.63938462,1.19307692 Z" id="形状"></path>
            </g>
        </g>
    </g>
</svg>