<?xml version="1.0" encoding="UTF-8"?>
<svg width="110px" height="66px" viewBox="0 0 110 66" version="1.1" xmlns="http://www.w3.org/2000/svg" xmlns:xlink="http://www.w3.org/1999/xlink">
    <title>编组 5</title>
    <defs>
        <linearGradient x1="50%" y1="10.9349569%" x2="50%" y2="100%" id="linearGradient-1">
            <stop stop-color="#757FFF" stop-opacity="0.364691461" offset="0%"></stop>
            <stop stop-color="#FFFFFF" stop-opacity="0" offset="100%"></stop>
        </linearGradient>
    </defs>
    <g id="仪表盘" stroke="none" stroke-width="1" fill="none" fill-rule="evenodd">
        <g id="仪表盘-总览" transform="translate(-582.000000, -752.000000)">
            <g id="本月与上月消费" transform="translate(434.000000, 641.000000)">
                <g id="编组-5" transform="translate(148.000000, 111.000000)">
                    <ellipse id="椭圆形" fill="url(#linearGradient-1)" cx="54.6" cy="45" rx="54.6" ry="21"></ellipse>
                    <g id="编组-30" transform="translate(40.600000, 0.000000)">
                        <rect id="矩形" fill="#ADBAFF" x="0" y="0" width="26.6666667" height="34.6666667" rx="3"></rect>
                        <rect id="矩形" fill="#F9FAFF" x="3.33333333" y="3.33333333" width="26.6666667" height="34.6666667" rx="3"></rect>
                        <rect id="矩形" fill="#ADBAFF" x="7.33333333" y="11.3333333" width="18" height="2.35294118" rx="1.17647059"></rect>
                        <rect id="矩形备份-12" fill="#ADBAFF" x="7.33333333" y="17.2156863" width="18" height="2.35294118" rx="1.17647059"></rect>
                        <rect id="矩形备份-13" fill="#ADBAFF" x="7.33333333" y="23.0980392" width="18" height="2.35294118" rx="1.17647059"></rect>
                        <rect id="矩形备份-14" fill="#ADBAFF" x="7.33333333" y="28.9803922" width="12" height="2.35294118" rx="1.17647059"></rect>
                        <ellipse id="椭圆形" fill="#CDD2ED" cx="14.6666667" cy="44.6666667" rx="10" ry="1.66666667"></ellipse>
                    </g>
                    <g id="编组-31" transform="translate(7.600000, 19.000000)">
                        <rect id="矩形备份-15" fill="#ADBAFF" x="3" y="10" width="2" height="7" rx="1"></rect>
                        <path d="M5.8973666,5.69209979 L7.12251482,9.36754447 C7.47181037,10.4154311 6.90549039,11.5480711 5.85760376,11.8973666 C5.65367082,11.9653442 5.44011242,12 5.22514823,12 L2.77485177,12 C1.67028227,12 0.774851773,11.1045695 0.774851773,10 C0.774851773,9.78503581 0.809507531,9.57147741 0.877485177,9.36754447 L2.1026334,5.69209979 C2.45192895,4.64421315 3.5845689,4.07789318 4.63245553,4.42718872 C5.22966553,4.62625872 5.6982966,5.0948898 5.8973666,5.69209979 Z" id="三角形" fill="#929FE7"></path>
                    </g>
                    <g id="编组-32" transform="translate(87.600000, 20.000000)">
                        <rect id="矩形备份-15" fill="#ADBAFF" x="2.29411765" y="7.64705882" width="1.52941176" height="5.35294118" rx="0.764705882"></rect>
                        <path d="M4.58823529,4.58823529 L5.24016188,6.54401506 C5.58945743,7.59190169 5.02313745,8.72454164 3.97525082,9.07383718 C3.77131788,9.14181483 3.55775948,9.17647059 3.34279529,9.17647059 L2.77485177,9.17647059 C1.67028227,9.17647059 0.774851773,8.28104009 0.774851773,7.17647059 C0.774851773,6.9615064 0.809507531,6.74794799 0.877485177,6.54401506 L1.52941176,4.58823529 C1.8109687,3.7435645 2.72395666,3.28707052 3.56862745,3.56862745 C4.05002097,3.72909196 4.42777079,4.10684177 4.58823529,4.58823529 Z" id="三角形" fill="#929FE7"></path>
                    </g>
                    <g id="编组-33" transform="translate(92.600000, 24.000000)">
                        <rect id="矩形备份-15" fill="#ADBAFF" x="3" y="9" width="1.52941176" height="5.35294118" rx="0.764705882"></rect>
                        <path d="M5.25,6 L6.25333333,9.44 C6.56261279,10.5003867 5.95372005,11.6107205 4.89333333,11.92 C4.71139973,11.973064 4.5228475,12 4.33333333,12 L2.66666667,12 C1.56209717,12 0.666666667,11.1045695 0.666666667,10 C0.666666667,9.81048584 0.6936027,9.6219336 0.746666667,9.44 L1.75,6 C2.03189534,5.03350169 3.04391835,4.47852133 4.01041667,4.76041667 C4.6082083,4.93477256 5.07564411,5.40220836 5.25,6 Z" id="三角形" fill="#929FE7"></path>
                    </g>
                </g>
            </g>
        </g>
    </g>
</svg>