<svg t="1678933693669" class="icon" viewBox="0 0 1024 1024" version="1.1" xmlns="http://www.w3.org/2000/svg" p-id="4126" width="128" height="128"><path d="M160 878.4a22.4 22.4 0 0 1-3.04-44.608L160 833.6h73.6V396.928a86.4 86.4 0 0 1 26.112-61.888l4.704-4.256 128-107.552A86.4 86.4 0 0 1 534.4 289.376l-0.032 544.224H585.6V480.192a54.4 54.4 0 0 1 49.696-54.176l4.704-0.224a54.4 54.4 0 0 1 36.544 14.112l106.496 96.576a22.4 22.4 0 0 1 7.36 16.576v280.544H864a22.4 22.4 0 0 1 3.04 44.608L864 878.4H160z m319.84-615.776a41.6 41.6 0 0 0-58.592-5.12l-128 107.584a41.6 41.6 0 0 0-14.848 31.84V833.6h211.2V289.376a41.6 41.6 0 0 0-6.848-22.848z m160.16 208a9.6 9.6 0 0 0-9.6 9.6v353.344h115.2v-270.592l-99.136-89.888a9.6 9.6 0 0 0-4.128-2.176z m-224 186.976a22.4 22.4 0 0 1 3.04 44.608L416 702.4h-64a22.4 22.4 0 0 1-3.04-44.608L352 657.6h64z m0-160a22.4 22.4 0 0 1 3.04 44.608L416 542.4h-64a22.4 22.4 0 0 1-3.04-44.608L352 497.6h64z" p-id="4127" fill="#757FFF"></path></svg>