<svg t="1669021142098" class="icon" viewBox="0 0 1024 1024" version="1.1" xmlns="http://www.w3.org/2000/svg" p-id="58996" width="200" height="200"><path d="M942.792571 235.113605c-73.898726-114.998017-188.296753-194.296649-321.894449-223.296149-133.597696-28.9995-270.495335-4.199928-385.493352 69.698798-21.299633 13.699764-27.499526 42.099274-13.799762 63.398907 13.699764 21.299633 42.099274 27.499526 63.398907 13.799762 94.298374-60.698953 206.696435-80.998603 316.294545-57.199014 109.59811 23.79959 203.396492 88.898467 264.095445 183.196841 125.297839 194.796641 68.698815 455.19215-125.997827 580.489989-94.298374 60.698953-206.696435 80.998603-316.294545 57.199013-109.59811-23.79959-203.49649-88.898467-264.095445-183.19684-93.198393-144.997499-88.998465-329.594316 10.799814-470.191891 14.699746-20.699643 9.799831-49.29915-10.899813-63.998897-20.699643-14.699746-49.29915-9.799831-63.998896 10.899812-121.597903 171.397044-126.697815 396.293165-12.999776 572.990118 73.998724 114.998017 188.296753 194.296649 321.894449 223.29615 36.499371 7.899864 73.198738 11.799796 109.59811 11.799796 97.098325 0 192.196685-27.799521 275.795243-81.498594 237.295908-152.697367 306.194719-469.991894 153.597352-707.387801z" p-id="58997"></path><path d="M511.900002 321.81211c-25.399562 0-45.899208 20.499646-45.899209 45.899208v98.398303h-98.498301c-25.399562 0-45.899208 20.499646-45.899208 45.899209s20.499646 45.899208 45.899208 45.899208H466.000793v98.498302c0 25.399562 20.499646 45.899208 45.899209 45.899208s45.899208-20.499646 45.899208-45.899208V558.008037h98.498301c25.399562 0 45.899208-20.499646 45.899209-45.899209s-20.499646-45.899208-45.899209-45.899208h-98.498301v-98.498302c0-25.299564-20.599645-45.899208-45.899208-45.899208z" p-id="58998"></path></svg>