<?xml version="1.0" encoding="UTF-8"?>
<svg width="16px" height="13px" viewBox="0 0 16 13" version="1.1" xmlns="http://www.w3.org/2000/svg" xmlns:xlink="http://www.w3.org/1999/xlink">
    <title>yibiaopan</title>
    <g id="视觉规范" stroke="none" stroke-width="1" fill="none" fill-rule="evenodd">
        <g id="亮色主题视觉规范" transform="translate(-67.000000, -3858.000000)" fill="#ACB3CB" fill-rule="nonzero">
            <g id="yibiaopan" transform="translate(67.000000, 3858.000000)">
                <path d="M7.99017561,0 C5.02966169,0.00364573466 2.31319529,1.64195523 0.928708679,4.25879546 C-0.455777931,6.8756357 -0.281908612,10.0431295 1.38068278,12.4927103 C1.48354725,12.6411664 1.65262686,12.7297969 1.83323778,12.7299367 C1.9464728,12.7328596 2.05769306,12.6996213 2.15075622,12.6350461 C2.27139559,12.5542351 2.35470534,12.4285326 2.38212679,12.2859411 C2.40954823,12.1433496 2.37880357,11.9957136 2.2967417,11.8759216 C1.57767061,10.8143826 1.16938781,9.57310177 1.1179089,8.29197794 L2.00842036,8.29197794 C2.31600038,8.26775608 2.55324516,8.01109382 2.55324516,7.70256155 C2.55324516,7.39402927 2.31600038,7.13736701 2.00842036,7.11314515 L1.1580549,7.11314515 C1.31148444,5.91172588 1.77987016,4.77223914 2.51571992,3.81022355 L3.02666912,4.32117274 C3.2606679,4.52437503 3.61186395,4.51240589 3.83148514,4.29374375 C4.05110632,4.07508161 4.06461231,3.72394131 3.86243603,3.48905548 L3.31864009,2.93796028 C4.45053207,1.88332343 5.90455814,1.24051791 7.44637968,1.1131417 C7.42457633,1.17277282 7.41345723,1.23578107 7.41353295,1.2992732 L7.41353295,2.22993067 C7.43775481,2.53751069 7.69441707,2.77475547 8.00294934,2.77475547 C8.31148162,2.77475547 8.56814388,2.53751069 8.59236574,2.22993067 L8.59236574,1.30657248 C8.59065487,1.24324841 8.57958617,1.18052571 8.55951901,1.12044098 C10.0895606,1.24493806 11.5337968,1.87839755 12.6617111,2.91971208 L12.0923678,3.48905548 C11.8901915,3.72394131 11.9036975,4.07508157 12.1233187,4.29374369 C12.3429399,4.51240581 12.6941359,4.52437498 12.9281346,4.32117274 L13.4646313,3.78832572 C14.2141147,4.7533214 14.691705,5.90130247 14.8478438,7.11314515 L13.9719309,7.11314515 C13.6643509,7.13736701 13.4271061,7.39402927 13.4271061,7.70256155 C13.4271061,8.01109382 13.6643509,8.26775608 13.9719309,8.29197794 L14.8952891,8.29197794 C14.846376,9.54937527 14.4524363,10.7690735 13.7566023,11.8175274 C13.6483794,11.9805136 13.6353295,12.1888553 13.7223683,12.3640721 C13.8094071,12.539289 13.9833113,12.6547614 14.1785729,12.666992 C14.3738346,12.6792227 14.5607887,12.5863534 14.6690116,12.4233672 C16.2972224,9.96517024 16.4420124,6.81083874 15.0458462,4.21381691 C13.6496799,1.61679509 10.9387002,-0.00226655607 7.99017561,0 Z" id="路径"></path>
                <path d="M9.85038877,4.14680307 L8.11316151,5.89497926 C8.06822845,5.89120464 8.02305799,5.89120464 7.97812494,5.89497926 C7.58218778,5.89498201 7.2253073,6.13368592 7.07413191,6.49962613 C6.92295653,6.86556634 7.00730995,7.28655058 7.28780262,7.56599663 C7.56829529,7.84544269 7.98959192,7.92822175 8.35496444,7.77567943 C8.72033695,7.62313711 8.95770506,7.26536678 8.95622768,6.86943237 C8.95974988,6.8281448 8.95974988,6.78663228 8.95622768,6.7453447 L10.6971046,5.00446779 C10.845748,4.85582436 10.9037999,4.63917184 10.8493926,4.43612113 C10.7949853,4.23307043 10.6363847,4.07446977 10.433334,4.0200625 C10.2302833,3.96565523 10.0136308,4.0237071 9.86498733,4.17235053 L9.85038877,4.14680307 Z" id="路径"></path>
            </g>
        </g>
    </g>
</svg>