<?xml version="1.0" standalone="no"?><!DOCTYPE svg PUBLIC "-//W3C//DTD SVG 1.1//EN" "http://www.w3.org/Graphics/SVG/1.1/DTD/svg11.dtd"><svg t="1648018985334" class="icon" viewBox="0 0 1024 1024" version="1.1" xmlns="http://www.w3.org/2000/svg" p-id="12062" xmlns:xlink="http://www.w3.org/1999/xlink" width="200" height="200"><defs><style type="text/css"></style></defs><path d="M395.438773 224.134757l226.047316 0c19.811208 0 30.855752-17.633612 30.855752-39.417755l0-16.879436c0-21.766746-11.044544-39.426965-30.855752-39.426965L395.438773 128.410602c-19.811208 0-35.871999 17.660218-35.871999 39.426965l0 16.879436C359.56575 206.500121 375.626541 224.134757 395.438773 224.134757L395.438773 224.134757zM715.622072 239.893672 315.780525 239.893672c-108.967784 0-124.953873 8.407484-124.953873 114.381074l57.462736-0.026606 0 0.026606 520.515954 0 0-0.300852 58.738799-0.029676C827.539025 247.975744 824.593949 239.893672 715.622072 239.893672L715.622072 239.893672zM248.288364 748.975203c0 154.142659 54.809303 146.553821 161.306826 146.553821l263.794012 0c68.061119-6.606465 95.415117-8.004301 95.415117-162.14696L768.804319 410.448116 248.288364 410.448116 248.288364 748.975203 248.288364 748.975203zM595.106278 481.142202c0-20.74651 12.93152-37.565571 28.874631-37.565571 15.957437 0 28.888957 16.820084 28.888957 37.565571l0 318.27381c0 20.7373-12.932544 37.552268-28.888957 37.552268-15.943111 0-28.874631-16.815991-28.874631-37.552268L595.106278 481.142202 595.106278 481.142202zM479.595474 481.142202c0-20.74651 12.929474-37.565571 28.885887-37.565571 15.945157 0 28.871561 16.820084 28.871561 37.565571l0 318.27381c0 20.7373-12.926404 37.552268-28.871561 37.552268-15.95539 0-28.885887-16.815991-28.885887-37.552268L479.595474 481.142202 479.595474 481.142202zM364.089787 481.142202c0-20.74651 12.926404-37.565571 28.870538-37.565571 15.95232 0 28.875654 16.820084 28.875654 37.565571l0 318.27381c0 20.7373-12.922311 37.552268-28.875654 37.552268-15.944134 0-28.870538-16.815991-28.870538-37.552268L364.089787 481.142202 364.089787 481.142202zM364.089787 481.142202" p-id="12063"></path></svg>