<svg t="1666870282510" class="icon" viewBox="0 0 1024 1024" version="1.1" xmlns="http://www.w3.org/2000/svg" p-id="7643" width="200" height="200"><path d="M886.4 736h-182.4c-19.2 0-32 12.8-32 32s12.8 32 32 32h224c35.2 0 64-28.8 64-64v-224c0-19.2-12.8-32-32-32s-32 12.8-32 32v172.8l-297.6-297.6c-6.4-6.4-16-9.6-22.4-9.6-9.6 0-16 3.2-22.4 9.6l-204.8 204.8-294.4-294.4c-12.8-12.8-32-12.8-44.8 0-12.8 12.8-12.8 32 0 44.8l316.8 316.8c6.4 6.4 16 9.6 22.4 9.6 9.6 0 16-3.2 22.4-9.6l204.8-204.8 278.4 281.6z" p-id="7644"></path></svg>