<svg t="1677228498376" class="icon" viewBox="0 0 1024 1024" version="1.1" xmlns="http://www.w3.org/2000/svg" p-id="2982" width="128" height="128"><path d="M267.429819 825.322032h-64.152089c-27.208689 0-49.262984-21.468964-49.262984-47.949059V201.951525c0-26.481118 22.054295-47.949059 49.262984-47.949059h394.08545c27.166733 0 49.186236 21.402449 49.254797 47.826262a399.668609 399.668609 0 0 1 88.732927 20.352537v-62.58643c0-52.081169-42.857087-94.304829-95.725178-94.30483h-478.610542c-52.868091 0-95.725178 42.222637-95.725179 94.30483v660.134828c0 52.081169 42.857087 94.303806 95.725179 94.303806h187.611935a404.257114 404.257114 0 0 1-81.1973-88.711437zM958.708971 679.517271V567.831586l-88.793302-29.597085a258.751159 258.751159 0 0 0-11.722996-28.237111l41.868573-83.736123-78.964446-78.973656-83.758635 41.875736a258.750135 258.750135 0 0 0-28.222785-11.712762l-29.598109-88.802512H567.835679l-29.600155 88.797395a259.011078 259.011078 0 0 0-28.230971 11.714809l-83.752496-41.872666-78.964446 78.973656 41.86448 83.736123a258.738879 258.738879 0 0 0-11.720949 28.237111l-88.787163 29.597085v111.685685l88.791256 29.601179a258.68976 258.68976 0 0 0 11.720949 28.234041l-41.86755 83.752496 78.964446 78.955236 83.75352-41.869596a258.859629 258.859629 0 0 0 28.228924 11.714809l29.601179 88.802512h111.681592l29.599131-88.807628a259.123642 259.123642 0 0 0 28.220739-11.712763l83.759659 41.872666 78.964446-78.955236-41.87062-83.752496a258.898515 258.898515 0 0 0 11.721973-28.234041l88.795348-29.601179z m-335.034542 39.882336c-52.868091 0-95.725178-42.857087-95.725179-95.725178s42.857087-95.725178 95.725179-95.725179 95.725178 42.857087 95.725178 95.725179-42.857087 95.725178-95.725178 95.725178z" fill="#757FFF" p-id="2983"></path></svg>