<svg t="1677566843584" class="icon" viewBox="0 0 1024 1024" version="1.1" xmlns="http://www.w3.org/2000/svg" p-id="9197" width="128" height="128"><path d="M170.666667 597.333333a85.333333 85.333333 0 0 1 74.325333 127.317334A340.736 340.736 0 0 0 512 853.333333a341.162667 341.162667 0 0 0 292.096-164.650666c0.554667-0.896 2.56-4.778667 6.016-11.648a45.226667 45.226667 0 0 1 57.002667-21.76 40.832 40.832 0 0 1 22.570666 54.016 135.424 135.424 0 0 1-3.84 8.533333A426.538667 426.538667 0 0 1 512 938.666667a425.898667 425.898667 0 0 1-335.530667-163.072L170.666667 768a85.333333 85.333333 0 1 1 0-170.666667z m230.101333-278.272a42.666667 42.666667 0 0 1 42.538667 0.085334l270.08 155.733333a42.666667 42.666667 0 0 1 0 74.24l-270.08 155.733333a42.666667 42.666667 0 0 1-21.333334 5.973334 42.666667 42.666667 0 0 1-42.666666-42.666667V355.84a42.666667 42.666667 0 0 1 21.461333-36.778667z m63.872 111.018667v163.84L606.72 512l-142.08-81.92zM512 85.333333a426.026667 426.026667 0 0 1 341.333333 170.666667 85.333333 85.333333 0 1 1-74.325333 43.392A340.522667 340.522667 0 0 0 512 170.666667a341.077333 341.077333 0 0 0-286.976 156.416c-4.138667 6.4-9.130667 15.701333-14.933333 27.818666a42.325333 42.325333 0 0 1-55.381334 20.394667 43.946667 43.946667 0 0 1-21.333333-60.074667c1.109333-2.133333 2.218667-4.309333 3.370667-6.4A426.453333 426.453333 0 0 1 512 85.333333z" fill="#757FFF" p-id="9198"></path></svg>