<svg t="1677564353510" class="icon" viewBox="0 0 1024 1024" version="1.1" xmlns="http://www.w3.org/2000/svg" p-id="2743" width="128" height="128"><path d="M546.13333333 380.27946667V68.26666667a34.13333333 34.13333333 0 0 0-68.26666666 0v312.0128c-58.7776 15.22346667-102.4 68.16426667-102.4 131.72053333s43.6224 116.49706667 102.4 131.72053333v311.05706667C477.86666667 974.16533333 493.1584 989.86666667 512 989.86666667s34.13333333-15.70133333 34.13333333-35.1232V643.6864c58.7776-15.22346667 102.4-68.16426667 102.4-131.72053333s-43.6224-116.46293333-102.4-131.6864zM203.8784 721.33973333c0.2048-1.536 0.9216-2.93546667 0.9216-4.53973333V68.26666667a34.13333333 34.13333333 0 0 0-68.26666667 0v648.53333333c0 1.60426667 0.7168 3.00373333 0.9216 4.53973333A136.26026667 136.26026667 0 0 0 34.13333333 853.33333333a136.53333333 136.53333333 0 0 0 273.06666667 0 136.26026667 136.26026667 0 0 0-103.3216-131.9936zM170.66666667 921.6a68.26666667 68.26666667 0 1 1 0.03413333-136.56746667A68.26666667 68.26666667 0 0 1 170.66666667 921.6z m819.2-750.93333333a136.53333333 136.53333333 0 0 0-273.06666667 0 136.26026667 136.26026667 0 0 0 103.3216 131.9936c-0.2048 1.536-0.9216 2.93546667-0.9216 4.53973333v648.53333333a34.13333333 34.13333333 0 0 0 68.26666667 0V307.2c0-1.60426667-0.7168-3.00373333-0.9216-4.53973333A136.26026667 136.26026667 0 0 0 989.86666667 170.66666667z m-136.53333334 68.26666666a68.26666667 68.26666667 0 1 1 0.03413334-136.56746666A68.26666667 68.26666667 0 0 1 853.33333333 238.93333333z" p-id="2744" fill="#757FFF"></path></svg>