<?xml version="1.0" encoding="UTF-8"?>
<svg width="16px" height="16px" viewBox="0 0 16 16" version="1.1" xmlns="http://www.w3.org/2000/svg" xmlns:xlink="http://www.w3.org/1999/xlink">
    <title>zhili</title>
    <g id="视觉规范" stroke="none" stroke-width="1" fill="none" fill-rule="evenodd">
        <g id="亮色主题视觉规范" transform="translate(-69.000000, -3936.000000)" fill="#ACB3CB" fill-rule="nonzero">
            <g id="zhili" transform="translate(69.000000, 3936.000000)">
                <path d="M6.73611775,15.1997413 L2.20019496,15.1997413 C1.61040845,15.1976663 1.0459667,14.9597142 0.632696003,14.5389295 C0.219425311,14.1181448 -0.00831893422,13.5495075 0.000232400784,12.9597794 L0.000232400784,2.20796241 C0.000224417253,0.991655761 0.983896294,0.00440690125 2.20019496,0 L9.60006898,0 C10.8163676,0.00440690125 11.8000315,0.991655761 11.8000315,2.20796241 L11.8000315,6.51988902 C11.8000315,6.82916322 11.5493153,7.0798795 11.2400411,7.0798795 C10.9307669,7.0798795 10.6800506,6.82916322 10.6800506,6.51988902 L10.6800506,2.20796241 C10.6821826,1.92014991 10.569341,1.64339272 10.3665737,1.43912336 C10.1638063,1.234854 9.88788938,1.11997305 9.60006898,1.11998095 L2.20019496,1.11998095 C1.91237456,1.11997305 1.63645767,1.234854 1.43369029,1.43912336 C1.23092291,1.64339272 1.11808135,1.92014991 1.12021335,2.20796241 L1.12021335,12.9597794 C1.11808383,13.2483323 1.23067279,13.525912 1.43321031,13.7314501 C1.63574783,13.9369882 1.91164188,14.0536468 2.20019496,14.0557607 L6.73611775,14.0557607 C6.93620747,14.0557241 7.12111368,14.1624497 7.22116911,14.3357264 C7.32122455,14.5090031 7.32122455,14.7224993 7.22116911,14.895776 C7.12111368,15.0690527 6.93620747,15.1757783 6.73611775,15.1757417 L6.73611775,15.1997413 Z M8.9120807,13.2637742 C8.64154849,13.2633133 8.41121795,13.0668549 8.36808996,12.7997821 C8.32925027,12.5806187 8.31050608,12.3583662 8.31209091,12.1357934 C8.30217662,10.5622521 9.2532966,9.14191291 10.7120501,8.55185442 C10.8487416,8.49398364 11.0029802,8.49360451 11.1399545,8.55080259 C11.2769289,8.60800067 11.3850942,8.71795506 11.4400377,8.85584924 C11.551247,9.14078051 11.4168575,9.46260795 11.1360428,9.58383686 C10.097902,10.0052035 9.42021228,11.0154046 9.42407199,12.1357934 C9.42514096,12.2939235 9.43851444,12.4517306 9.4640713,12.6077854 C9.51759141,12.9100621 9.31777641,13.1990802 9.01607893,13.2557743 L8.9120807,13.2637742 Z M12.1520255,15.9997276 C11.0931587,15.9984363 10.0822289,15.558146 9.36007306,14.7837483 C9.25050343,14.6795477 9.18847578,14.5349612 9.18847578,14.3837551 C9.18847578,14.232549 9.25050343,14.0879626 9.36007306,13.983762 C9.58150751,13.7641212 9.93862501,13.7641212 10.1600595,13.983762 C10.67122,14.5311753 11.3870638,14.8412777 12.1360258,14.8397474 C12.8011795,14.8397088 13.4436753,14.5980621 13.943995,14.159759 C14.1696061,14.0156767 14.4660788,14.0542406 14.6473227,14.2512449 C14.8285667,14.4482492 14.8423337,14.7469023 14.6799825,14.9597453 C13.994666,15.6066816 13.0941904,15.9771304 12.1520255,15.9997276 L12.1520255,15.9997276 Z M15.3119717,13.5997685 L15.1999737,13.5997685 C14.905008,13.5144932 14.7337192,13.2076007 14.8159802,12.9117802 C15.215147,11.5024112 14.4471643,10.0260609 13.06401,9.54383754 C12.8582809,9.49334672 12.6986519,9.33109008 12.6515264,9.12456411 C12.6044009,8.91803815 12.6778464,8.70259811 12.8413105,8.56786407 C13.0047746,8.43313002 13.230274,8.40216713 13.4240039,8.48785552 C14.9710774,9.03227027 16.0044864,10.4957314 15.99996,12.1357934 C16.0016385,12.4959815 15.9504266,12.8544647 15.8479626,13.1997753 C15.7820372,13.4401564 15.5611746,13.6049792 15.3119717,13.5997685 L15.3119717,13.5997685 Z M7.95209704,5.24791068 L3.02418092,5.24791068 C2.80962032,5.27369391 2.5993722,5.17371755 2.48394716,4.99102083 C2.36852213,4.80832411 2.36852213,4.57551616 2.48394716,4.39281944 C2.5993722,4.21012272 2.80962032,4.11014636 3.02418092,4.1359296 L7.95209704,4.1359296 C8.16665765,4.11014636 8.37690576,4.21012272 8.4923308,4.39281944 C8.60775583,4.57551616 8.60775583,4.80832411 8.4923308,4.99102083 C8.37690576,5.17371755 8.16665765,5.27369391 7.95209704,5.24791068 L7.95209704,5.24791068 Z M12.1520255,10.8958145 C12.8324288,10.8958145 13.3840046,11.450972 13.3840046,12.1357934 C13.3840046,12.8206148 12.8324288,13.3757723 12.1520255,13.3757723 C11.4716223,13.3757723 10.9200465,12.8206148 10.9200465,12.1357934 C10.9200465,11.450972 11.4716223,10.8958145 12.1520255,10.8958145 Z M8.80008261,7.43987335 C9.10935681,7.43987335 9.36007308,7.69058962 9.36007308,7.99986382 C9.36007308,8.30913802 9.10935681,8.55985429 8.80008261,8.55985429 L3.02418092,8.55985429 C2.71490672,8.55985429 2.46419045,8.30913802 2.46419045,7.99986382 C2.46419045,7.69058962 2.71490672,7.43987335 3.02418092,7.43987335 L8.80008261,7.43987335 Z" id="形状"></path>
            </g>
        </g>
    </g>
</svg>