<?xml version="1.0" encoding="UTF-8"?>
<svg width="14px" height="11px" viewBox="0 0 14 11" version="1.1" xmlns="http://www.w3.org/2000/svg" xmlns:xlink="http://www.w3.org/1999/xlink">
    <title>编组 14</title>
    <g id="布局/组件使用规范" stroke="none" stroke-width="1" fill="none" fill-rule="evenodd">
        <g id="仪表盘使用规范" transform="translate(-1424.000000, -390.000000)" fill="#757FFF">
            <g id="编组-8备份-6" transform="translate(1418.000000, 380.000000)">
                <g id="编组-14" transform="translate(7.000000, 10.000000)">
                    <path d="M11.5557627,9.29706254 L0.888479016,9.29706254 L0.888479016,0.852362491 C0.888479016,0.607016993 0.689587193,0.408125169 0.444241695,0.408125169 C0.198896197,0.408125169 2.17375964e-06,0.607016993 2.17375964e-06,0.852362491 L2.17375964e-06,9.74129987 C-0.000366889911,9.85936079 0.0462726012,9.9727135 0.129623534,10.0563265 C0.212974466,10.1399396 0.32618019,10.1869342 0.444241695,10.1869342 L11.5557627,10.1869342 C11.7144734,10.1869342 11.8611281,10.102263 11.9404835,9.96481551 C12.0198388,9.827368 12.0198388,9.65802568 11.9404835,9.52057817 C11.8611281,9.38313066 11.7144734,9.29845951 11.5557627,9.29845952 L11.5557627,9.29706254 Z" id="形状" stroke="#757FFF" stroke-width="0.5" fill-rule="nonzero"></path>
                    <rect id="矩形" x="3" y="4.5" width="1.5" height="4" rx="0.75"></rect>
                    <rect id="矩形备份-3" x="6" y="2.5" width="1.5" height="6" rx="0.75"></rect>
                    <rect id="矩形备份" x="3" y="2" width="1.5" height="2" rx="0.75"></rect>
                    <rect id="矩形备份-4" x="6" y="0" width="1.5" height="2" rx="0.75"></rect>
                    <rect id="矩形备份-3" x="9" y="6.5" width="1.5" height="2" rx="0.75"></rect>
                    <rect id="矩形备份-4" x="9" y="1" width="1.5" height="5" rx="0.75"></rect>
                </g>
            </g>
        </g>
    </g>
</svg>