<?xml version="1.0" encoding="UTF-8"?>
<svg width="14px" height="11px" viewBox="0 0 14 11" version="1.1" xmlns="http://www.w3.org/2000/svg" xmlns:xlink="http://www.w3.org/1999/xlink">
    <title>编组 5</title>
    <g id="布局/组件使用规范" stroke="none" stroke-width="1" fill="none" fill-rule="evenodd">
        <g id="仪表盘使用规范" transform="translate(-1424.000000, -510.000000)" fill="#757FFF" fill-rule="nonzero">
            <g id="编组-8备份-6" transform="translate(1418.000000, 500.384890)">
                <g id="编组-5" transform="translate(7.000000, 10.000000)">
                    <path d="M11.5557627,8.88893737 L0.888479016,8.88893737 L0.888479016,0.444237321 C0.888479016,0.198891824 0.689587193,0 0.444241695,0 C0.198896197,0 2.17375964e-06,0.198891824 2.17375964e-06,0.444237321 L2.17375964e-06,9.3331747 C-0.000366889911,9.45123562 0.0462726012,9.56458833 0.129623534,9.64820138 C0.212974466,9.73181442 0.32618019,9.77880899 0.444241695,9.77880899 L11.5557627,9.77880899 C11.7144734,9.77880899 11.8611281,9.69413785 11.9404835,9.55669034 C12.0198388,9.41924283 12.0198388,9.24990051 11.9404835,9.112453 C11.8611281,8.97500549 11.7144734,8.89033434 11.5557627,8.89033435 L11.5557627,8.88893737 Z" id="形状" stroke="#757FFF" stroke-width="0.5"></path>
                    <path d="M4.61511032,4.03483137 C4.95564965,4.03483137 5.23022064,4.26914732 5.23022064,4.55637332 L5.23022064,9.4256099 C5.23022064,9.71434762 4.95386673,9.94715185 4.61511032,9.94715185 C4.27635391,9.94715185 4,9.71434762 4,9.4256099 L4,4.55637332 C4,4.26914732 4.27635391,4.03483137 4.61511032,4.03483137 Z" id="路径" transform="translate(4.615110, 6.990992) rotate(-90.000000) translate(-4.615110, -6.990992) "></path>
                    <path d="M4.61511032,3 C4.95564965,3 5.23022064,3.23431595 5.23022064,3.52154195 L5.23022064,7 C5.23022064,7.28873772 4.95386673,7.52154195 4.61511032,7.52154195 C4.27635391,7.52154195 4,7.28873772 4,7 L4,3.52154195 C4,3.23280423 4.27457098,3 4.61511032,3 Z" id="路径" transform="translate(4.615110, 5.260771) rotate(-90.000000) translate(-4.615110, -5.260771) "></path>
                    <path d="M5.61511032,-1.26977936 C5.95564965,-1.26977936 6.23022064,-0.952724901 6.23022064,-0.564077496 L6.23022064,6.02451877 C6.23022064,6.41521169 5.95386673,6.73022064 5.61511032,6.73022064 C5.27635391,6.73022064 5,6.41521169 5,6.02451877 L5,-0.564077496 C5,-0.952724901 5.27635391,-1.26977936 5.61511032,-1.26977936 Z" id="路径" transform="translate(5.615110, 2.730221) rotate(-90.000000) translate(-5.615110, -2.730221) "></path>
                    <path d="M4.61511032,-2 C4.95564965,-2 5.23022064,-1.6890672 5.23022064,-1.30792377 L5.23022064,3.30792377 C5.23022064,3.69107322 4.95386673,4 4.61511032,4 C4.27635391,4 4,3.69107322 4,3.30792377 L4,-1.30792377 C4,-1.69107322 4.27457098,-2 4.61511032,-2 Z" id="路径" transform="translate(4.615110, 1.000000) rotate(-90.000000) translate(-4.615110, -1.000000) "></path>
                </g>
            </g>
        </g>
    </g>
</svg>