<?xml version="1.0" encoding="UTF-8"?>
<svg width="186px" height="39px" viewBox="0 0 186 39" version="1.1" xmlns="http://www.w3.org/2000/svg" xmlns:xlink="http://www.w3.org/1999/xlink">
    <title>编组</title>
    <defs>
        <polygon id="path-1" points="0 37 186 37 186 0 0 0"></polygon>
    </defs>
    <g id="仪表盘" stroke="none" stroke-width="1" fill="none" fill-rule="evenodd">
        <g id="仪表盘-总览" transform="translate(-32.000000, -10.000000)">
            <g id="编组" transform="translate(32.000000, 10.000000)">
                <g id="编组-2" transform="translate(0.000000, 1.000000)">
                    <path d="M16.1212121,6.84684069 C14.6582795,0.391974154 9.21212121,2.7068711 9.21212121,2.7068711 C10.9137465,7.74633623 16.1212121,6.84684069 16.1212121,6.84684069" id="Fill-1" fill="#FEFEFE"></path>
                    <path d="M17.7652652,0 C17.7652652,0 14.9242746,1.93860571 16.7115395,5.75757576 C16.7115395,5.75757576 19.7170457,4.56848105 17.7652652,0" id="Fill-3" fill="#FEFEFE"></path>
                    <path d="M20.3189425,8.50742219 C20.9160452,8.50742219 21.399102,8.99444469 21.399102,9.59497379 C21.399102,10.1955029 20.9160452,10.6825254 20.3189425,10.6825254 C19.7224952,10.6825254 19.2387829,10.1955029 19.2387829,9.59497379 C19.2387829,8.99444469 19.7224952,8.50742219 20.3189425,8.50742219 M31.0628591,34.0101111 C33.7914416,32.0831386 35.5768509,28.8943951 35.5768509,25.2839614 L30.6381362,25.2839614 L26.143152,18.1719811 L23.5751514,13.9682774 C27.9305276,12.464315 29.3220195,6.90909091 29.3220195,6.90909091 L16.9296798,6.90909091 C14.9915538,13.8092362 13.0527724,20.7100414 11.1146464,27.6101867 C9.96369971,27.4735829 8.22089381,27.0928078 6.43220735,25.9445434 C2.40651579,23.3602885 1.30472687,18.9170331 1.07008057,17.8545586 C0.68599473,18.9236324 -1.45203944,25.1816735 1.67439311,31.4964679 C3.50699383,35.1992907 7.96265179,37.1704779 9.31940554,38 L38,38 C37.3976538,34.6812518 33.3903144,34.0761033 31.0628591,34.0101111" id="Fill-5" fill="#FEFEFE"></path>
                    <path d="M33.1230052,25.3333333 C33.2990136,24.7597127 33.3939394,24.1516227 33.3939394,23.5214204 C33.3939394,20.069941 30.5586892,17.2727273 27.0609357,17.2727273 C23.5631822,17.2727273 20.7272727,20.069941 20.7272727,23.5214204 C20.7272727,24.1516227 20.8228578,24.7597127 20.9988661,25.3333333 L33.1230052,25.3333333 Z" id="Fill-7" fill="#F4B73E"></path>
                </g>
                <path d="M50.8688716,19.9337382 C46.5136187,19.0864206 46.1595331,17.9920227 46.1595331,16.7533868 L46.1595331,16.705523 C46.1595331,15.1570664 47.7522374,14.0322685 49.9475681,14.0322685 C51.8535019,14.0322685 53.365856,14.5762334 54.8523346,15.7954652 L55.2309339,16.1059327 L56.6717899,14.4054763 L56.2945525,14.1176471 C54.3225681,12.6131733 52.4976654,12 49.9979572,12 C46.5183852,12 43.8947471,14.0736642 43.8947471,16.8238887 L43.8947471,16.8717525 C43.8947471,19.6168026 45.7734436,21.1490891 50.1770428,21.9957598 C54.3920233,22.8016817 54.735214,23.8695605 54.735214,25.0810306 L54.735214,25.1282475 C54.735214,26.8002443 53.1152724,27.9670847 50.7966926,27.9670847 C48.4481518,27.9670847 46.7825875,27.3099285 44.8548638,25.6211147 L44.4898833,25.3015919 L43,26.9244313 L43.3561284,27.2264904 C45.6188716,29.1449208 47.889786,30 50.7217899,30 C54.4178988,30 57,27.9483273 57,25.0098818 L57,24.962018 C57,22.3055805 55.1090467,20.7545366 50.8688716,19.9337382" id="Fill-9" fill="#FEFEFE"></path>
                <path d="M64.0404921,27.9160075 C62.5714448,27.9160075 61.0836038,27.0904645 61.0836038,25.5111942 L61.0836038,25.4621986 C61.0836038,23.9258833 62.3609545,23.0083897 64.4996868,23.0083897 C65.9555783,23.0083897 67.1308161,23.2399444 68.0310382,23.4714991 L68.0310382,24.5265832 C68.0310382,26.4588906 66.315166,27.9160075 64.0404921,27.9160075 M68.674412,17.5175224 C67.7478786,16.5248574 66.3596446,16 64.6606868,16 C62.8282932,16 61.4350476,16.569826 60.3143117,17.1275708 L59.9265334,17.3201975 L60.6901874,19.2753248 L61.1174327,19.0417566 C62.3108377,18.3887051 63.4152856,18.0846637 64.5917763,18.0846637 C66.1372516,18.0846637 67.9771627,18.6591879 68.0078592,21.3801237 C67.1082636,21.1546095 66.0414033,20.9727216 64.5685973,20.9727216 C61.1857167,20.9727216 59,22.7640827 59,25.5360276 L59,25.5850233 C59,28.4536171 61.5615923,30 63.9715815,30 C65.8791503,30 67.1796799,29.1986193 68.0078592,28.387171 L68.0078592,29.705355 L70,29.705355 L70,21.4002589 C70,19.7659523 69.5539609,18.4598495 68.674412,17.5175224" id="Fill-11" fill="#FEFEFE"></path>
                <polygon id="Fill-13" fill="#FEFEFE" points="82.5597019 16 78.0023871 25.9976816 73.4921323 16 71 16 77.1607639 29 78.8399182 29 85 16"></polygon>
                <mask id="mask-2" fill="white">
                    <use xlink:href="#path-1"></use>
                </mask>
                <g id="Clip-16"></g>
                <polygon id="Fill-15" fill="#FEFEFE" mask="url(#mask-2)" points="86 29 88 29 88 16 86 16"></polygon>
                <path d="M97.8353966,16 C96.2945896,16 95.0002866,16.5772634 94.0275103,17.6848196 L94.0275103,16.2995235 L92,16.2995235 L92,30 L94.0275103,30 L94.0275103,22.1511232 C94.0275103,19.7978216 95.5613824,18.089857 97.6733723,18.089857 C99.7393398,18.089857 100.97249,19.5330157 100.97249,21.9516678 L100.97249,30 L103,30 L103,21.7270252 C103,18.3015657 100.924576,16 97.8353966,16" id="Fill-17" fill="#FEFEFE" mask="url(#mask-2)"></path>
                <path d="M112.416546,26.2799049 C110.043463,26.2799049 108.183444,24.4650496 108.183444,22.1480629 L108.183444,22.099966 C108.183444,19.4187257 110.313633,18.0155796 112.416546,18.0155796 C115.274117,18.0155796 116.982165,20.1042665 116.982165,22.1243351 L116.982165,22.1711494 C116.982165,24.7087404 114.61233,26.2799049 112.416546,26.2799049 L112.416546,26.2799049 Z M116.910726,16.2821683 L116.910726,17.8815497 C115.907978,16.8849825 114.419443,16 112.297048,16 C109.268672,16 106,18.3503338 106,22.1480629 L106,22.1948772 C106,23.920593 106.699455,25.5000943 107.969776,26.6415934 C109.138782,27.6926704 110.716291,28.2954846 112.297048,28.2954846 C114.072638,28.2954846 115.6469,27.6221283 116.910726,26.3337734 L116.910726,26.8051228 C116.910726,29.4761025 115.34166,31.0081482 112.606834,31.0081482 C110.931908,31.0081482 109.375181,30.4694632 107.980816,29.4087668 L107.604786,29.1233921 L106.368237,30.8074239 L106.733876,31.0761251 C108.475046,32.3529367 110.442874,33 112.583454,33 C114.503222,33 116.184643,32.3850013 117.315981,31.26723 C118.417445,30.1795994 119,28.6610208 119,26.8763062 L119,16.2821683 L116.910726,16.2821683 Z" id="Fill-18" fill="#FEFEFE" mask="url(#mask-2)"></path>
                <path d="M127.776555,21.8288591 C126.036819,21.2979866 124.806352,20.8449664 124.806352,19.8489933 L124.806352,19.8 C124.806352,18.7899329 125.728728,18.0845638 127.049029,18.0845638 C128.154868,18.0845638 129.360663,18.5026846 130.445625,19.261745 L130.826469,19.5288591 L131.909534,17.7167785 L131.544506,17.4583893 C130.272284,16.5590604 128.567344,16 127.095211,16 C124.576074,16 122.74777,17.6604027 122.74777,19.947651 L122.74777,19.9966443 C122.74777,22.557047 125.125198,23.2852349 127.035111,23.8704698 L127.135699,23.9020134 C128.955779,24.4449664 129.942051,24.933557 129.942051,25.9536913 L129.942051,26.0040268 C129.942051,27.1288591 128.952616,27.9154362 127.536155,27.9154362 C126.162713,27.9154362 124.826596,27.3939597 123.563231,26.3644295 L123.201366,26.0697987 L122,27.7838926 L122.333397,28.0718121 C123.709369,29.2610738 125.676852,30 127.466565,30 C130.09325,30 132,28.257047 132,25.8557047 L132,25.8067114 C132,23.0852349 129.353704,22.2979866 127.776555,21.8288591" id="Fill-19" fill="#FEFEFE" mask="url(#mask-2)"></path>
                <polygon id="Fill-20" fill="#FEFEFE" mask="url(#mask-2)" points="146.85705 12 146.85705 25.182813 135.87793 12 134 12 134 29 136.143601 29 136.143601 15.5183105 147.364299 29 149 29 149 12"></polygon>
                <path d="M159.025097,27.9305913 C156.364826,27.9305913 154.281105,25.7645435 154.281105,23.0006665 L154.281105,22.9513472 C154.281105,20.1688089 156.299031,18.0700752 158.975581,18.0700752 C161.635853,18.0700752 163.718895,20.236123 163.718895,23.0006665 L163.718895,23.0493192 C163.718895,25.8318576 161.700969,27.9305913 159.025097,27.9305913 M159.025097,16 C155.085562,16 152,19.0751214 152,23.0006665 L152,23.0493192 C152,26.9468723 155.063857,30 158.975581,30 C162.914438,30 166,26.9255451 166,23.0006665 L166,22.9513472 C166,19.0531277 162.936822,16 159.025097,16" id="Fill-21" fill="#FEFEFE" mask="url(#mask-2)"></path>
                <polygon id="Fill-22" fill="#FEFEFE" mask="url(#mask-2)" points="183.691821 16.0466431 180.2662 25.6033618 176.839247 16 175.210062 16 171.783108 25.6033618 168.356822 16.0466431 166 16.0466431 170.914876 29 172.608029 29 176.010995 19.6803303 179.391304 29 181.085124 29 186 16.0466431"></polygon>
                <path d="M88,14 C88,14.5520774 87.5522048,15 87.0002845,15 C86.4477952,15 86,14.5520774 86,14 C86,13.4473534 86.4477952,13 87.0002845,13 C87.5522048,13 88,13.4473534 88,14" id="Fill-23" fill="#FEFEFE" mask="url(#mask-2)"></path>
            </g>
        </g>
    </g>
</svg>