<?xml version="1.0" encoding="UTF-8"?>
<svg width="12px" height="12px" viewBox="0 0 12 12" version="1.1" xmlns="http://www.w3.org/2000/svg" xmlns:xlink="http://www.w3.org/1999/xlink">
    <title>形状</title>
    <g id="布局/组件使用规范" stroke="none" stroke-width="1" fill="none" fill-rule="evenodd">
        <g id="仪表盘使用规范" transform="translate(-1425.000000, -989.000000)" fill="#757FFF" fill-rule="nonzero">
            <g id="编组-8备份-6" transform="translate(1418.000000, 980.000000)">
                <g id="juxingrelitu" transform="translate(7.000000, 9.000000)">
                    <path d="M10.9453125,0 L1.0546875,0 C0.472265625,0 0,0.472265625 0,1.0546875 L0,10.9453125 C0,11.5277344 0.472265625,12 1.0546875,12 L10.9453125,12 C11.5277344,12 12,11.5277344 12,10.9453125 L12,1.0546875 C12,0.472265625 11.5277344,0 10.9453125,0 Z M8.20898438,1.0546875 L8.20898438,2.73632812 L6.52734375,2.73632812 L6.52734375,1.0546875 L8.20898438,1.0546875 Z M5.47265625,6.52734375 L5.47265625,8.20898438 L3.79101562,8.20898438 L3.79101562,6.52734375 L5.47265625,6.52734375 Z M3.79101562,5.47265625 L3.79101562,3.79101562 L5.47265625,3.79101562 L5.47265625,5.47265625 L3.79101562,5.47265625 Z M6.52734375,6.52734375 L8.20898438,6.52734375 L8.20898438,8.20898438 L6.52734375,8.20898438 L6.52734375,6.52734375 Z M6.52734375,5.47265625 L6.52734375,3.79101562 L8.20898438,3.79101562 L8.20898438,5.47265625 L6.52734375,5.47265625 Z M5.47265625,1.0546875 L5.47265625,2.73632812 L3.79101562,2.73632812 L3.79101562,1.0546875 L5.47265625,1.0546875 Z M1.0546875,1.0546875 L2.73632812,1.0546875 L2.73632812,2.73632812 L1.0546875,2.73632812 L1.0546875,1.0546875 Z M1.0546875,3.79101562 L2.73632812,3.79101562 L2.73632812,5.47265625 L1.0546875,5.47265625 L1.0546875,3.79101562 Z M1.0546875,6.52734375 L2.73632812,6.52734375 L2.73632812,8.20898438 L1.0546875,8.20898438 L1.0546875,6.52734375 Z M1.0546875,10.9453125 L1.0546875,9.26367188 L2.73632812,9.26367188 L2.73632812,10.9453125 L1.0546875,10.9453125 Z M3.79101562,10.9453125 L3.79101562,9.26367188 L5.47265625,9.26367188 L5.47265625,10.9453125 L3.79101562,10.9453125 Z M6.52734375,10.9453125 L6.52734375,9.26367188 L8.20898438,9.26367188 L8.20898438,10.9453125 L6.52734375,10.9453125 Z M10.9453125,10.9453125 L9.26367188,10.9453125 L9.26367188,9.26367188 L10.9453125,9.26367188 L10.9453125,10.9453125 Z M10.9453125,8.20898438 L9.26367188,8.20898438 L9.26367188,6.52734375 L10.9453125,6.52734375 L10.9453125,8.20898438 Z M10.9453125,5.47265625 L9.26367188,5.47265625 L9.26367188,3.79101562 L10.9453125,3.79101562 L10.9453125,5.47265625 Z M9.26367188,2.73632812 L9.26367188,1.0546875 L10.9453125,1.0546875 L10.9453125,2.73632812 L9.26367188,2.73632812 Z" id="形状"></path>
                </g>
            </g>
        </g>
    </g>
</svg>