<?xml version="1.0" encoding="UTF-8"?>
<svg width="18px" height="18px" viewBox="0 0 18 18" version="1.1" xmlns="http://www.w3.org/2000/svg" xmlns:xlink="http://www.w3.org/1999/xlink">
    <title>形状结合</title>
    <g id="平台管理" stroke="none" stroke-width="1" fill="none" fill-rule="evenodd">
        <g id="企业管理" transform="translate(-1109.000000, -22.000000)" fill="#ACB3CB" fill-rule="nonzero">
            <g id="bangzhu" transform="translate(1109.000000, 22.000000)">
                <path d="M9,0 C13.9622902,0 18,4.03770809 18,9 C18.0021737,13.9622902 13.9644656,18 9,18 C4.03770809,18 0,13.9622902 0,9 C0,4.03770809 4.03770809,0 9,0 Z M8.99999912,1.74039142 C4.99709886,1.74039142 1.74039142,4.99709886 1.74039142,8.99999912 C1.74039142,13.0028994 4.99709886,16.2596068 8.99999912,16.2596068 C13.0028994,16.2596068 16.2596068,13.0028994 16.2596068,8.99999912 C16.2596068,4.99709886 13.0028994,1.74039142 8.99999912,1.74039142 Z M9.0848432,12.5264672 C9.36765681,12.5264672 9.59608318,12.6178378 9.78535075,12.8071053 C9.97461832,12.9963729 10.0659889,13.2247993 10.0659889,13.5076129 C10.0659889,13.7773736 9.97461832,14.001449 9.78535075,14.1907165 C9.59825867,14.3778086 9.36765681,14.4713546 9.08701869,14.4713546 C8.80420509,14.4713546 8.57360322,14.3799841 8.38651115,14.1907165 C8.19724358,14.001449 8.10369754,13.7773736 8.10369754,13.5076129 C8.10369754,13.2269748 8.19506809,12.9963729 8.38433566,12.8071053 C8.57360322,12.6178378 8.8020296,12.5264672 9.0848432,12.5264672 Z M9.15663435,3.53081909 C9.73096352,3.53081909 10.235677,3.61566317 10.6598974,3.78535133 C11.0819424,3.95286401 11.4300206,4.18129038 11.6932548,4.4619285 L11.7280627,4.49891182 C11.9847704,4.77302346 12.169687,4.97099299 12.3676565,5.46482905 C12.6200133,6.09354545 12.5221163,6.59825896 12.4873084,6.73749028 C12.36113,7.22915085 12.2131968,7.55764973 11.9934724,7.83393687 C11.7389401,8.15155831 11.4517755,8.44742485 11.1406806,8.71283454 C11.0645384,8.7764676 10.9731679,8.8535615 10.878942,8.93340875 L10.6903493,9.09360181 C10.474437,9.277374 10.2878888,9.43727247 10.2878888,9.43727247 C10.0347162,9.65427752 9.90146749,9.85962331 9.88377039,10.0649691 L9.88324777,10.5750534 C9.89412521,10.7643209 9.83103602,10.9253071 9.69180471,11.0710649 C9.55692438,11.2102962 9.3698323,11.2886138 9.12182652,11.2994913 C8.87599623,11.2864383 8.68455318,11.2124717 8.53661991,11.0710649 C8.39303761,10.9340091 8.36040528,10.8317611 8.31689549,10.6185631 C8.27556119,10.4118917 8.28426315,10.2552564 8.2951406,10.0768663 L8.30166707,9.96156538 C8.31254451,9.74619194 8.37780919,9.53516948 8.49311012,9.35025289 C8.61711301,9.15445886 8.76504628,8.97606874 8.94561189,8.80420509 C9.13270397,8.63016595 9.33067349,8.46265327 9.53299399,8.30601804 C9.73748999,8.14938282 9.93981049,7.98404563 10.1356045,7.81218198 C10.3313986,7.64031833 10.4880338,7.46845467 10.6163877,7.28353809 C10.751268,7.08774405 10.8187082,6.8745461 10.8187082,6.64394424 C10.844814,6.20231992 10.6773014,5.82378478 10.3226966,5.52791824 C9.97461832,5.23857817 9.50906361,5.09282039 8.94126091,5.09282039 C8.64321888,5.09282039 8.36910723,5.16461153 8.12762792,5.31036931 C7.89049959,5.45177612 7.68817909,5.62581526 7.52501739,5.82813576 C7.3618557,6.02828077 7.23132634,6.24147872 7.13560481,6.46337863 C7.0377078,6.69398049 6.98984703,6.88542355 6.98984703,7.04640975 C6.98984703,7.24655477 6.91805589,7.39448804 6.77012262,7.49891152 C6.62001386,7.60333501 6.45250118,7.65772224 6.27411106,7.65772224 L6.2458297,7.65772224 C6.05003567,7.65119577 5.87599653,7.58593109 5.71065934,7.45757723 C5.55184862,7.33574983 5.46918003,7.13995579 5.45830259,6.85931768 C5.44524965,6.60913641 5.49963688,6.29151498 5.61493781,5.91297984 C5.73241423,5.53444471 5.93691023,5.16461153 6.2262503,4.81435776 C6.51776586,4.45975301 6.90500295,4.15300902 7.37490863,3.90500324 C7.84481432,3.65699747 8.44524936,3.53081909 9.15663435,3.53081909 Z" id="形状结合"></path>
            </g>
        </g>
    </g>
</svg>