<?xml version="1.0" standalone="no"?><!DOCTYPE svg PUBLIC "-//W3C//DTD SVG 1.1//EN" "http://www.w3.org/Graphics/SVG/1.1/DTD/svg11.dtd"><svg t="1677556858041" class="icon" viewBox="0 0 1024 1024" version="1.1" xmlns="http://www.w3.org/2000/svg" p-id="1455" xmlns:xlink="http://www.w3.org/1999/xlink" width="128" height="128"><path d="M1024 579.584c0 132.3008-109.7728 239.616-245.0944 239.616L185.1904 819.2C82.8928 819.2 0 738.0992 0 638.1056c0-99.8912 82.8928-180.992 185.1904-180.992 7.4752 0 14.7456 0.6144 21.9648 1.3824C205.2608 445.9008 204.2368 432.9984 204.2368 419.7888 204.2368 272.7936 326.144 153.6 476.6208 153.6c123.2384 0 227.2768 79.9744 260.9152 189.7984 13.4656-2.2016 27.2384-3.3792 41.4208-3.3792C914.2272 340.0192 1024 447.1808 1024 579.584z" p-id="1456" fill="var(--color_text)"></path></svg>