<svg t="1679888451524" class="icon" viewBox="0 0 3023 1024" version="1.1" xmlns="http://www.w3.org/2000/svg" p-id="1079" width="128" height="128"><path d="M512.438857 0C230.521905 0 0 229.449143 0 513.511619 0 797.549714 230.521905 1024 512.438857 1024s512.438857-229.668571 512.438857-510.488381C1024.877714 232.643048 797.574095 0 512.438857 0z m203.117714 730.916571h-6.046476a153.770667 153.770667 0 0 1-121.295238-60.416s-75.776-108.81219-78.799238-111.811047c-9.069714-9.020952-18.139429-15.067429-33.450667-15.067429-9.069714 0-18.139429 3.023238-24.185904 9.020953 0 0 121.319619 175.274667 124.342857 175.274666 12.092952 15.043048 30.232381 27.087238 51.590095 27.087238 9.069714 0 18.139429-2.998857 27.209143-6.022095-15.11619 18.066286-33.450667 27.111619-57.636572 33.328762h-15.11619c-33.450667 0-60.65981-15.067429-78.799238-39.350857l-48.566857-69.461333c-33.450667 36.327619-78.799238 57.417143-130.364953 57.417142-97.133714 0-175.932952-78.506667-175.932952-175.250285a175.542857 175.542857 0 0 1 163.84-175.250286c15.11619-99.766857 103.15581-175.250286 206.140952-175.250286 103.18019 0 191.024762 75.483429 206.140953 175.250286a175.542857 175.542857 0 0 1 163.84 175.250286c-3.047619 96.768-78.799238 172.251429-172.909715 175.250285z" fill="#CE2E2C" p-id="1080"></path><path d="M721.603048 453.071238h-12.092953c-27.209143 0-48.542476 9.045333-66.681905 24.112762 9.069714-18.066286 15.11619-39.350857 15.116191-60.440381 0-9.020952 0-18.041905-3.047619-27.087238-12.068571-63.439238-69.729524-114.834286-136.411429-114.834286-69.729524 0-124.342857 48.37181-136.411428 114.834286-3.023238 9.020952-3.023238 18.041905-3.023238 27.087238 0 21.089524 6.022095 42.374095 15.11619 60.440381a106.422857 106.422857 0 0 0-66.706286-24.112762h-12.092952c-51.590095 6.046476-90.89219 51.395048-90.89219 102.790095a105.350095 105.350095 0 0 0 106.179047 105.788953c36.473905 0 69.729524-18.066286 87.868953-48.37181 3.023238-3.023238 3.023238-6.022095 6.046476-12.04419 6.046476-12.068571 9.069714-27.111619 9.069714-45.372953 0-12.04419-3.023238-21.089524-6.046476-33.328762 12.092952 3.023238 21.162667 12.04419 27.209143 21.089524l3.023238 3.023238c9.069714-12.068571 18.139429-21.089524 33.450666-27.111619 12.092952-6.022095 24.185905-9.020952 36.473905-9.020952 27.209143 0 51.590095 12.01981 66.681905 33.304381 0 2.998857 3.047619 2.998857 6.046476 6.022095 18.139429 27.111619 51.590095 72.46019 51.590095 72.460191 15.11619 18.066286 36.473905 33.328762 63.683048 33.328761h6.046476c57.636571 0 106.203429-45.348571 106.203429-105.813333-15.311238-45.348571-54.808381-90.697143-106.398476-96.743619" fill="#CE2E2C" p-id="1081"></path><path d="M2307.657143 280.868571v441.002667c0 9.045333-9.045333 18.090667-18.115048 18.090667h-145.505524V217.404952c0-2.998857-3.023238-6.022095-6.046476-6.022095h-57.636571c-2.998857 0-6.046476 3.023238-6.046476 6.022095V739.961905h-157.574096c-3.023238 0-6.046476-3.023238-6.046476-6.022095V280.84419c0-2.998857-3.023238-6.022095-6.046476-6.022095h-57.636571c-3.023238 0-6.046476 3.023238-6.046477 6.022095v525.55581c0 3.023238 3.023238 6.022095 6.046477 6.022095h463.872c39.497143 0 72.752762-33.304381 72.752761-72.46019V280.868571c0-3.023238-3.023238-6.046476-6.046476-6.046476h-57.636571c-9.264762-2.998857-12.263619 0-12.263619 6.022095M1661.635048 247.710476c-12.092952-21.065143-36.449524-36.327619-63.658667-36.327619H1328.152381c-27.209143 0-51.590095 15.067429-63.683048 36.327619l-81.822476 141.945905c-3.023238 2.998857 0 9.020952 6.046476 9.020952h21.162667v33.328762c0 2.998857 3.023238 6.022095 6.046476 6.022095h209.188572v72.460191h-209.188572c-3.023238 0-6.046476 3.023238-6.046476 6.022095v54.418286c0 2.998857 3.023238 6.022095 6.046476 6.022095h209.188572v163.181714h-72.752762l-30.232381-114.834285c0-2.998857-3.023238-5.997714-6.046476-5.997715h-54.613334c-6.046476 0-9.069714 2.998857-6.046476 9.020953l27.209143 111.811047h-93.915429c-3.023238 0-6.046476 3.023238-6.046476 6.022096v57.417143c0 3.023238 3.023238 6.022095 6.046476 6.022095h539.843048c3.023238 0 6.046476-2.998857 6.046476-6.022095v-57.417143c0-2.998857-3.023238-6.022095-6.046476-6.022096h-94.110476l27.209143-111.811047c6.046476-2.998857 3.023238-9.020952 0-9.020953h-54.613334c-2.998857 0-6.022095 2.998857-6.022095 6.022096l-30.232381 114.834285h-72.752762v-160.182857h209.188572c2.998857 0 6.022095-3.023238 6.022095-6.046476V519.558095c0-3.023238-3.023238-6.022095-6.046476-6.022095h-209.164191v-72.484571h209.188572c2.998857 0 6.022095-2.998857 6.022095-6.022096v-36.327619h24.185905c3.023238 0 6.046476-6.022095 6.046476-9.020952l-81.822476-141.945905z m-388.096 120.856381l42.520381-72.484571c6.046476-9.020952 15.11619-15.043048 24.185904-15.043048H1588.906667c9.069714 2.998857 18.139429 9.020952 21.162666 15.043048l42.496 72.484571H1273.539048z m1701.13219-145.139809h-460.848762c-3.023238 0-6.046476 3.023238-6.046476 6.022095v57.417143c0 3.023238 3.023238 6.022095 6.046476 6.022095h460.848762c3.023238 0 6.046476-2.998857 6.046476-6.022095V229.449143c3.023238-2.998857 0-6.022095-6.046476-6.022095m-321.389714 275.017142h363.910095c3.023238 0 6.046476-2.998857 6.046476-6.022095v-57.417143c0-2.998857-3.023238-6.022095-6.046476-6.022095h-542.866286c-3.023238 0-6.046476 3.023238-6.046476 6.022095v57.417143c0 3.023238 3.023238 6.022095 6.046476 6.022095h106.203429l-75.776 305.12762c0 6.022095 3.023238 9.020952 6.046476 9.020952h406.235429a71.753143 71.753143 0 0 0 69.729523-90.526476l-33.450666-129.877334c0-3.023238-3.023238-6.022095-6.046476-6.022095h-54.613334c-6.022095 0-9.045333 2.998857-6.022095 9.020953l30.232381 126.878476c3.023238 9.020952-6.046476 21.089524-15.11619 21.089524h-300.251429c-6.046476 0-9.069714-3.023238-6.046476-9.020953l57.831619-235.690667z" fill="#000000" p-id="1082"></path></svg>