<?xml version="1.0" standalone="no"?><!DOCTYPE svg PUBLIC "-//W3C//DTD SVG 1.1//EN" "http://www.w3.org/Graphics/SVG/1.1/DTD/svg11.dtd"><svg t="1669198590790" class="icon" viewBox="0 0 1024 1024" version="1.1" xmlns="http://www.w3.org/2000/svg" p-id="5058" xmlns:xlink="http://www.w3.org/1999/xlink" width="200" height="200"><path d="M818.816 747.008h-67.84l-45.952-51.2h113.792c21.248 0 38.528-17.28 38.528-38.528V304.896c0-21.248-17.28-38.528-38.528-38.528H274.56c-21.248 0-38.528 17.28-38.528 38.528v352.256c0 21.248 17.28 38.528 38.528 38.528h120.064l-42.752 51.2h-77.312c-49.408 0-89.728-40.192-89.728-89.728V304.896c0-49.408 40.192-89.728 89.728-89.728h544.256c49.408 0 89.728 40.192 89.728 89.728v352.256c0 49.536-40.192 89.856-89.728 89.856z" p-id="5059"></path><path d="M683.776 831.744H409.6c-10.112 0-19.328-6.016-23.424-15.36-4.096-9.344-2.304-20.224 4.608-27.648l137.088-147.968c9.728-10.496 27.904-10.496 37.632 0l137.088 147.968c6.912 7.424 8.704 18.304 4.608 27.648-4.096 9.216-13.312 15.36-23.424 15.36z m-215.552-51.2h156.928l-78.464-84.736-78.464 84.736z" p-id="5060"></path></svg>