<?xml version="1.0" encoding="UTF-8"?>
<svg width="14px" height="13px" viewBox="0 0 14 13" version="1.1" xmlns="http://www.w3.org/2000/svg" xmlns:xlink="http://www.w3.org/1999/xlink">
    <title>编组 4</title>
    <g id="布局/组件使用规范" stroke="none" stroke-width="1" fill="none" fill-rule="evenodd">
        <g id="仪表盘使用规范" transform="translate(-1424.000000, -598.000000)" fill="#757FFF" fill-rule="nonzero">
            <g id="编组-8备份-6" transform="translate(1418.000000, 590.000000)">
                <g id="编组-4" transform="translate(7.000000, 9.000000)">
                    <path d="M11.5557627,10.2955508 L0.888479016,10.2955508 L0.888479016,1.85085077 C0.888479016,1.60550528 0.689587193,1.40661345 0.444241695,1.40661345 C0.198896197,1.40661345 2.17375964e-06,1.60550528 2.17375964e-06,1.85085077 L2.17375964e-06,10.7397881 C-0.000366889911,10.8578491 0.0462726012,10.9712018 0.129623534,11.0548148 C0.212974466,11.1384279 0.32618019,11.1854224 0.444241695,11.1854224 L11.5557627,11.1854224 C11.7144734,11.1854224 11.8611281,11.1007513 11.9404835,10.9633038 C12.0198388,10.8258563 12.0198388,10.656514 11.9404835,10.5190665 C11.8611281,10.3816189 11.7144734,10.2969478 11.5557627,10.2969478 L11.5557627,10.2955508 Z M2.54109774,4.62872991 C2.64831719,4.62848151 2.75189897,4.58982419 2.83306503,4.51976605 L5.32945527,2.35585531 L7.75320293,4.51557513 C7.93502608,4.68071053 8.21618686,4.6675897 8.38184065,4.48623871 L11.8519209,0.747939719 C12.0193422,0.568173992 12.009335,0.286723297 11.8295693,0.119301998 C11.6498036,-0.0481193016 11.3683529,-0.0381121655 11.2009316,0.141653562 L8.02002471,3.56283973 L5.6298044,1.43245635 C5.46182639,1.28410967 5.2096569,1.28410967 5.04167889,1.43245635 L2.25052741,3.85480704 C2.10966721,3.9760679 2.05918761,4.17220189 2.12400499,4.34639862 C2.18882238,4.52059534 2.35523301,4.63602599 2.54109774,4.63571541 L2.54109774,4.62872991 Z" id="形状" stroke="#757FFF" stroke-width="0.5"></path>
                    <path d="M3.61511032,7.49924414 C3.95564965,7.49924414 4.23022064,7.65777137 4.23022064,7.85209508 L4.23022064,11.1463932 C4.23022064,11.3417397 3.95386673,11.4992441 3.61511032,11.4992441 C3.27635391,11.4992441 3,11.3417397 3,11.1463932 L3,7.85209508 C3,7.65777137 3.27635391,7.49924414 3.61511032,7.49924414 Z" id="路径"></path>
                    <path d="M10.0755516,6.5 C10.4160909,6.5 10.6906619,6.75911067 10.6906619,7.07673019 L10.6906619,10.9232698 C10.6906619,11.242561 10.414308,11.5 10.0755516,11.5 C9.73679519,11.5 9.46044127,11.242561 9.46044127,10.9232698 L9.46044127,7.07673019 C9.46044127,6.75743898 9.73501226,6.5 10.0755516,6.5 Z" id="路径"></path>
                    <path d="M6.84533096,8.5 C7.18587029,8.5 7.46044127,8.55857899 7.46044127,8.63038549 L7.46044127,10.3696145 C7.46044127,10.4417989 7.18408736,10.5 6.84533096,10.5 C6.50657455,10.5 6.23022064,10.4417989 6.23022064,10.3696145 L6.23022064,8.63038549 C6.23022064,8.55820106 6.50657455,8.5 6.84533096,8.5 Z" id="路径"></path>
                    <path d="M3.61511032,5.99924414 C3.95564965,5.99924414 4.23022064,6.03887595 4.23022064,6.08745688 L4.23022064,6.91103141 C4.23022064,6.95986802 3.95386673,6.99924414 3.61511032,6.99924414 C3.27635391,6.99924414 3,6.95986802 3,6.91103141 L3,6.08745688 C3,6.03887595 3.27635391,5.99924414 3.61511032,5.99924414 Z" id="路径"></path>
                    <path d="M10.0755516,5 C10.4160909,5 10.6906619,5.05182213 10.6906619,5.11534604 L10.6906619,5.88465396 C10.6906619,5.9485122 10.414308,6 10.0755516,6 C9.73679519,6 9.46044127,5.9485122 9.46044127,5.88465396 L9.46044127,5.11534604 C9.46044127,5.0514878 9.73501226,5 10.0755516,5 Z" id="路径"></path>
                    <path d="M6.84533096,7 C7.18587029,7 7.46044127,7.02928949 7.46044127,7.06519274 L7.46044127,7.93480726 C7.46044127,7.97089947 7.18408736,8 6.84533096,8 C6.50657455,8 6.23022064,7.97089947 6.23022064,7.93480726 L6.23022064,7.06519274 C6.23022064,7.02910053 6.50657455,7 6.84533096,7 Z" id="路径"></path>
                </g>
            </g>
        </g>
    </g>
</svg>