<?xml version="1.0" encoding="UTF-8"?>
<svg width="14px" height="12px" viewBox="0 0 14 12" version="1.1" xmlns="http://www.w3.org/2000/svg" xmlns:xlink="http://www.w3.org/1999/xlink">
    <title>编组 3</title>
    <g id="布局/组件使用规范" stroke="none" stroke-width="1" fill="none" fill-rule="evenodd">
        <g id="仪表盘使用规范" transform="translate(-1424.000000, -569.000000)" fill="#757FFF" fill-rule="nonzero">
            <g id="编组-8备份-6" transform="translate(1418.000000, 560.000000)">
                <g id="编组-3" transform="translate(7.000000, 10.000000)">
                    <path d="M11.5557627,9.29555083 L0.888479016,9.29555083 L0.888479016,0.850850775 C0.888479016,0.605505277 0.689587193,0.406613453 0.444241695,0.406613453 C0.198896197,0.406613453 2.17375964e-06,0.605505277 2.17375964e-06,0.850850775 L2.17375964e-06,9.73978815 C-0.000366889911,9.85784907 0.0462726012,9.97120179 0.129623534,10.0548148 C0.212974466,10.1384279 0.32618019,10.1854224 0.444241695,10.1854224 L11.5557627,10.1854224 C11.7144734,10.1854224 11.8611281,10.1007513 11.9404835,9.96330379 C12.0198388,9.82585628 12.0198388,9.65651397 11.9404835,9.51906646 C11.8611281,9.38161895 11.7144734,9.29694779 11.5557627,9.2969478 L11.5557627,9.29555083 Z M2.54109774,4.62872991 C2.64831719,4.62848151 2.75189897,4.58982419 2.83306503,4.51976605 L5.32945527,2.35585531 L7.75320293,4.51557513 C7.93502608,4.68071053 8.21618686,4.6675897 8.38184065,4.48623871 L11.8519209,0.747939719 C12.0193422,0.568173992 12.009335,0.286723297 11.8295693,0.119301998 C11.6498036,-0.0481193016 11.3683529,-0.0381121655 11.2009316,0.141653562 L8.02002471,3.56283973 L5.6298044,1.43245635 C5.46182639,1.28410967 5.2096569,1.28410967 5.04167889,1.43245635 L2.25052741,3.85480704 C2.10966721,3.9760679 2.05918761,4.17220189 2.12400499,4.34639862 C2.18882238,4.52059534 2.35523301,4.63602599 2.54109774,4.63571541 L2.54109774,4.62872991 Z" id="形状" stroke="#757FFF" stroke-width="0.5"></path>
                    <path d="M3.61511032,4.99924414 C3.95564965,4.99924414 4.23022064,5.15777137 4.23022064,5.35209508 L4.23022064,8.64639321 C4.23022064,8.84173967 3.95386673,8.99924414 3.61511032,8.99924414 C3.27635391,8.99924414 3,8.84173967 3,8.64639321 L3,5.35209508 C3,5.15777137 3.27635391,4.99924414 3.61511032,4.99924414 Z" id="路径"></path>
                    <path d="M10.0755516,4 C10.4160909,4 10.6906619,4.25911067 10.6906619,4.57673019 L10.6906619,8.42326981 C10.6906619,8.74256102 10.414308,9 10.0755516,9 C9.73679519,9 9.46044127,8.74256102 9.46044127,8.42326981 L9.46044127,4.57673019 C9.46044127,4.25743898 9.73501226,4 10.0755516,4 Z" id="路径"></path>
                    <path d="M6.84533096,6 C7.18587029,6 7.46044127,6.08786848 7.46044127,6.19557823 L7.46044127,8.80442177 C7.46044127,8.91269841 7.18408736,9 6.84533096,9 C6.50657455,9 6.23022064,8.91269841 6.23022064,8.80442177 L6.23022064,6.19557823 C6.23022064,6.08730159 6.50657455,6 6.84533096,6 Z" id="路径"></path>
                </g>
            </g>
        </g>
    </g>
</svg>