<?xml version="1.0" encoding="UTF-8"?>
<svg width="16px" height="18px" viewBox="0 0 16 18" version="1.1" xmlns="http://www.w3.org/2000/svg" xmlns:xlink="http://www.w3.org/1999/xlink">
    <title>形状结合</title>
    <g id="平台管理" stroke="none" stroke-width="1" fill="none" fill-rule="evenodd">
        <g id="企业管理" transform="translate(-1039.000000, -24.000000)" fill="#ACB3CB" fill-rule="nonzero">
            <g id="编组-13" transform="translate(1039.000000, 19.000000)">
                <g id="形状结合" transform="translate(0.000000, 5.000000)">
                    <path d="M7.57894737,0 C8.88489474,0 9.94736843,1.06247367 9.94736843,2.36842104 C12.1729628,3.29490122 13.7368421,5.49104511 13.7368421,8.05263157 L13.7368421,8.05263157 L13.7368421,11.3684211 L15.1578947,13.2631579 L15.1578947,14.2105263 C15.1578947,14.7315789 14.731579,15.1578947 14.2105263,15.1578947 L14.2105263,15.1578947 L10.4210526,15.1578947 C10.4210526,16.7248421 9.14589474,18 7.57894737,18 C6.01199999,18 4.7368421,16.7248421 4.7368421,15.1578947 L4.7368421,15.1578947 L0.947368407,15.1578947 C0.42631579,15.1578947 0,14.731579 0,14.2105263 L0,14.2105263 L0,13.2631579 L1.42105263,11.3684211 L1.42105263,8.05263157 C1.42105263,5.49104511 2.98493192,3.29490122 5.21005841,2.36683201 C5.21107286,1.06192722 6.27333589,0 7.57894737,0 Z M9,15.1578947 L6.15789473,15.1578947 C6.15789473,15.9427204 6.79412167,16.5789474 7.57894737,16.5789474 C8.36377307,16.5789474 9,15.9427204 9,15.1578947 L9,15.1578947 Z M7.57894737,3.31578947 C4.96705263,3.31578947 2.84210527,5.44073683 2.84210527,8.05263157 L2.84210527,8.05263157 L2.84210527,11.3684211 C2.84210527,11.6758421 2.7421579,11.9752105 2.55789474,12.2210526 L2.55789474,12.2210526 L1.42105263,13.7368421 L13.7368421,13.7368421 L12.6,12.2210526 C12.4157368,11.9752105 12.3157895,11.6758421 12.3157895,11.3684211 L12.3157895,11.3684211 L12.3157895,8.05263157 C12.3157895,5.44073683 10.1908421,3.31578947 7.57894737,3.31578947 Z M7.57847369,1.42152631 C7.23504508,1.41393185 6.91441199,1.5928357 6.74051727,1.88908139 C6.72774211,1.91084506 6.71590597,1.93299149 6.70500883,1.95546443 C6.9923016,1.91558464 7.28318866,1.89473684 7.57894737,1.89473684 C7.85996363,1.89473684 8.13658181,1.91355807 8.40761017,1.95000881 C8.25630789,1.64318772 7.94335471,1.42959516 7.57847369,1.42152631 Z"></path>
                </g>
            </g>
        </g>
    </g>
</svg>