<?xml version="1.0" encoding="UTF-8"?>
<svg width="12px" height="12px" viewBox="0 0 12 12" version="1.1" xmlns="http://www.w3.org/2000/svg" xmlns:xlink="http://www.w3.org/1999/xlink">
    <title>形状结合</title>
    <g id="系统管理" stroke="none" stroke-width="1" fill="none" fill-rule="evenodd">
        <g id="组织管理" transform="translate(-68.000000, -322.000000)" fill="#ACB3CB" fill-rule="nonzero">
            <path d="M78,322 C79.1045695,322 80,322.895431 80,324 L80,332 C80,333.104569 79.1045695,334 78,334 L70,334 C68.8954305,334 68,333.104569 68,332 L68,324 C68,322.895431 68.8954305,322 70,322 L78,322 Z M78,323 L70,323 C69.4871642,323 69.0644928,323.38604 69.0067277,323.883379 L69,324 L69,332 C69,332.512836 69.3860402,332.935507 69.8833789,332.993272 L70,333 L78,333 C78.5128358,333 78.9355072,332.61396 78.9932723,332.116621 L79,332 L79,324 C79,323.487164 78.6139598,323.064493 78.1166211,323.006728 L78,323 Z M71,327.499989 L77,327.500011 C77.2761442,327.500011 77.5,327.72387 77.5,328.000011 C77.5,328.245472 77.3231232,328.44962 77.0898739,328.491955 L77,328.500011 L71,328.499989 C70.7238558,328.499988 70.5,328.27613 70.5,327.999987 C70.5,327.754528 70.6768768,327.55038 70.9101261,327.508045 L71,327.499989 Z" id="形状结合"></path>
        </g>
    </g>
</svg>