<?xml version="1.0" encoding="UTF-8"?>
<svg width="24px" height="24px" viewBox="0 0 24 24" version="1.1" xmlns="http://www.w3.org/2000/svg" xmlns:xlink="http://www.w3.org/1999/xlink">
    <title>touxiang copy</title>
    <defs>
        <circle id="path-1" cx="12" cy="12" r="12"></circle>
    </defs>
    <g id="平台管理" stroke="none" stroke-width="1" fill="none" fill-rule="evenodd">
        <g id="企业管理1280" transform="translate(-1160.000000, -21.000000)">
            <g id="编组-10" transform="translate(747.000000, 16.000000)">
                <g id="编组" transform="translate(292.000000, 4.000000)">
                    <g id="touxiang-copy" transform="translate(121.000000, 1.000000)">
                        <mask id="mask-2" fill="white">
                            <use xlink:href="#path-1"></use>
                        </mask>
                        <use id="椭圆形" fill="#DDE0F4" xlink:href="#path-1"></use>
                        <path d="M14.5737765,18.3574316 C14.4950353,17.5207158 14.5212824,16.9 14.5212824,16.1178526 C14.8887412,15.9018526 16.1988118,14.6058526 16.3038,13.5258526 C16.5925177,13.4985684 17.0649647,13.2007158 17.1962,12.0138526 C17.2738,11.392 16.9862236,11.0134315 16.8024941,10.9054316 C17.2738,9.42071576 17.4837765,4.77785261 14.1812118,4.31743156 C13.84,3.72399999 12.9749882,3.4 11.8475059,3.4 C7.33871765,3.4807158 6.0012588,6.96399999 6.99750588,10.9327158 C6.81491766,11.0407158 6.52620001,11.392 6.60380001,12.04 C6.73503531,13.228 7.20748238,13.5247158 7.4962,13.552 C7.60004706,14.6592842 8.91125883,15.9552842 9.27871765,16.144 C9.27871765,16.9272842 9.3049647,17.5207158 9.22622354,18.3847158 C8.3349647,20.8687158 2.48871766,19.5727158 2.2,25 L21.6,25 C21.4425176,19.492 15.4650353,20.8687158 14.5737765,18.3574316 Z" id="路径" fill="#B3B7DE" mask="url(#mask-2)"></path>
                    </g>
                </g>
            </g>
        </g>
    </g>
</svg>