<?xml version="1.0" encoding="UTF-8"?>
<svg width="16px" height="16px" viewBox="0 0 16 16" version="1.1" xmlns="http://www.w3.org/2000/svg" xmlns:xlink="http://www.w3.org/1999/xlink">
    <title>pingtaiguanli-2</title>
    <g id="视觉规范" stroke="none" stroke-width="1" fill="none" fill-rule="evenodd">
        <g id="亮色主题视觉规范" transform="translate(-69.000000, -4016.000000)" fill="#ACB3CB" fill-rule="nonzero">
            <g id="pingtaiguanli-2" transform="translate(69.000000, 4016.000000)">
                <path d="M15.8329127,13.4638216 L15.3283271,13.1746079 C15.5003952,12.6699275 15.5003952,12.1224571 15.3283271,11.6177766 L15.8329127,11.3224094 C15.9090488,11.2809962 15.9651288,11.2104696 15.9883255,11.1269612 C16.0115223,11.0434528 15.9998514,10.9541065 15.9559824,10.8793586 L15.6298478,10.3070847 C15.5366595,10.1526576 15.3372937,10.1007679 15.1806435,10.1901685 L14.6822113,10.4793822 C14.3164719,10.0928839 13.8460464,9.82132006 13.328445,9.6978898 L13.328445,9.11946237 C13.3250905,8.93835225 13.1772981,8.79332774 12.9961569,8.79332774 L12.3438877,8.79332774 C12.2573914,8.79332774 12.1744378,8.82768826 12.1132757,8.88885036 C12.0521135,8.95001247 12.017753,9.03296608 12.017753,9.11946237 L12.017753,9.6978898 C11.4999476,9.8147253 11.0273908,10.0798703 10.6578332,10.4609217 L10.1594011,10.171708 C10.0027508,10.0823074 9.80338503,10.1341972 9.71019677,10.2886242 L9.38406216,10.8608982 C9.29628512,11.0172989 9.35126514,11.215227 9.50713182,11.303949 L10.0117174,11.5993162 C9.83964935,12.1039966 9.83964935,12.651467 10.0117174,13.1561475 L9.50713182,13.4453612 C9.35047471,13.536481 9.29572333,13.7363235 9.38406216,13.8945655 L9.71019677,14.4606859 C9.80131656,14.6173431 10.0011591,14.6720944 10.1594011,14.5837556 L10.6578332,14.2945419 C11.0265656,14.6803829 11.4987323,14.9517186 12.017753,15.0760343 L12.017753,15.6544617 C12.017753,15.740958 12.0521135,15.8239116 12.1132756,15.8850737 C12.1744378,15.9462358 12.2573914,15.9805963 12.3438877,15.9805963 L12.9961569,15.9805963 C13.1772981,15.9805963 13.3250905,15.8355718 13.328445,15.6544617 L13.328445,15.0760343 C13.8449985,14.9499813 14.3147248,14.6788211 14.6822113,14.2945419 L15.1806435,14.5837556 C15.3388855,14.6720944 15.538728,14.6173431 15.6298478,14.4606859 L15.9559824,13.8945655 C16.035659,13.7410646 15.9816575,13.5520593 15.8329127,13.4638216 L15.8329127,13.4638216 Z M12.6700223,14.0361072 C12.0049446,14.0385865 11.4039685,13.6398705 11.1477264,13.0261323 C10.8914843,12.4123941 11.0305277,11.7047122 11.4999288,11.2335464 C11.9693299,10.7623807 12.6764851,10.6206827 13.2911805,10.8746201 C13.9058759,11.1285574 14.3068489,11.7280332 14.3068489,12.3931155 C14.3068489,13.2981107 13.5750111,14.0327061 12.6700223,14.0361072 Z" id="形状"></path>
                <path d="M12.8792407,7.05804543 L12.8792407,1.84604501 C12.8792407,1.50619751 12.6037399,1.23069668 12.2638924,1.23069668 L1.84604501,1.23069668 C1.50619751,1.23069668 1.23069668,1.50619751 1.23069668,1.84604501 L1.23069668,9.47021092 C1.23069668,9.81005842 1.50619751,10.0855593 1.84604501,10.0855593 L7.93799355,10.0855593 C8.10119408,10.0855592 8.25771034,10.1503904 8.37311054,10.2657906 C8.48851074,10.3811908 8.5533419,10.5377071 8.5533419,10.7009076 C8.5533419,10.8641081 8.48851074,11.0206244 8.37311054,11.1360246 C8.25771034,11.2514248 8.10119408,11.3162559 7.93799355,11.3162559 L1.84604501,11.3162559 C0.826502504,11.3162559 0,10.4897534 0,9.47021092 L0,1.84604501 C0,0.826502504 0.826502504,0 1.84604501,0 L12.2638924,0 C13.2834349,0 14.1099374,0.826502504 14.1099374,1.84604501 L14.1099374,7.05804543 C14.1099374,7.22124596 14.0451062,7.37776222 13.929706,7.49316242 C13.8143058,7.60856262 13.6577896,7.67339378 13.494589,7.67339377 C13.3313885,7.67339377 13.1748723,7.60856262 13.0594721,7.49316241 C12.9440719,7.37776221 12.8792407,7.22124595 12.8792407,7.05804543 L12.8792407,7.05804543 Z M8.91024393,13.9253329 C8.91024394,14.0885334 8.84541278,14.2450497 8.73001258,14.3604499 C8.61461238,14.4758501 8.45809612,14.5406812 8.29489559,14.5406812 L2.46139336,14.5406812 C2.12154585,14.5406812 1.84604502,14.2651804 1.84604502,13.9253329 C1.84604502,13.5854854 2.12154585,13.3099845 2.46139336,13.3099845 L8.31950953,13.3099845 C8.65935703,13.3099845 8.93485786,13.5854854 8.93485786,13.9253329 L8.91024393,13.9253329 Z" id="形状"></path>
                <path d="M7.93799355,4.41204758 L3.16289045,4.41204758 C2.82304296,4.41204758 2.54754212,4.13654674 2.54754212,3.79669924 C2.54754212,3.45685175 2.82304296,3.18135091 3.16289045,3.18135091 L7.93799355,3.18135091 C8.27784105,3.18135091 8.55334188,3.45685175 8.55334188,3.79669924 C8.55334188,4.13654674 8.27784105,4.41204758 7.93799355,4.41204758 L7.93799355,4.41204758 Z M10.9470469,8.13490502 L3.16289045,8.13490502 C2.82304296,8.13490502 2.54754212,7.85940419 2.54754212,7.51955669 C2.54754212,7.17970919 2.82304296,6.90420836 3.16289045,6.90420836 L10.9470469,6.90420836 C11.2868944,6.90420836 11.5623953,7.17970919 11.5623953,7.51955669 C11.5623953,7.85940419 11.2868944,8.13490502 10.9470469,8.13490502 Z" id="形状"></path>
            </g>
        </g>
    </g>
</svg>