<svg t="1682580719718" class="icon" viewBox="0 0 1024 1024" version="1.1" xmlns="http://www.w3.org/2000/svg" p-id="4207" width="128" height="128"><path d="M853.333333 64a21.333333 21.333333 0 0 1 21.333334 21.333333v426.666667h-42.666667V106.666667H128v810.666666h384v42.666667H106.666667a21.333333 21.333333 0 0 1-21.333334-21.333333V85.333333a21.333333 21.333333 0 0 1 21.333334-21.333333h746.666666zM490.666667 661.333333a21.333333 21.333333 0 0 1 0 42.666667H213.333333a21.333333 21.333333 0 0 1 0-42.666667h277.333334z m0-149.333333a21.333333 21.333333 0 0 1 0 42.666667H213.333333a21.333333 21.333333 0 0 1 0-42.666667h277.333334z m256-149.333333a21.333333 21.333333 0 0 1 0 42.666666H213.333333a21.333333 21.333333 0 0 1 0-42.666666h533.333334z m0-149.333334a21.333333 21.333333 0 0 1 0 42.666667H213.333333a21.333333 21.333333 0 1 1 0-42.666667h533.333334z" fill="#cdcdcd" p-id="4208"></path><path d="M589.034667 784.448l-0.917334 2.261333a21.333333 21.333333 0 0 0 20.224 28.16l96.896-0.021333v156.202667c0 22.528 30.421333 29.674667 40.448 9.493333l137.749334-276.949333 0.981333-2.261334a21.333333 21.333333 0 0 0-20.053333-28.586666H766.933333v-171.029334c0-22.784-30.933333-29.696-40.618666-9.088l-137.28 291.84z m135.232-187.285333v96.917333l0.170666 2.496a21.333333 21.333333 0 0 0 21.184 18.837333h84.266667l-81.984 164.842667v-86.72l-0.128-2.496a21.333333 21.333333 0 0 0-21.184-18.837333l-84.650667-0.021334 82.325334-175.018666z" fill="#B2BBDC" p-id="4209"></path></svg>