<svg t="1677228670097" class="icon" viewBox="0 0 1024 1024" version="1.1" xmlns="http://www.w3.org/2000/svg" p-id="4000" width="128" height="128"><path d="M512.34133333 931.38488889c-49.94844445 0-98.87288889-8.64711111-145.29422222-25.82755556-44.94222222-16.61155555-86.35733333-40.61866667-123.22133333-71.45244444-74.29688889-61.89511111-125.15555555-148.02488889-143.24622223-242.34666667l71.45244445-13.76711111c31.28888889 162.58844445 174.42133333 280.576 340.30933333 280.576 70.08711111 0 137.55733333-20.82133333 195.12888889-60.07466666 56.32-38.45688889 99.66933333-91.93244445 125.49688889-154.73777778l67.35644444 27.648c-31.28888889 76.00355555-83.74044445 140.74311111-151.77955555 187.16444444-69.85955555 47.67288889-151.43822222 72.81777778-236.20266667 72.81777778zM846.848 421.43288889C827.392 349.29777778 783.92888889 284.33066667 724.65066667 238.13688889c-61.21244445-47.55911111-134.59911111-72.704-212.30933334-72.704-69.97333333 0-137.44355555 20.70755555-194.90133333 59.96088889-56.32 38.57066667-99.78311111 91.93244445-125.61066667 154.624l-67.35644444-27.76177778c31.28888889-75.88977778 83.74044445-140.40177778 151.77955556-186.82311111 69.74577778-47.55911111 151.32444445-72.704 235.9751111-72.704 47.33155555 0 93.86666667 7.85066667 138.12622223 23.32444444 42.89422222 14.90488889 82.83022222 36.75022222 118.784 64.62577778 35.61244445 27.648 66.33244445 60.64355555 91.47733333 98.07644444 25.48622222 38.00177778 44.48711111 79.64444445 56.32 123.67644445l-70.08711111 19.00088889z" p-id="4001" fill="#757FFF"></path><path d="M30.26488889 669.35466667l93.52533333-162.58844445 162.58844445 93.52533333M997.71733333 345.20177778l-83.28533333 168.16355555-168.16355555-83.17155555" p-id="4002" fill="#757FFF"></path></svg>