<?xml version="1.0" encoding="UTF-8"?>
<svg width="20px" height="20px" viewBox="0 0 20 20" version="1.1" xmlns="http://www.w3.org/2000/svg" xmlns:xlink="http://www.w3.org/1999/xlink">
    <title>形状结合</title>
    <g id="平台管理" stroke="none" stroke-width="1" fill="none" fill-rule="evenodd">
        <g id="企业管理1280" transform="translate(-1046.000000, -22.000000)" fill="#ACB3CB" fill-rule="nonzero" stroke="#ACB3CB" stroke-width="0.2">
            <g id="编组-10" transform="translate(719.000000, 16.000000)">
                <g id="编组" transform="translate(292.000000, 4.000000)">
                    <path d="M51.0138863,3 C52.6624601,3.00171364 53.9984265,4.33779355 54,5.98636748 L54,13.4583976 C54,13.8330234 53.6963058,14.1367176 53.32168,14.1367176 C52.9470542,14.1367176 52.64336,13.8330234 52.64336,13.4583976 L52.64336,5.98636748 C52.6423926,5.08698684 51.9135418,4.35813606 51.0141612,4.3571687 L38.9862406,4.3571687 C38.0869095,4.35820597 37.3581359,5.08703631 37.3571687,5.98636748 L37.3571687,18.0140343 C37.3582173,18.9133317 38.0869433,19.6421144 38.9862406,19.6432331 L51.0138863,19.6432331 C51.9132414,19.642196 52.6420574,18.9133894 52.6431062,18.0140343 L52.6431062,17.031203 C52.6417481,16.7879641 52.7707353,16.5626187 52.9811629,16.4406055 C53.1915905,16.3185923 53.4512408,16.3185923 53.6616684,16.4406055 C53.872096,16.5626187 54.0010832,16.7879641 53.9997251,17.031203 L53.9997251,18.0140343 C53.9979304,19.6623441 52.662196,20.9981353 51.0138863,21 L38.9862406,21 C37.3377162,20.9983565 36.0017135,19.6624106 36,18.0138863 L36,5.98636748 C36.0015737,4.33774407 37.3376173,3.00164371 38.9862406,3 L51.0138863,3 Z M43.5789474,9.08935828 C43.8213356,9.08609204 44.0467503,9.21349713 44.1689159,9.42287412 C44.2910815,9.63225112 44.2910815,9.89117933 44.1689159,10.1005563 C44.0467503,10.3099333 43.8213356,10.4373384 43.5789474,10.4340085 L43.5789474,10.4340085 L40.7368421,10.4340085 L40.7368421,11.8233835 L43.5789474,11.8233835 C43.8213356,11.8200535 44.0467503,11.9474586 44.1689159,12.1568356 C44.2910815,12.3662126 44.2910815,12.6251408 44.1689159,12.8345178 C44.0467503,13.0438948 43.8213356,13.1712999 43.5789474,13.1679699 L43.5789474,13.1679699 L40.7368421,13.1679699 L40.7368421,14.3780216 L43.5789474,14.3780216 C43.8213356,14.3746917 44.0467503,14.5020968 44.1689159,14.7114737 C44.2910815,14.9208507 44.2910815,15.179779 44.1689159,15.389156 C44.0467503,15.5985329 43.8213356,15.725938 43.5789474,15.7226718 L43.5789474,15.7226718 L40.3251386,15.7226718 C39.8070314,15.7237326 39.3857777,15.3052696 39.3834586,14.7871664 L39.3834586,14.7871664 L39.3834586,10.0248637 C39.3857777,9.50676046 39.8070314,9.08829745 40.3251386,9.08935828 L40.3251386,9.08935828 Z M49.7814403,9.06960202 C50.152518,9.06960202 50.4547493,9.36772817 50.4598238,9.73877115 L50.4598238,14.6228571 C50.4598238,14.9431079 50.2526866,15.2265821 49.9475786,15.3238942 C49.6424706,15.4212063 49.3094589,15.3100077 49.1240343,15.048898 L46.8638628,11.8658882 L46.8638628,14.8936607 C46.8638746,15.2681007 46.5605324,15.5717553 46.1860926,15.5721288 C45.8114674,15.5728623 45.5077937,15.2691318 45.5077937,14.8944854 L45.5077937,9.91849624 C45.5077937,9.59797896 45.7152245,9.3143176 46.0206746,9.21720141 C46.3261247,9.12008523 46.6593017,9.23185681 46.8443867,9.49353383 L49.1030569,12.6756133 L49.1030569,9.73877115 C49.1081314,9.36772817 49.4103626,9.06960202 49.7814403,9.06960202 Z" id="形状结合"></path>
                </g>
            </g>
        </g>
    </g>
</svg>