<?xml version="1.0" encoding="UTF-8"?>
<svg width="12px" height="12px" viewBox="0 0 12 12" version="1.1" xmlns="http://www.w3.org/2000/svg" xmlns:xlink="http://www.w3.org/1999/xlink">
    <title>juxingshutu</title>
    <g id="布局/组件使用规范" stroke="none" stroke-width="1" fill="none" fill-rule="evenodd">
        <g id="仪表盘使用规范" transform="translate(-1425.000000, -899.000000)" fill="#757FFF" fill-rule="nonzero">
            <g id="编组-8备份-6" transform="translate(1418.000000, 890.000000)">
                <g id="juxingshutu" transform="translate(7.000000, 9.000000)">
                    <path d="M6.703125,6.703125 L0,6.703125 L0,1.58203125 C0,0.71015625 0.71015625,0 1.58203125,0 L6.703125,0 L6.703125,6.703125 Z M1.0546875,5.6484375 L5.6484375,5.6484375 L5.6484375,1.0546875 L1.58203125,1.0546875 C1.29140625,1.0546875 1.0546875,1.29140625 1.0546875,1.58203125 L1.0546875,5.6484375 Z M6.703125,12 L1.58203125,12 C0.71015625,12 0,11.2898437 0,10.4179688 L0,7.7578125 L6.703125,7.7578125 L6.703125,12 Z M1.0546875,8.8125 L1.0546875,10.4179688 C1.0546875,10.7085937 1.29140625,10.9453125 1.58203125,10.9453125 L5.6484375,10.9453125 L5.6484375,8.8125 L1.0546875,8.8125 Z M10.4179688,12 L7.7578125,12 L7.7578125,5.296875 L12,5.296875 L12,10.4179688 C12,11.2898437 11.2898437,12 10.4179688,12 Z M8.8125,10.9453125 L10.4179688,10.9453125 C10.7085937,10.9453125 10.9453125,10.7085937 10.9453125,10.4179688 L10.9453125,6.3515625 L8.8125,6.3515625 L8.8125,10.9453125 Z M12,4.2421875 L7.7578125,4.2421875 L7.7578125,0 L10.4179688,0 C11.2898437,0 12,0.71015625 12,1.58203125 L12,4.2421875 Z M8.8125,3.1875 L10.9453125,3.1875 L10.9453125,1.58203125 C10.9453125,1.29140625 10.7085937,1.0546875 10.4179688,1.0546875 L8.8125,1.0546875 L8.8125,3.1875 Z" id="形状"></path>
                </g>
            </g>
        </g>
    </g>
</svg>