<svg t="1682580222938" class="icon" viewBox="0 0 1024 1024" version="1.1" xmlns="http://www.w3.org/2000/svg" p-id="2390" width="128" height="128"><path d="M409.6 1012.622222c28.444444 17.066667 51.2 5.688889 51.2-28.444444l0-398.222222c0-34.133333-22.755556-68.266667-51.2-85.333333L79.644444 295.822222C51.2 284.444444 28.444444 295.822222 28.444444 324.266667l0 398.222222c0 34.133333 22.755556 68.266667 51.2 85.333333L409.6 1012.622222zM130.844444 170.666667c-28.444444 17.066667-28.444444 39.822222 0 56.888889l324.266667 204.8C483.555556 449.422222 523.377778 449.422222 551.822222 438.044444l324.266667-164.977778c28.444444-17.066667 28.444444-39.822222 0-56.888889l-341.333333-204.8C512-5.688889 466.488889-5.688889 438.044444 11.377778L130.844444 170.666667zM551.822222 984.177778c0 34.133333 22.755556 45.511111 51.2 28.444444l324.266667-164.977778c28.444444-17.066667 51.2-51.2 51.2-85.333333l0-398.222222c0-34.133333-22.755556-45.511111-51.2-28.444444l-324.266667 164.977778c-28.444444 17.066667-51.2 51.2-51.2 85.333333L551.822222 984.177778z" p-id="2391" fill="#B2BBDC"></path></svg>