<svg t="1682061908486" class="icon" viewBox="0 0 1024 1024" version="1.1" xmlns="http://www.w3.org/2000/svg" p-id="1542" width="128" height="128"><path d="M513.3 562.3c-10.3 0-20.6-2.6-29.9-7.9L249.2 436.3l-0.9-0.5c-18.6-11-29.6-30.5-29.6-52.1s11.1-41.1 29.6-52.1l1.5-0.9 234.3-104.1c18.2-10 40.2-10 58.4 0l234.3 104.1 1.5 0.9c18.6 11 29.6 30.5 29.6 52.1s-11.1 41.1-29.6 52.1l-0.9 0.5-234.2 118.1c-9.2 5.3-19.6 7.9-29.9 7.9zM278.6 384L512 501.7l0.9 0.5c0.2 0.1 0.5 0.1 0.7 0l0.9-0.5 0.9-0.5L748 384c0-0.1 0.1-0.2 0.1-0.4v-0.2L515.2 279.9l-1.5-0.9c-0.2-0.1-0.5-0.1-0.7 0l-1.5 0.9-1.6 0.7-231.3 102.8V384z" fill="#757FFF" p-id="1543"></path><path d="M513.3 684c-10.5 0-20.9-2.7-30.3-8.1L232.5 541.2l28.4-52.8 251.5 135.3 0.6 0.3c0.2 0.1 0.5 0.1 0.7 0l1.1-0.6L766.1 488l28.4 52.7-250.8 135.2c-9.4 5.4-19.9 8.1-30.4 8.1z" fill="#757FFF" p-id="1544"></path><path d="M513.3 807.4c-10.5 0-20.9-2.7-30.3-8.1L232.5 664.5l28.4-52.8L512.4 747l0.6 0.3c0.2 0.1 0.5 0.1 0.7 0l1.1-0.6 251.3-135.3 28.4 52.7-250.8 135.1c-9.4 5.4-19.9 8.2-30.4 8.2z" fill="#757FFF" p-id="1545"></path><path d="M246.1 514.4m-30 0a30 30 0 1 0 60 0 30 30 0 1 0-60 0Z" fill="#757FFF" p-id="1546"></path><path d="M780.3 514.4m-30 0a30 30 0 1 0 60 0 30 30 0 1 0-60 0Z" fill="#757FFF" p-id="1547"></path><path d="M246.1 637.8m-30 0a30 30 0 1 0 60 0 30 30 0 1 0-60 0Z" fill="#757FFF" p-id="1548"></path><path d="M780.3 637.8m-30 0a30 30 0 1 0 60 0 30 30 0 1 0-60 0Z" fill="#757FFF" p-id="1549"></path><path d="M166.7 300.3h-68V196.7c0-54 44-98 98-98h103.4v68H196.7c-16.5 0-30 13.5-30 30v103.6zM300.1 927.7H196.7c-54 0-98-44-98-98V723.9h68v105.8c0 16.5 13.5 30 30 30h103.4v68zM829.7 927.7h-108v-68h108c16.5 0 30-13.5 30-30V723.9h68v105.8c0 54-44 98-98 98zM927.7 300.3h-68V196.7c0-16.5-13.5-30-30-30H724.1v-68h105.5c54 0 98 44 98 98v103.6h0.1z" fill="#757FFF" p-id="1550"></path></svg>