<?xml version="1.0" encoding="UTF-8"?>
<svg width="12px" height="14px" viewBox="0 0 12 14" version="1.1" xmlns="http://www.w3.org/2000/svg" xmlns:xlink="http://www.w3.org/1999/xlink">
    <title>meiguitu</title>
    <g id="布局/组件使用规范" stroke="none" stroke-width="1" fill="none" fill-rule="evenodd">
        <g id="仪表盘使用规范" transform="translate(-1425.000000, -779.000000)" fill="#757FFF" fill-rule="nonzero">
            <g id="编组-8备份-6" transform="translate(1418.000000, 770.000000)">
                <g id="meiguitu" transform="translate(7.000000, 9.000000)">
                    <path d="M4.60311392,0 C7.82759522,0 10.6982121,1.93791095 11.9531361,4.86664219 C12.0681629,5.13420258 11.9651321,5.44551861 11.7131988,5.59163263 L11.6533583,5.62155286 L10.62111,6.07035647 C10.8265239,6.70098308 10.9323956,7.36498226 10.9323956,8.04394157 C10.9323956,10.0606809 9.99105875,11.922065 8.4219723,13.1165731 C8.19034666,13.2928736 7.86354024,13.2684187 7.66073233,13.0596096 L7.61355042,13.0043722 L6.90582166,12.0647616 C6.21098814,12.4551862 5.42716643,12.6597131 4.63015721,12.6585633 C2.07370282,12.6585633 0,10.5986698 0,8.05544935 C0,5.71534131 1.75551257,3.78433502 4.02772468,3.49088652 L4.02772468,0.575389244 C4.02772468,0.422786528 4.08834587,0.276434023 4.19625229,0.168527608 C4.3041587,0.0606211927 4.45051121,0 4.60311392,0 Z M9.5716,6.5720959 L5.76137246,8.17973342 L5.50762581,8.28963278 L8.1653487,11.8236735 L8.24360164,11.7488729 C9.14211905,10.8566593 9.68462181,9.66753087 9.7695339,8.40413522 L9.77874012,8.22058607 L9.78161708,8.04394157 C9.78161708,7.61239964 9.72983205,7.18833777 9.62683736,6.77693446 L9.5716,6.5720959 L9.5716,6.5720959 Z M1.15077849,8.05544935 C1.15077849,9.96113851 2.70778177,11.5077848 4.63015721,11.5077848 C5.18713399,11.5077848 5.72397215,11.3777468 6.20672373,11.1337818 L4.19976606,8.46627726 C4.08903928,8.35835884 4.0269389,8.2100656 4.02772468,8.05544935 L4.02772468,4.65489894 C2.39246846,4.93799045 1.15077849,6.35344798 1.15077849,8.05544935 L1.15077849,8.05544935 Z M5.17850315,1.17494482 L5.17850315,3.85395712 C5.21420324,3.96685536 5.21420324,4.08801859 5.17850315,4.20091683 L5.17850315,7.1762546 L5.25272837,7.14518358 L9.58656012,5.26366077 C9.63259126,5.23604208 9.68207474,5.21475268 9.73328438,5.19921717 L10.6481533,4.80334937 L10.5848604,4.68539458 C9.53841845,2.79316228 7.66028563,1.50581164 5.51798281,1.21234513 L5.31602119,1.18760339 L5.17850315,1.17494482 Z" id="形状"></path>
                </g>
            </g>
        </g>
    </g>
</svg>