<?xml version="1.0" encoding="UTF-8"?>
<svg width="14px" height="12px" viewBox="0 0 14 12" version="1.1" xmlns="http://www.w3.org/2000/svg" xmlns:xlink="http://www.w3.org/1999/xlink">
    <title>形状</title>
    <g id="布局/组件使用规范" stroke="none" stroke-width="1" fill="none" fill-rule="evenodd">
        <g id="仪表盘使用规范" transform="translate(-1424.000000, -204.000000)" fill="#757FFF" fill-rule="nonzero" stroke="#757FFF" stroke-width="0.5">
            <g id="编组-8备份-5" transform="translate(1418.000000, 195.000000)">
                <path d="M18.5557627,19.2955508 L7.88847902,19.2955508 L7.88847902,10.8508508 C7.88847902,10.6055053 7.68958719,10.4066135 7.44424169,10.4066135 C7.1988962,10.4066135 7.00000217,10.6055053 7.00000217,10.8508508 L7.00000217,19.7397881 C6.99963311,19.8578491 7.0462726,19.9712018 7.12962353,20.0548148 C7.21297447,20.1384279 7.32618019,20.1854224 7.44424169,20.1854224 L18.5557627,20.1854224 C18.7144734,20.1854224 18.8611281,20.1007513 18.9404835,19.9633038 C19.0198388,19.8258563 19.0198388,19.656514 18.9404835,19.5190665 C18.8611281,19.3816189 18.7144734,19.2969478 18.5557627,19.2969478 L18.5557627,19.2955508 Z M9.54109774,14.6287299 C9.64831719,14.6284815 9.75189897,14.5898242 9.83306503,14.519766 L12.3294553,12.3558553 L14.7532029,14.5155751 C14.9350261,14.6807105 15.2161869,14.6675897 15.3818406,14.4862387 L18.8519209,10.7479397 C19.0193422,10.568174 19.009335,10.2867233 18.8295693,10.119302 C18.6498036,9.9518807 18.3683529,9.96188783 18.2009316,10.1416536 L15.0200247,13.5628397 L12.6298044,11.4324563 C12.4618264,11.2841097 12.2096569,11.2841097 12.0416789,11.4324563 L9.25052741,13.854807 C9.10966721,13.9760679 9.05918761,14.1722019 9.12400499,14.3463986 C9.18882238,14.5205953 9.35523301,14.636026 9.54109774,14.6357154 L9.54109774,14.6287299 Z M9.54109774,17.6287299 C9.64831719,17.6284815 9.75189897,17.5898242 9.83306503,17.519766 L12.3294553,15.3558553 L14.7532029,17.5155751 C14.9350261,17.6807105 15.2161869,17.6675897 15.3818406,17.4862387 L18.8519209,13.7479397 C19.0193422,13.568174 19.009335,13.2867233 18.8295693,13.119302 C18.6498036,12.9518807 18.3683529,12.9618878 18.2009316,13.1416536 L15.0200247,16.5628397 L12.6298044,14.4324563 C12.4618264,14.2841097 12.2096569,14.2841097 12.0416789,14.4324563 L9.25052741,16.854807 C9.10966721,16.9760679 9.05918761,17.1722019 9.12400499,17.3463986 C9.18882238,17.5205953 9.35523301,17.636026 9.54109774,17.6357154 L9.54109774,17.6287299 Z" id="形状"></path>
            </g>
        </g>
    </g>
</svg>