<?xml version="1.0" encoding="UTF-8"?>
<svg width="14px" height="12px" viewBox="0 0 14 12" version="1.1" xmlns="http://www.w3.org/2000/svg" xmlns:xlink="http://www.w3.org/1999/xlink">
    <title>编组 6</title>
    <g id="布局/组件使用规范" stroke="none" stroke-width="1" fill="none" fill-rule="evenodd">
        <g id="仪表盘使用规范" transform="translate(-1424.000000, -480.000000)" fill="#757FFF" fill-rule="nonzero">
            <g id="编组-6" transform="translate(1425.000000, 481.000000)">
                <path d="M11.5557627,8.88893737 L0.888479016,8.88893737 L0.888479016,0.444237321 C0.888479016,0.198891824 0.689587193,0 0.444241695,0 C0.198896197,0 2.17375964e-06,0.198891824 2.17375964e-06,0.444237321 L2.17375964e-06,9.3331747 C-0.000366889911,9.45123562 0.0462726012,9.56458833 0.129623534,9.64820138 C0.212974466,9.73181442 0.32618019,9.77880899 0.444241695,9.77880899 L11.5557627,9.77880899 C11.7144734,9.77880899 11.8611281,9.69413785 11.9404835,9.55669034 C12.0198388,9.41924283 12.0198388,9.24990051 11.9404835,9.112453 C11.8611281,8.97500549 11.7144734,8.89033434 11.5557627,8.89033435 L11.5557627,8.88893737 Z" id="形状" stroke="#757FFF" stroke-width="0.5"></path>
                <rect id="矩形" x="2" y="4.97978794" width="2.5" height="1.5" rx="0.75"></rect>
                <rect id="矩形备份-5" x="8" y="1.97978794" width="4" height="1.5" rx="0.75"></rect>
                <rect id="矩形" x="6" y="4.97978794" width="5" height="1.5" rx="0.75"></rect>
                <rect id="矩形备份-7" x="2" y="1.97978794" width="5" height="1.5" rx="0.75"></rect>
            </g>
        </g>
    </g>
</svg>