<?xml version="1.0" encoding="UTF-8"?>
<svg width="14px" height="12px" viewBox="0 0 14 12" version="1.1" xmlns="http://www.w3.org/2000/svg" xmlns:xlink="http://www.w3.org/1999/xlink">
    <title>编组</title>
    <g id="布局/组件使用规范" stroke="none" stroke-width="1" fill="none" fill-rule="evenodd">
        <g id="仪表盘使用规范" transform="translate(-1424.000000, -264.000000)" fill="#757FFF" fill-rule="nonzero">
            <g id="编组-8备份-5" transform="translate(1418.000000, 255.000000)">
                <g id="编组" transform="translate(7.000000, 10.000000)">
                    <polygon id="路径-6" opacity="0.231198265" points="2.7025528 4.29601795 2.7025528 9.28159819 11.310463 9.28159819 11.310463 0.657570942 8.08650208 4.63350309 5.32945527 2.35585531"></polygon>
                    <path d="M11.5557627,9.29555083 L0.888479016,9.29555083 L0.888479016,0.850850775 C0.888479016,0.605505277 0.689587193,0.406613453 0.444241695,0.406613453 C0.198896197,0.406613453 2.17375964e-06,0.605505277 2.17375964e-06,0.850850775 L2.17375964e-06,9.73978815 C-0.000366889911,9.85784907 0.0462726012,9.97120179 0.129623534,10.0548148 C0.212974466,10.1384279 0.32618019,10.1854224 0.444241695,10.1854224 L11.5557627,10.1854224 C11.7144734,10.1854224 11.8611281,10.1007513 11.9404835,9.96330379 C12.0198388,9.82585628 12.0198388,9.65651397 11.9404835,9.51906646 C11.8611281,9.38161895 11.7144734,9.29694779 11.5557627,9.2969478 L11.5557627,9.29555083 Z M2.54109774,4.62872991 C2.64831719,4.62848151 2.75189897,4.58982419 2.83306503,4.51976605 L5.32945527,2.35585531 L7.75320293,4.51557513 C7.93502608,4.68071053 8.21618686,4.6675897 8.38184065,4.48623871 L11.8519209,0.747939719 C12.0193422,0.568173992 12.009335,0.286723297 11.8295693,0.119301998 C11.6498036,-0.0481193016 11.3683529,-0.0381121655 11.2009316,0.141653562 L8.02002471,3.56283973 L5.6298044,1.43245635 C5.46182639,1.28410967 5.2096569,1.28410967 5.04167889,1.43245635 L2.25052741,3.85480704 C2.10966721,3.9760679 2.05918761,4.17220189 2.12400499,4.34639862 C2.18882238,4.52059534 2.35523301,4.63602599 2.54109774,4.63571541 L2.54109774,4.62872991 Z M2.54109774,7.62872991 C2.64831719,7.62848151 2.75189897,7.58982419 2.83306503,7.51976605 L5.32945527,5.35585531 L7.75320293,7.51557513 C7.93502608,7.68071053 8.21618686,7.6675897 8.38184065,7.48623871 L11.8519209,3.74793972 C12.0193422,3.56817399 12.009335,3.2867233 11.8295693,3.119302 C11.6498036,2.9518807 11.3683529,2.96188783 11.2009316,3.14165356 L8.02002471,6.56283973 L5.6298044,4.43245635 C5.46182639,4.28410967 5.2096569,4.28410967 5.04167889,4.43245635 L2.25052741,6.85480704 C2.10966721,6.9760679 2.05918761,7.17220189 2.12400499,7.34639862 C2.18882238,7.52059534 2.35523301,7.63602599 2.54109774,7.63571541 L2.54109774,7.62872991 Z" id="形状" stroke="#757FFF" stroke-width="0.5"></path>
                </g>
            </g>
        </g>
    </g>
</svg>