<?xml version="1.0" encoding="UTF-8"?>
<svg width="14px" height="11px" viewBox="0 0 14 11" version="1.1" xmlns="http://www.w3.org/2000/svg" xmlns:xlink="http://www.w3.org/1999/xlink">
    <title>编组 13</title>
    <g id="布局/组件使用规范" stroke="none" stroke-width="1" fill="none" fill-rule="evenodd">
        <g id="仪表盘使用规范" transform="translate(-1424.000000, -359.000000)" fill="#757FFF" fill-rule="nonzero">
            <g id="编组-8备份-6" transform="translate(1418.000000, 349.000000)">
                <g id="编组-13" transform="translate(7.000000, 10.000000)">
                    <path d="M11.5557627,9.29706254 L0.888479016,9.29706254 L0.888479016,0.852362491 C0.888479016,0.607016993 0.689587193,0.408125169 0.444241695,0.408125169 C0.198896197,0.408125169 2.17375964e-06,0.607016993 2.17375964e-06,0.852362491 L2.17375964e-06,9.74129987 C-0.000366889911,9.85936079 0.0462726012,9.9727135 0.129623534,10.0563265 C0.212974466,10.1399396 0.32618019,10.1869342 0.444241695,10.1869342 L11.5557627,10.1869342 C11.7144734,10.1869342 11.8611281,10.102263 11.9404835,9.96481551 C12.0198388,9.827368 12.0198388,9.65802568 11.9404835,9.52057817 C11.8611281,9.38313066 11.7144734,9.29845951 11.5557627,9.29845952 L11.5557627,9.29706254 Z" id="形状" stroke="#757FFF" stroke-width="0.5"></path>
                    <path d="M2.61511032,2.08767952 C2.95564965,2.08767952 3.23022064,2.32199546 3.23022064,2.60922147 L3.23022064,7.47845805 C3.23022064,7.76719577 2.95386673,8 2.61511032,8 C2.27635391,8 2,7.76719577 2,7.47845805 L2,2.60922147 C2,2.32199546 2.27635391,2.08767952 2.61511032,2.08767952 Z" id="路径"></path>
                    <path d="M4.84533096,3.47996977 C5.18587029,3.47996977 5.46044127,3.71428571 5.46044127,4.00151172 L5.46044127,7.47996977 C5.46044127,7.76870748 5.18408736,8.00151172 4.84533096,8.00151172 C4.50657455,8.00151172 4.23022064,7.76870748 4.23022064,7.47996977 L4.23022064,4.00151172 C4.23022064,3.712774 4.50479162,3.47996977 4.84533096,3.47996977 Z" id="路径"></path>
                    <path d="M8.61511032,0 C8.95564965,0 9.23022064,0.317054462 9.23022064,0.705701867 L9.23022064,7.29429813 C9.23022064,7.68499105 8.95386673,8 8.61511032,8 C8.27635391,8 8,7.68499105 8,7.29429813 L8,0.705701867 C8,0.317054462 8.27635391,0 8.61511032,0 Z" id="路径"></path>
                    <path d="M10.845331,2.00151172 C11.1858703,2.00151172 11.4604413,2.31244451 11.4604413,2.69358794 L11.4604413,7.30943549 C11.4604413,7.69258494 11.1840874,8.00151172 10.845331,8.00151172 C10.5065745,8.00151172 10.2302206,7.69258494 10.2302206,7.30943549 L10.2302206,2.69358794 C10.2302206,2.3104385 10.5047916,2.00151172 10.845331,2.00151172 Z" id="路径"></path>
                </g>
            </g>
        </g>
    </g>
</svg>