<?xml version="1.0" encoding="UTF-8"?>
<svg width="12px" height="13px" viewBox="0 0 12 13" version="1.1" xmlns="http://www.w3.org/2000/svg" xmlns:xlink="http://www.w3.org/1999/xlink">
    <title>星形</title>
    <g id="页面-1" stroke="none" stroke-width="1" fill="none" fill-rule="evenodd">
        <g id="用户组管理1280-U4-导航" transform="translate(-380.000000, -100.000000)" fill="#ACB3CB" fill-rule="nonzero">
            <g id="编组-23" transform="translate(112.000000, 62.000000)">
                <g id="基础服务" transform="translate(170.000000, 30.000000)">
                    <path d="M104.544632,8.99742789 C104.662168,9.07375524 104.762348,9.17393548 104.838675,9.29147154 L106.400321,11.6962414 L109.169968,12.43834 C109.703436,12.5812772 110.020023,13.1296114 109.877086,13.6630787 C109.840815,13.7984486 109.776495,13.9246831 109.688298,14.0335953 L107.883801,16.2619235 L108.033891,19.1253355 C108.062801,19.6768631 107.639135,20.1474001 107.087607,20.1763093 C106.947654,20.1836452 106.807722,20.1614821 106.676886,20.1112575 L104,19.0836703 L101.323114,20.1112575 C100.807513,20.3091832 100.229086,20.0516569 100.03116,19.5360564 C99.9809358,19.4052203 99.9587727,19.2652883 99.9661086,19.1253355 L100.116199,16.2619235 L98.3117019,14.0335953 C97.9641341,13.6043925 98.0303123,12.9746955 98.4595151,12.6271277 C98.5684274,12.5389307 98.6946619,12.474611 98.8300317,12.43834 L101.599679,11.6962414 L103.161325,9.29147154 C103.462116,8.82828394 104.081444,8.69663612 104.544632,8.99742789 Z M105.770716,12.5628188 L104,9.83610323 L102.229284,12.5628188 L99.0888423,13.4042681 L101.134922,15.9309204 L100.964738,19.1776802 L104,18.0125217 L107.035262,19.1776802 L106.865078,15.9309204 L108.911158,13.4042681 L105.770716,12.5628188 Z" id="星形"></path>
                </g>
            </g>
        </g>
    </g>
</svg>