<?xml version="1.0" encoding="UTF-8"?>
<svg width="12px" height="12px" viewBox="0 0 12 12" version="1.1" xmlns="http://www.w3.org/2000/svg" xmlns:xlink="http://www.w3.org/1999/xlink">
    <title>xuritu</title>
    <g id="布局/组件使用规范" stroke="none" stroke-width="1" fill="none" fill-rule="evenodd">
        <g id="仪表盘使用规范" transform="translate(-1425.000000, -839.000000)" fill="#757FFF" fill-rule="nonzero">
            <g id="编组-8备份-6" transform="translate(1418.000000, 830.000000)">
                <g id="xuritu" transform="translate(7.000000, 9.000000)">
                    <path d="M8.015625,11.5154865 C7.80585937,11.5154865 7.6078125,11.388924 7.52578125,11.182674 C7.41796875,10.9119708 7.5515625,10.6049396 7.82226562,10.498299 C8.521875,10.2205646 9.16054687,9.77759583 9.66796875,9.2162677 C9.86367188,9.0006427 10.1964844,8.98423645 10.4132813,9.1787677 C10.6289062,9.37447083 10.6453125,9.70728333 10.4507813,9.9240802 C9.83554688,10.6037677 9.0609375,11.1416583 8.21132812,11.4779865 C8.14570312,11.5037677 8.08007812,11.5154865 8.015625,11.5154865 L8.015625,11.5154865 Z M10.9546875,8.75103333 C10.8796875,8.75103333 10.8035156,8.73462708 10.7308594,8.7006427 C10.4671875,8.57642395 10.3535156,8.26236145 10.4777344,7.99868958 C10.7882813,7.34009583 10.9453125,6.6334552 10.9453125,5.89868958 C10.9453125,5.31040833 10.8433594,4.7350177 10.6417969,4.18775208 C10.4472656,3.65923645 10.1648438,3.17173645 9.80273438,2.73697083 C9.075,1.86275208 8.0625,1.2615802 6.95390625,1.04478333 C6.66796875,0.989705202 6.48164063,0.711970827 6.53671875,0.426033327 C6.59296875,0.140095827 6.86953125,-0.046232298 7.15546875,0.010017702 C8.50195312,0.272517702 9.73007813,1.00142395 10.6125,2.06197083 C11.0519531,2.58931458 11.3941406,3.18228333 11.6308594,3.82329895 C11.8757812,4.4865802 12,5.1850177 12,5.89868958 C12,6.78931458 11.8089844,7.64712708 11.4328125,8.44868958 C11.3425781,8.6397052 11.1527344,8.75103333 10.9546875,8.75103333 Z M1.4625,9.48579895 C1.29375,9.48579895 1.12734375,9.40493958 1.02539063,9.2537677 C0.35390625,8.26118958 0,7.10103333 0,5.89868958 C0,5.1897052 0.123046875,4.4959552 0.364453125,3.83618958 C0.59765625,3.19868958 0.936328125,2.60806458 1.37109375,2.0818927 C2.24179688,1.02603333 3.45703125,0.293611452 4.79179688,0.020564577 C5.07773438,-0.038029173 5.35546875,0.145955202 5.4140625,0.431892702 C5.47265625,0.716658327 5.28867188,0.995564577 5.00273438,1.05415833 C3.90351562,1.27915833 2.90273438,1.88267395 2.18320312,2.75337708 C1.82578125,3.18697083 1.546875,3.67329895 1.35351562,4.19829895 C1.15546875,4.74204895 1.0546875,5.31392395 1.0546875,5.89868958 C1.0546875,6.89009583 1.34648438,7.84517395 1.8984375,8.6631427 C2.06132813,8.90454895 1.99804688,9.23267395 1.75664063,9.39556458 C1.66640625,9.45650208 1.56445312,9.48579895 1.4625,9.48579895 Z M6,11.8986896 C4.8,11.8986896 3.64101563,11.5459552 2.64960937,10.8768146 C2.40820312,10.713924 2.34375,10.385799 2.50664063,10.1443927 C2.66953125,9.90298645 2.99765625,9.8397052 3.2390625,10.001424 C4.05585938,10.5522052 5.00976563,10.8428302 6,10.8428302 C6.29179688,10.8428302 6.52734375,11.0783771 6.52734375,11.370174 C6.52734375,11.6619708 6.29179688,11.8986896 6,11.8986896 L6,11.8986896 Z" id="形状"></path>
                    <path d="M6,9.71900208 C5.40351563,9.71900208 4.83164063,9.58540833 4.30078125,9.32056458 C4.03945313,9.19048645 3.93398438,8.8740802 4.06289063,8.61392395 C4.19296875,8.35259583 4.509375,8.24712708 4.76953125,8.37603333 C5.15273438,8.56704895 5.56640625,8.6631427 5.99882813,8.6631427 C6.73710938,8.6631427 7.43203125,8.37603333 7.9546875,7.85337708 C8.47851562,7.3318927 8.765625,6.63697083 8.765625,5.89868958 C8.765625,4.71040833 8.00976562,3.65806458 6.8859375,3.27837708 C6.61054688,3.18462708 6.46171875,2.88579895 6.55546875,2.61040833 C6.64921875,2.3350177 6.94804688,2.18618958 7.2234375,2.27993958 C7.97460938,2.53306458 8.61914062,3.00767395 9.08789062,3.64986145 C9.5671875,4.30611145 9.8203125,5.08423645 9.8203125,5.89986145 C9.8203125,6.41548645 9.71953125,6.91587708 9.5203125,7.38697083 C9.328125,7.84165833 9.05273438,8.2506427 8.70234375,8.60103333 C8.35195313,8.95142395 7.94296875,9.22681458 7.48828125,9.41900208 C7.01601563,9.61822083 6.515625,9.71900208 6,9.71900208 Z M3.046875,7.88267395 C2.85234375,7.88267395 2.66601562,7.77486145 2.5734375,7.58853333 C2.31210938,7.0600177 2.1796875,6.49165833 2.1796875,5.89868958 C2.1796875,5.08306458 2.4328125,4.30611145 2.91210938,3.64868958 C3.38085938,3.00650208 4.02539062,2.5318927 4.7765625,2.2787677 C5.05195313,2.1850177 5.35195313,2.33384583 5.44453125,2.60923645 C5.53828125,2.88462708 5.38945313,3.18462708 5.1140625,3.2772052 C3.99023438,3.65806458 3.234375,4.71040833 3.234375,5.89868958 C3.234375,6.3287677 3.33046875,6.74009583 3.51914063,7.12212708 C3.64804688,7.3834552 3.54140625,7.69986145 3.28007813,7.8287677 C3.20390625,7.86509583 3.12421875,7.88267395 3.046875,7.88267395 L3.046875,7.88267395 Z" id="形状"></path>
                    <path d="M6,7.64478333 C5.03671875,7.64478333 4.25390625,6.86197083 4.25390625,5.89868958 C4.25390625,4.93540833 5.03671875,4.15259583 6,4.15259583 C6.96328125,4.15259583 7.74609375,4.93540833 7.74609375,5.89868958 C7.74609375,6.86197083 6.96328125,7.64478333 6,7.64478333 Z M6,5.20728333 C5.61914062,5.20728333 5.30859375,5.5178302 5.30859375,5.89868958 C5.30859375,6.27954895 5.61914062,6.59009583 6,6.59009583 C6.38085938,6.59009583 6.69140625,6.27954895 6.69140625,5.89868958 C6.69140625,5.5178302 6.38085938,5.20728333 6,5.20728333 Z" id="形状"></path>
                </g>
            </g>
        </g>
    </g>
</svg>