<?xml version="1.0" encoding="UTF-8"?>
<svg width="16px" height="17px" viewBox="0 0 16 17" version="1.1" xmlns="http://www.w3.org/2000/svg" xmlns:xlink="http://www.w3.org/1999/xlink">
    <title>xitongguanli</title>
    <g id="视觉规范" stroke="none" stroke-width="1" fill="none" fill-rule="evenodd">
        <g id="亮色主题视觉规范" transform="translate(-69.000000, -3976.000000)" fill="#ACB3CB" fill-rule="nonzero">
            <g id="xitongguanli" transform="translate(69.000000, 3976.000000)">
                <path d="M15.9248826,7.71205008 C15.8247261,7.61189358 15.7245696,7.51173709 15.5242567,7.41158059 C15.3239437,7.41158059 15.0234742,7.21126761 14.8231612,7.01095462 C14.2222222,6.41001565 14.2222222,5.30829421 14.8231612,4.60719875 C15.0234742,4.40688576 15.0234742,4.00625978 14.8231612,3.80594679 L12.1189358,1.10172144 C12.0187793,1.10172144 11.9186228,1.00156495 11.7183099,1.00156495 C11.5179969,1.00156495 11.4178404,1.10172144 11.3176839,1.20187793 C10.7167449,1.8028169 9.61502347,1.8028169 8.91392801,1.20187793 C8.71361502,1.00156495 8.61345853,0.701095462 8.51330203,0.400625978 C8.51330203,0.300469484 8.41314554,0.100156495 8.21283255,0 L7.81220657,0 L4.20657277,1.00156495 C3.80594679,1.10172144 3.7057903,1.40219092 3.7057903,1.70266041 C3.90610329,2.30359937 3.7057903,2.90453834 3.30516432,3.30516432 C2.90453834,3.7057903 2.30359937,3.90610329 1.70266041,3.7057903 C1.40219092,3.7057903 1.10172144,3.80594679 1.00156495,4.20657277 L0,7.81220657 C0,7.91236307 0,8.11267606 0.100156495,8.21283255 C0.200312989,8.31298905 0.300469484,8.41314554 0.500782473,8.51330203 C0.701095462,8.61345853 1.00156495,8.71361502 1.20187793,8.91392801 C1.8028169,9.51486698 1.8028169,10.6165884 1.20187793,11.3176839 C1.10172144,11.4178404 1.00156495,11.6181534 1.00156495,11.7183099 C1.00156495,11.9186228 1.10172144,12.0187793 1.20187793,12.1189358 L3.90610329,14.8231612 C4.10641628,15.0234742 4.50704225,15.0234742 4.70735524,14.8231612 C5.30829421,14.2222222 6.41001565,14.2222222 7.11111111,14.8231612 C7.3114241,15.0234742 7.51173709,15.3239437 7.51173709,15.6244131 C7.51173709,15.8247261 7.61189358,15.9248826 7.81220657,16.0250391 L8.21283255,16.0250391 L11.8184664,15.0234742 C12.1189358,14.9233177 12.3192488,14.6228482 12.2190923,14.3223787 C12.0187793,13.7214397 12.2190923,13.1205008 12.6197183,12.7198748 C13.0203443,12.3192488 13.6212833,12.1189358 14.2222222,12.3192488 C14.5226917,12.4194053 14.8231612,12.2190923 14.9233177,11.9186228 L15.9248826,8.21283255 C16.0250391,8.01251956 16.0250391,7.91236307 15.9248826,7.71205008 Z M14.0219092,11.0172144 C13.2206573,11.0172144 12.4194053,11.3176839 11.8184664,11.8184664 C11.3176839,12.4194053 11.0172144,13.2206573 11.0172144,14.0219092 L8.41314554,14.7230047 C8.31298905,14.4225352 8.11267606,14.2222222 7.91236307,13.9217527 C7.41158059,13.4209703 6.71048513,13.1205008 5.90923318,13.1205008 C5.30829421,13.1205008 4.80751174,13.3208138 4.30672926,13.6212833 L2.40375587,11.7183099 C3.10485133,10.6165884 3.00469484,9.114241 2.00312989,8.11267606 C1.8028169,7.91236307 1.50234742,7.71205008 1.30203443,7.61189358 L2.00312989,5.00782473 C2.80438185,5.00782473 3.6056338,4.70735524 4.20657277,4.20657277 C4.70735524,3.6056338 5.00782473,2.80438185 5.00782473,2.00312989 L7.61189358,1.30203443 C7.71205008,1.50234742 7.91236307,1.8028169 8.11267606,2.00312989 C9.01408451,2.90453834 10.6165884,3.10485133 11.7183099,2.40375587 L13.6212833,4.30672926 C12.9201878,5.4084507 13.0203443,6.91079812 14.0219092,7.81220657 C14.2222222,8.01251956 14.5226917,8.21283255 14.7230047,8.31298905 L14.0219092,11.0172144 Z" id="形状"></path>
                <path d="M8.01251956,4.70735524 C6.20970266,4.70735524 4.70735524,6.20970266 4.70735524,8.01251956 C4.70735524,9.81533646 6.20970266,11.3176839 8.01251956,11.3176839 C9.81533646,11.3176839 11.3176839,9.81533646 11.3176839,8.01251956 C11.3176839,6.20970266 9.81533646,4.70735524 8.01251956,4.70735524 Z M8.01251956,10.1158059 C6.81064163,10.1158059 5.90923318,9.114241 5.90923318,8.01251956 C5.90923318,6.81064163 6.91079812,5.90923318 8.01251956,5.90923318 C9.114241,5.90923318 10.1158059,6.91079812 10.1158059,8.01251956 C10.1158059,9.2143975 9.2143975,10.1158059 8.01251956,10.1158059 Z" id="形状"></path>
            </g>
        </g>
    </g>
</svg>