<?xml version="1.0" encoding="UTF-8"?>
<svg width="24px" height="24px" viewBox="0 0 24 24" version="1.1" xmlns="http://www.w3.org/2000/svg" xmlns:xlink="http://www.w3.org/1999/xlink">
    <title>nvshengtouxiang</title>
    <g id="后台管理" stroke="none" stroke-width="1" fill="none" fill-rule="evenodd">
        <g id="菜单配置" transform="translate(-503.000000, -391.000000)" fill-rule="nonzero">
            <g id="编组-22" transform="translate(430.000000, 210.000000)">
                <g id="编组-23" transform="translate(34.000000, 175.000000)">
                    <g id="nvshengtouxiang" transform="translate(39.000000, 6.000000)">
                        <path d="M24,12 C24,15.5223772 22.4823337,18.6903424 20.0645044,20.8863924 C17.9336836,22.8215256 15.1049103,24 12,24 C8.89508969,24 6.06631636,22.8215256 3.93549557,20.8863924 C1.51766625,18.6903424 0,15.5223772 0,12 C0,5.37271243 5.37271245,0 12,0 C18.6272875,0 24,5.37271245 24,12 Z" id="路径" fill="#E2E3E5"></path>
                        <path d="M16.9117594,8.61460407 C16.9117594,5.90759193 14.7178837,3.71371624 12.0108715,3.71371624 C9.30385941,3.71371624 7.10998369,5.90759193 7.10998369,8.61460407 C7.10998369,11.3216162 9.30385941,13.5154919 12.0108715,13.5154919 C14.7178837,13.5154919 16.9117594,11.3216162 16.9117594,8.61460407 L16.9117594,8.61460407 Z" id="路径" fill="#82382B"></path>
                        <path d="M9.83004167,3.71371624 C9.83004167,4.91815532 10.8064325,5.89454611 12.0108715,5.89454611 C13.2153106,5.89454611 14.1917014,4.91815532 14.1917014,3.71371624 C14.1917014,2.50927717 13.2153106,1.53288638 12.0108715,1.53288638 C10.8064325,1.53288638 9.83004167,2.50927717 9.83004167,3.71371624 L9.83004167,3.71371624 Z" id="路径" fill="#82382B"></path>
                        <path d="M19.2534879,19.1230295 C19.2034789,19.0795434 19.1469469,19.0295343 19.0773691,18.9730023 C18.751223,18.7077369 18.1880776,18.3011415 17.0922269,17.7119043 C17.0639609,17.6966842 17.0378692,17.681464 17.0096032,17.6684182 L13.8829498,16.8574017 L12.028266,17.8358398 L12.0152201,17.8293169 L10.1213988,16.8008697 L10.0670411,16.7726037 L7.10128647,17.6097119 C7.09911217,17.6118862 7.09693785,17.6118862 7.09476355,17.6140605 C5.94238086,18.2250408 5.32922631,18.6512049 4.97481428,18.9338648 C4.88349339,19.0056169 4.80956696,19.0686718 4.74868635,19.1230295 C4.42254031,19.4143866 4.16162348,20.068853 3.93549557,20.8842181 C6.06631638,22.8193513 8.89508969,23.9978257 12,23.9978257 C15.1049103,23.9978257 17.9336836,22.8193513 20.0645044,20.8842181 C19.8405508,20.068853 19.579634,19.4122123 19.2534879,19.1230295 L19.2534879,19.1230295 Z" id="路径" fill="#70C4A2"></path>
                        <path d="M10.1213988,12.7262185 L10.1213988,17.022649 C10.6432325,17.6401522 11.3303135,17.957601 12.0195688,17.957601 C12.6957782,17.957601 13.3719877,17.6510237 13.8851241,17.022649 L13.8851241,12.7262185 C13.8829498,10.4040587 10.1213988,10.4040587 10.1213988,12.7262185 L10.1213988,12.7262185 Z" id="路径" fill="#F7D3BF"></path>
                        <path d="M13.3285015,5.4531618 C13.1784744,5.4205472 13.01975,5.39445551 12.8545026,5.37271243 C12.8284109,5.3683638 12.800145,5.36618951 12.771879,5.36401521 C12.5327052,5.33792352 12.2804856,5.32270338 12.0108715,5.32270338 C11.5216525,5.32270338 11.0846168,5.36836383 10.6954158,5.4531618 C8.018844,6.03152745 7.52745062,8.43631091 7.66660628,10.484508 C7.66878058,10.5214713 7.6709549,10.5562602 7.6753035,10.5932234 C7.68617504,10.7193332 7.69704656,10.845443 7.71226673,10.9672042 C7.77097301,11.4738177 7.86229391,11.9456423 7.96231202,12.3435405 C8.11886212,12.9762638 8.29280668,13.430694 8.38195325,13.5611524 C8.62330132,13.9177387 9.34734553,14.5874252 10.1235731,15.1353506 C10.8063055,15.620221 11.532524,16.009422 12.0108715,16.009422 C12.4848705,16.009422 13.2045661,15.6267439 13.8829498,15.1483964 C14.6678746,14.5982968 15.3984417,13.9220873 15.6419641,13.5633267 C15.7289364,13.4328683 15.9028809,12.9827867 16.059431,12.3565863 C16.1594492,11.9543395 16.2529444,11.4781663 16.3116507,10.9693785 C16.3246965,10.8497916 16.3377423,10.7280304 16.3486139,10.6062692 C16.3529625,10.5627831 16.3551368,10.5171227 16.3594854,10.4714622 C16.4921181,8.42543937 15.9963761,6.03152743 13.3285015,5.4531618 L13.3285015,5.4531618 Z" id="路径" fill="#FFDECC"></path>
                        <path d="M16.8487045,10.3323066 C16.7704294,10.3062149 16.6856314,10.3083892 16.6030078,10.3323066 C16.5595216,10.3453524 16.5138612,10.3649212 16.4703751,10.3888385 C16.4334118,10.4105816 16.3942743,10.4366733 16.3594854,10.4671136 C16.3246965,10.4953796 16.2877333,10.5301685 16.2551187,10.5649574 C16.1137887,10.7149846 15.9898532,10.9258923 15.9115782,11.171589 C15.8506976,11.3542308 15.8224316,11.5346983 15.8224316,11.6999456 C15.8202573,11.9934771 15.9050553,12.2348251 16.0637797,12.3522377 C16.0963943,12.3761551 16.1311832,12.3957238 16.1703207,12.4087697 C16.5029897,12.517485 16.9226309,12.1413299 17.1117956,11.5673129 C17.2944374,10.9954702 17.1791991,10.4431962 16.8487045,10.3323066 L16.8487045,10.3323066 Z M8.18626562,11.6803769 C8.181917,11.5216525 8.15365102,11.3498822 8.09711905,11.1737634 C8.06450445,11.0737452 8.02319263,10.9780757 7.97753216,10.8911034 C7.89055989,10.7236818 7.78184453,10.5845262 7.66443196,10.484508 C7.64486319,10.4671136 7.62312013,10.4497191 7.60137707,10.434499 C7.54267079,10.3910128 7.4817902,10.3605726 7.42090959,10.3388295 C7.3295887,10.3083892 7.2404421,10.3040406 7.15564413,10.3323066 C6.82514947,10.4431962 6.70991122,10.9954702 6.89690162,11.5694872 C7.08389203,12.1435042 7.50570756,12.5196593 7.83837652,12.410944 C7.88186267,12.3957238 7.92317449,12.3739808 7.96013772,12.3435405 C8.11233919,12.219605 8.19496287,11.9739083 8.18626562,11.6803769 L8.18626562,11.6803769 Z" id="形状" fill="#FFDECC"></path>
                        <path d="M11.808661,4.84653017 C11.7325602,4.83565862 11.6521109,4.8291357 11.5651386,4.8291357 C11.5651386,4.8291357 8.50588874,4.69867728 7.75140425,8.22105452 C7.39046931,8.4928429 7.08171771,9.88005071 7.9557891,11.0563508 C8.07537597,10.0626925 8.44065953,9.3429969 9.07120855,9.06903423 C10.1888023,8.58198947 10.6497554,9.03424533 11.943468,8.04058704 C12.7001268,7.46004709 13.1001993,6.19677475 12.9327777,5.54448269 C12.6327233,4.73346621 11.7347345,4.85957601 11.808661,4.84653017 L11.808661,4.84653017 Z" id="路径" fill="#82382B"></path>
                        <path d="M12.8349339,5.01612611 C12.8349339,5.01612611 11.7760464,8.96901612 16.4007973,10.6236637 C17.5096938,7.00561693 15.485414,4.64431959 12.8349339,5.01612611 L12.8349339,5.01612611 Z" id="路径" fill="#82382B"></path>
                        <path d="M12.0239174,18.2859213 C12.0239174,18.2859213 10.8063055,18.6685994 10.0474724,18.8099293 C9.5517304,18.9012502 9.00815367,18.9599565 8.46675122,18.942562 C7.32524007,18.9034245 7.02301142,18.5055264 6.98604819,18.1511143 C6.95560789,17.8575829 7.10563507,17.5944917 7.10563509,17.5944917 L8.5254575,17.1944193 L10.1714079,16.7312919 L12.0130458,17.5727487 L12.0239174,18.2859213 Z" id="路径" fill="#FFFFFF"></path>
                        <path d="M17.1900707,18.2663526 C17.1400616,18.6120674 16.8247871,18.9925711 15.7137162,19.0295343 C15.1570937,19.0491031 14.5982968,18.9860482 14.0938576,18.8903787 C13.3328501,18.7468744 12.0260917,18.2880957 12.0260917,18.2880956 L12.0130458,17.5727487 L13.8851241,16.8617503 L15.6941475,17.3227034 L17.0748324,17.681464 C17.0748324,17.6792897 17.2357311,17.9597753 17.1900707,18.2663526 L17.1900707,18.2663526 Z" id="路径" fill="#FFFFFF"></path>
                        <path d="M11.9673854,18.5798771 L10.3453524,19.1880775 L10.2257655,18.5297632 L11.8477985,18.1880775 L11.9673854,18.5798771 Z M12.0826237,18.5798771 L13.7046566,19.1880775 L13.8220692,18.5297632 L12.2022105,18.1880775 L12.0826237,18.5798771 Z" id="形状" fill="#544742"></path>
                        <polygon id="路径" fill="#47372F" points="11.7956152 18.1054539 12.2652655 18.1054539 12.2652655 18.7620946 11.7956152 18.7620946"></polygon>
                    </g>
                </g>
            </g>
        </g>
    </g>
</svg>