<?xml version="1.0" encoding="utf-8"?>
<!-- Generator: Adobe Illustrator 24.0.1, SVG Export Plug-In . SVG Version: 6.00 Build 0)  -->
<svg version="1.1" id="图层_1" xmlns="http://www.w3.org/2000/svg" xmlns:xlink="http://www.w3.org/1999/xlink" x="0px" y="0px"
	 viewBox="0 0 595.28 415.22" style="enable-background:new 0 0 595.28 415.22;" xml:space="preserve">
<style type="text/css">
	.st0{fill:#1A2E73;}
</style>
<g>
	<path class="st0" d="M284.32,22.21l-69.94,69.94c-0.63,0.63-0.63,1.66,0,2.29l28.99,28.99c0.63,0.63,1.66,0.63,2.29,0l38.66-38.66
		c0.63-0.63,1.66-0.63,2.29,0l38.66,38.66c0.63,0.63,1.66,0.63,2.29,0l28.99-28.99c0.63-0.63,0.63-1.66,0-2.29l-69.94-69.94
		C285.98,21.58,284.95,21.58,284.32,22.21z"/>
	<path class="st0" d="M388.1,124.85L184.21,327.4c-1.11,1.11-2.91,1.1-4.02-0.01l-67.12-67.12c-1.11-1.11-1.11-2.91,0-4.02
		l67.48-67.48c1.1-1.1,2.87-1.11,3.98-0.04l37.28,35.8c1.12,1.07,2.89,1.06,3.98-0.04l27.26-27.26c1.13-1.13,1.11-2.96-0.04-4.06
		L183.9,126.8c-1.12-1.07-2.89-1.06-3.98,0.04L50.51,256.25c-1.11,1.11-1.11,2.91,0,4.02l129.69,129.7c1.11,1.11,2.91,1.11,4.02,0
		l202.18-201.71c1.11-1.11,2.91-1.11,4.02,0l67.98,67.98c1.11,1.11,1.11,2.91,0,4.02l-67.23,67.23c-1.11,1.11-2.9,1.11-4.01,0.01
		l-37.24-36.78c-1.11-1.1-2.91-1.09-4.01,0.01L318.66,318c-1.12,1.12-1.11,2.93,0.01,4.04l68.68,67.84c1.11,1.1,2.91,1.09,4.01-0.01
		l129.62-129.62c1.1-1.1,1.11-2.89,0.02-4.01L392.13,124.88C391.03,123.75,389.22,123.74,388.1,124.85z"/>
</g>
</svg>
